{
	"asset":{
		"generator":"Khronos glTF Blender I/O v4.2.70",
		"version":"2.0"
	},
	"extensionsUsed":[
		"KHR_materials_clearcoat"
	],
	"scene":0,
	"scenes":[
		{
			"name":"Scene",
			"nodes":[
				0,
				1,
				2,
				3,
				4,
				5,
				6,
				7,
				8,
				9,
				10,
				11,
				12,
				13,
				14,
				15,
				16,
				17,
				18
			]
		}
	],
	"nodes":[
		{
			"mesh":0,
			"name":" \u8fde\u63a5\u7684\u5b9e\u5fc3\u51e0\u4f55\u56fe\u5f62 [216728]",
			"scale":[
				0.30480000376701355,
				0.30480000376701355,
				0.30480000376701355
			],
			"translation":[
				0,
				-11.923398971557617,
				0
			]
		},
		{
			"mesh":1,
			"name":"\u4f4e\u538b\u5f00\u5173\u677f - \u975e\u8bbe\u5907\u67dc 400mmx652mm - 500 [216811]",
			"rotation":[
				0,
				-0.19080901145935059,
				0,
				0.9816272854804993
			],
			"scale":[
				0.30480000376701355,
				0.30480000376701355,
				0.30480000376701355
			],
			"translation":[
				-0.8302561044692993,
				7.108326435089111,
				-0.8166109323501587
			]
		},
		{
			"mesh":2,
			"name":" \u878d\u5408 [216814]",
			"scale":[
				0.30480000376701355,
				0.30480000376701355,
				0.30480000376701355
			],
			"translation":[
				0,
				-11.923398971557617,
				0
			]
		},
		{
			"mesh":3,
			"name":" \u878d\u5408 [216821]",
			"scale":[
				0.30480000376701355,
				0.30480000376701355,
				0.30480000376701355
			],
			"translation":[
				0,
				-11.923398971557617,
				0
			]
		},
		{
			"mesh":4,
			"name":"\u4f4e\u538b\u5f00\u5173\u677f - \u975e\u8bbe\u5907\u67dc 400mmx652mm - 500 [216826]",
			"rotation":[
				0,
				-0.9681476354598999,
				0,
				0.2503799796104431
			],
			"scale":[
				0.30480000376701355,
				0.30480000376701355,
				0.30480000376701355
			],
			"translation":[
				0.8340206146240234,
				7.1146931648254395,
				-0.8312897682189941
			]
		},
		{
			"mesh":1,
			"name":"\u4f4e\u538b\u5f00\u5173\u677f - \u975e\u8bbe\u5907\u67dc 400mmx652mm - 500 [216828]",
			"rotation":[
				0,
				0.7475978136062622,
				0,
				0.6641517281532288
			],
			"scale":[
				0.30480000376701355,
				0.30480000376701355,
				0.30480000376701355
			],
			"translation":[
				-0.25433406233787537,
				7.108326435089111,
				1.0800544023513794
			]
		},
		{
			"mesh":5,
			"name":" \u878d\u5408 [216831]",
			"scale":[
				0.30480000376701355,
				0.30480000376701355,
				0.30480000376701355
			],
			"translation":[
				0,
				-11.923398971557617,
				0
			]
		},
		{
			"mesh":6,
			"name":" \u878d\u5408 [216838]",
			"scale":[
				0.30480000376701355,
				0.30480000376701355,
				0.30480000376701355
			],
			"translation":[
				0,
				-11.923398971557617,
				0
			]
		},
		{
			"mesh":7,
			"name":" \u878d\u5408 [216845]",
			"scale":[
				0.30480000376701355,
				0.30480000376701355,
				0.30480000376701355
			],
			"translation":[
				0,
				-11.923398971557617,
				0
			]
		},
		{
			"mesh":8,
			"name":" \u878d\u5408 [216852]",
			"scale":[
				0.30480000376701355,
				0.30480000376701355,
				0.30480000376701355
			],
			"translation":[
				0,
				-11.923398971557617,
				0
			]
		},
		{
			"mesh":1,
			"name":"\u4f4e\u538b\u5f00\u5173\u677f - \u975e\u8bbe\u5907\u67dc 400mmx652mm - 500 [216857]",
			"rotation":[
				0,
				-0.19080901145935059,
				0,
				0.9816272854804993
			],
			"scale":[
				0.30480000376701355,
				0.30480000376701355,
				0.30480000376701355
			],
			"translation":[
				-0.8302561044692993,
				4.508327960968018,
				-0.8166109323501587
			]
		},
		{
			"mesh":9,
			"name":" \u878d\u5408 [216860]",
			"scale":[
				0.30480000376701355,
				0.30480000376701355,
				0.30480000376701355
			],
			"translation":[
				0,
				-11.923398971557617,
				0
			]
		},
		{
			"mesh":10,
			"name":" \u878d\u5408 [216867]",
			"scale":[
				0.30480000376701355,
				0.30480000376701355,
				0.30480000376701355
			],
			"translation":[
				0,
				-11.923398971557617,
				0
			]
		},
		{
			"mesh":4,
			"name":"\u4f4e\u538b\u5f00\u5173\u677f - \u975e\u8bbe\u5907\u67dc 400mmx652mm - 500 [216872]",
			"rotation":[
				0,
				-0.9681476354598999,
				0,
				0.2503799796104431
			],
			"scale":[
				0.30480000376701355,
				0.30480000376701355,
				0.30480000376701355
			],
			"translation":[
				0.8340206146240234,
				4.514692783355713,
				-0.8312897682189941
			]
		},
		{
			"mesh":1,
			"name":"\u4f4e\u538b\u5f00\u5173\u677f - \u975e\u8bbe\u5907\u67dc 400mmx652mm - 500 [216873]",
			"rotation":[
				0,
				0.7475978136062622,
				0,
				0.6641517281532288
			],
			"scale":[
				0.30480000376701355,
				0.30480000376701355,
				0.30480000376701355
			],
			"translation":[
				-0.25842970609664917,
				4.508327960968018,
				1.0842435359954834
			]
		},
		{
			"mesh":11,
			"name":" \u878d\u5408 [216876]",
			"scale":[
				0.30480000376701355,
				0.30480000376701355,
				0.30480000376701355
			],
			"translation":[
				0,
				-11.923398971557617,
				0
			]
		},
		{
			"mesh":12,
			"name":" \u878d\u5408 [216883]",
			"scale":[
				0.30480000376701355,
				0.30480000376701355,
				0.30480000376701355
			],
			"translation":[
				0,
				-11.923398971557617,
				0
			]
		},
		{
			"mesh":13,
			"name":" \u878d\u5408 [216890]",
			"scale":[
				0.30480000376701355,
				0.30480000376701355,
				0.30480000376701355
			],
			"translation":[
				0,
				-11.923398971557617,
				0
			]
		},
		{
			"mesh":14,
			"name":" \u878d\u5408 [216897]",
			"scale":[
				0.30480000376701355,
				0.30480000376701355,
				0.30480000376701355
			],
			"translation":[
				0,
				-11.923398971557617,
				0
			]
		}
	],
	"materials":[
		{
			"doubleSided":true,
			"extensions":{
				"KHR_materials_clearcoat":{
					"clearcoatFactor":0.5,
					"clearcoatRoughnessFactor":1
				}
			},
			"name":"\u6728\u7eb9\u680f\u6746",
			"pbrMetallicRoughness":{
				"baseColorFactor":[
					0.6583711504936218,
					0.3231435716152191,
					0.1221388727426529,
					1
				],
				"metallicFactor":0.20000000298023224
			}
		},
		{
			"doubleSided":true,
			"name":"\u652f\u67b6",
			"pbrMetallicRoughness":{
				"baseColorFactor":[
					0.7681462168693542,
					0.7681518793106079,
					0.768151581287384,
					1
				],
				"metallicFactor":0.5,
				"roughnessFactor":0.20000000298023224
			}
		},
		{
			"doubleSided":true,
			"name":"\u4e0d\u9508\u94a2",
			"pbrMetallicRoughness":{
				"baseColorFactor":[
					0.33716103434562683,
					0.4851502776145935,
					0.701102077960968,
					1
				],
				"metallicFactor":0.5,
				"roughnessFactor":0.20000000298023224
			}
		}
	],
	"meshes":[
		{
			"name":" \u8fde\u63a5\u7684\u5b9e\u5fc3\u51e0\u4f55\u56fe\u5f62 [216728] Geometry",
			"primitives":[
				{
					"attributes":{
						"POSITION":0,
						"NORMAL":1,
						"TEXCOORD_0":2
					},
					"indices":3,
					"material":0
				}
			]
		},
		{
			"name":"\u4f4e\u538b\u5f00\u5173\u677f - \u975e\u8bbe\u5907\u67dc 400mmx652mm - 500 [21681_6c28d46",
			"primitives":[
				{
					"attributes":{
						"POSITION":4,
						"NORMAL":5,
						"TEXCOORD_0":6
					},
					"indices":7,
					"material":1
				}
			]
		},
		{
			"name":" \u878d\u5408 [216814] Geometry",
			"primitives":[
				{
					"attributes":{
						"POSITION":8,
						"NORMAL":9,
						"TEXCOORD_0":10
					},
					"indices":11,
					"material":2
				}
			]
		},
		{
			"name":" \u878d\u5408 [216821] Geometry",
			"primitives":[
				{
					"attributes":{
						"POSITION":12,
						"NORMAL":13,
						"TEXCOORD_0":14
					},
					"indices":15,
					"material":2
				}
			]
		},
		{
			"name":"\u4f4e\u538b\u5f00\u5173\u677f - \u975e\u8bbe\u5907\u67dc 400mmx652mm - 500 [21682_6456089",
			"primitives":[
				{
					"attributes":{
						"POSITION":16,
						"NORMAL":17,
						"TEXCOORD_0":18
					},
					"indices":19,
					"material":1
				}
			]
		},
		{
			"name":" \u878d\u5408 [216831] Geometry",
			"primitives":[
				{
					"attributes":{
						"POSITION":20,
						"NORMAL":21,
						"TEXCOORD_0":22
					},
					"indices":23,
					"material":2
				}
			]
		},
		{
			"name":" \u878d\u5408 [216838] Geometry",
			"primitives":[
				{
					"attributes":{
						"POSITION":24,
						"NORMAL":25,
						"TEXCOORD_0":26
					},
					"indices":27,
					"material":2
				}
			]
		},
		{
			"name":" \u878d\u5408 [216845] Geometry",
			"primitives":[
				{
					"attributes":{
						"POSITION":28,
						"NORMAL":29,
						"TEXCOORD_0":30
					},
					"indices":31,
					"material":2
				}
			]
		},
		{
			"name":" \u878d\u5408 [216852] Geometry",
			"primitives":[
				{
					"attributes":{
						"POSITION":32,
						"NORMAL":33,
						"TEXCOORD_0":34
					},
					"indices":35,
					"material":2
				}
			]
		},
		{
			"name":" \u878d\u5408 [216860] Geometry",
			"primitives":[
				{
					"attributes":{
						"POSITION":36,
						"NORMAL":37,
						"TEXCOORD_0":38
					},
					"indices":39,
					"material":2
				}
			]
		},
		{
			"name":" \u878d\u5408 [216867] Geometry",
			"primitives":[
				{
					"attributes":{
						"POSITION":40,
						"NORMAL":41,
						"TEXCOORD_0":42
					},
					"indices":43,
					"material":2
				}
			]
		},
		{
			"name":" \u878d\u5408 [216876] Geometry",
			"primitives":[
				{
					"attributes":{
						"POSITION":44,
						"NORMAL":45,
						"TEXCOORD_0":46
					},
					"indices":47,
					"material":2
				}
			]
		},
		{
			"name":" \u878d\u5408 [216883] Geometry",
			"primitives":[
				{
					"attributes":{
						"POSITION":48,
						"NORMAL":49,
						"TEXCOORD_0":50
					},
					"indices":51,
					"material":2
				}
			]
		},
		{
			"name":" \u878d\u5408 [216890] Geometry",
			"primitives":[
				{
					"attributes":{
						"POSITION":52,
						"NORMAL":53,
						"TEXCOORD_0":54
					},
					"indices":55,
					"material":2
				}
			]
		},
		{
			"name":" \u878d\u5408 [216897] Geometry",
			"primitives":[
				{
					"attributes":{
						"POSITION":56,
						"NORMAL":57,
						"TEXCOORD_0":58
					},
					"indices":59,
					"material":2
				}
			]
		}
	],
	"accessors":[
		{
			"bufferView":0,
			"componentType":5126,
			"count":10844,
			"max":[
				1.3123359680175781,
				68.72047424316406,
				1.3123359680175781
			],
			"min":[
				-1.3123359680175781,
				0,
				-1.3123359680175781
			],
			"type":"VEC3"
		},
		{
			"bufferView":1,
			"componentType":5126,
			"count":10844,
			"type":"VEC3"
		},
		{
			"bufferView":2,
			"componentType":5126,
			"count":10844,
			"type":"VEC2"
		},
		{
			"bufferView":3,
			"componentType":5123,
			"count":61209,
			"type":"SCALAR"
		},
		{
			"bufferView":4,
			"componentType":5126,
			"count":372,
			"max":[
				0.5249344110488892,
				4.937664031982422,
				2.1391077041625977
			],
			"min":[
				-0.5249344110488892,
				-1.0793547723349575e-13,
				2.7533531010703882e-14
			],
			"type":"VEC3"
		},
		{
			"bufferView":5,
			"componentType":5126,
			"count":372,
			"type":"VEC3"
		},
		{
			"bufferView":6,
			"componentType":5126,
			"count":372,
			"type":"VEC2"
		},
		{
			"bufferView":7,
			"componentType":5123,
			"count":1008,
			"type":"SCALAR"
		},
		{
			"bufferView":8,
			"componentType":5126,
			"count":248,
			"max":[
				-0.30322325229644775,
				63.97174835205078,
				-0.39459139108657837
			],
			"min":[
				-2.6917097568511963,
				62.691062927246094,
				-1.6598964929580688
			],
			"type":"VEC3"
		},
		{
			"bufferView":9,
			"componentType":5126,
			"count":248,
			"type":"VEC3"
		},
		{
			"bufferView":10,
			"componentType":5126,
			"count":248,
			"type":"VEC2"
		},
		{
			"bufferView":11,
			"componentType":5123,
			"count":1146,
			"type":"SCALAR"
		},
		{
			"bufferView":12,
			"componentType":5126,
			"count":262,
			"max":[
				3.117391347885132,
				66.4368667602539,
				-0.18305353820323944
			],
			"min":[
				0.27238112688064575,
				64.9202651977539,
				-1.7724348306655884
			],
			"type":"VEC3"
		},
		{
			"bufferView":13,
			"componentType":5126,
			"count":262,
			"type":"VEC3"
		},
		{
			"bufferView":14,
			"componentType":5126,
			"count":262,
			"type":"VEC2"
		},
		{
			"bufferView":15,
			"componentType":5123,
			"count":1224,
			"type":"SCALAR"
		},
		{
			"bufferView":16,
			"componentType":5126,
			"count":372,
			"max":[
				0.5249344110488892,
				4.937664031982422,
				-2.7533531010703882e-14
			],
			"min":[
				-0.5249344110488892,
				-1.0793547723349575e-13,
				-2.1391077041625977
			],
			"type":"VEC3"
		},
		{
			"bufferView":17,
			"componentType":5126,
			"count":372,
			"type":"VEC3"
		},
		{
			"bufferView":18,
			"componentType":5126,
			"count":372,
			"type":"VEC2"
		},
		{
			"bufferView":19,
			"componentType":5123,
			"count":1008,
			"type":"SCALAR"
		},
		{
			"bufferView":20,
			"componentType":5126,
			"count":222,
			"max":[
				0.27857816219329834,
				63.997493743896484,
				2.981478452682495
			],
			"min":[
				-0.1026134118437767,
				62.78010559082031,
				0.5460317134857178
			],
			"type":"VEC3"
		},
		{
			"bufferView":21,
			"componentType":5126,
			"count":222,
			"type":"VEC3"
		},
		{
			"bufferView":22,
			"componentType":5126,
			"count":222,
			"type":"VEC2"
		},
		{
			"bufferView":23,
			"componentType":5123,
			"count":1020,
			"type":"SCALAR"
		},
		{
			"bufferView":24,
			"componentType":5126,
			"count":256,
			"max":[
				3.0421783924102783,
				64.16963958740234,
				-0.1983148604631424
			],
			"min":[
				0.30227503180503845,
				62.703704833984375,
				-1.7340373992919922
			],
			"type":"VEC3"
		},
		{
			"bufferView":25,
			"componentType":5126,
			"count":256,
			"type":"VEC3"
		},
		{
			"bufferView":26,
			"componentType":5126,
			"count":256,
			"type":"VEC2"
		},
		{
			"bufferView":27,
			"componentType":5123,
			"count":1206,
			"type":"SCALAR"
		},
		{
			"bufferView":28,
			"componentType":5126,
			"count":240,
			"max":[
				-0.39283132553100586,
				66.1330337524414,
				-0.43629059195518494
			],
			"min":[
				-2.683114528656006,
				64.89885711669922,
				-1.655896782875061
			],
			"type":"VEC3"
		},
		{
			"bufferView":29,
			"componentType":5126,
			"count":240,
			"type":"VEC3"
		},
		{
			"bufferView":30,
			"componentType":5126,
			"count":240,
			"type":"VEC2"
		},
		{
			"bufferView":31,
			"componentType":5123,
			"count":1110,
			"type":"SCALAR"
		},
		{
			"bufferView":32,
			"componentType":5126,
			"count":222,
			"max":[
				0.2788443863391876,
				66.42703247070312,
				2.985475778579712
			],
			"min":[
				-0.1026134118437767,
				65.20792388916016,
				0.5460317134857178
			],
			"type":"VEC3"
		},
		{
			"bufferView":33,
			"componentType":5126,
			"count":222,
			"type":"VEC3"
		},
		{
			"bufferView":34,
			"componentType":5126,
			"count":222,
			"type":"VEC2"
		},
		{
			"bufferView":35,
			"componentType":5123,
			"count":1020,
			"type":"SCALAR"
		},
		{
			"bufferView":36,
			"componentType":5126,
			"count":246,
			"max":[
				-0.45216041803359985,
				55.49136734008789,
				-0.4638994336128235
			],
			"min":[
				-2.7968647480010986,
				54.231414794921875,
				-1.70883047580719
			],
			"type":"VEC3"
		},
		{
			"bufferView":37,
			"componentType":5126,
			"count":246,
			"type":"VEC3"
		},
		{
			"bufferView":38,
			"componentType":5126,
			"count":246,
			"type":"VEC2"
		},
		{
			"bufferView":39,
			"componentType":5123,
			"count":1146,
			"type":"SCALAR"
		},
		{
			"bufferView":40,
			"componentType":5126,
			"count":254,
			"max":[
				2.8756515979766846,
				57.79014205932617,
				-0.26807913184165955
			],
			"min":[
				0.43892937898635864,
				56.470375061035156,
				-1.6490226984024048
			],
			"type":"VEC3"
		},
		{
			"bufferView":41,
			"componentType":5126,
			"count":254,
			"type":"VEC3"
		},
		{
			"bufferView":42,
			"componentType":5126,
			"count":254,
			"type":"VEC2"
		},
		{
			"bufferView":43,
			"componentType":5123,
			"count":1176,
			"type":"SCALAR"
		},
		{
			"bufferView":44,
			"componentType":5126,
			"count":222,
			"max":[
				0.277772456407547,
				55.46210479736328,
				2.96938157081604
			],
			"min":[
				-0.1026134118437767,
				54.24991989135742,
				0.5460317134857178
			],
			"type":"VEC3"
		},
		{
			"bufferView":45,
			"componentType":5126,
			"count":222,
			"type":"VEC3"
		},
		{
			"bufferView":46,
			"componentType":5126,
			"count":222,
			"type":"VEC2"
		},
		{
			"bufferView":47,
			"componentType":5123,
			"count":1026,
			"type":"SCALAR"
		},
		{
			"bufferView":48,
			"componentType":5126,
			"count":240,
			"max":[
				2.8827340602874756,
				55.56258773803711,
				-0.1943719983100891
			],
			"min":[
				0.2945517301559448,
				54.1697998046875,
				-1.6526384353637695
			],
			"type":"VEC3"
		},
		{
			"bufferView":49,
			"componentType":5126,
			"count":240,
			"type":"VEC3"
		},
		{
			"bufferView":50,
			"componentType":5126,
			"count":240,
			"type":"VEC2"
		},
		{
			"bufferView":51,
			"componentType":5123,
			"count":1104,
			"type":"SCALAR"
		},
		{
			"bufferView":52,
			"componentType":5126,
			"count":242,
			"max":[
				-0.33138296008110046,
				57.66461944580078,
				-0.40769556164741516
			],
			"min":[
				-2.813542604446411,
				56.339569091796875,
				-1.716591477394104
			],
			"type":"VEC3"
		},
		{
			"bufferView":53,
			"componentType":5126,
			"count":242,
			"type":"VEC3"
		},
		{
			"bufferView":54,
			"componentType":5126,
			"count":242,
			"type":"VEC2"
		},
		{
			"bufferView":55,
			"componentType":5123,
			"count":1122,
			"type":"SCALAR"
		},
		{
			"bufferView":56,
			"componentType":5126,
			"count":222,
			"max":[
				0.27843496203422546,
				57.89420700073242,
				2.9793283939361572
			],
			"min":[
				-0.1026134118437767,
				56.67774200439453,
				0.5460317134857178
			],
			"type":"VEC3"
		},
		{
			"bufferView":57,
			"componentType":5126,
			"count":222,
			"type":"VEC3"
		},
		{
			"bufferView":58,
			"componentType":5126,
			"count":222,
			"type":"VEC2"
		},
		{
			"bufferView":59,
			"componentType":5123,
			"count":1020,
			"type":"SCALAR"
		}
	],
	"bufferViews":[
		{
			"buffer":0,
			"byteLength":130128,
			"byteOffset":0,
			"target":34962
		},
		{
			"buffer":0,
			"byteLength":130128,
			"byteOffset":130128,
			"target":34962
		},
		{
			"buffer":0,
			"byteLength":86752,
			"byteOffset":260256,
			"target":34962
		},
		{
			"buffer":0,
			"byteLength":122418,
			"byteOffset":347008,
			"target":34963
		},
		{
			"buffer":0,
			"byteLength":4464,
			"byteOffset":469428,
			"target":34962
		},
		{
			"buffer":0,
			"byteLength":4464,
			"byteOffset":473892,
			"target":34962
		},
		{
			"buffer":0,
			"byteLength":2976,
			"byteOffset":478356,
			"target":34962
		},
		{
			"buffer":0,
			"byteLength":2016,
			"byteOffset":481332,
			"target":34963
		},
		{
			"buffer":0,
			"byteLength":2976,
			"byteOffset":483348,
			"target":34962
		},
		{
			"buffer":0,
			"byteLength":2976,
			"byteOffset":486324,
			"target":34962
		},
		{
			"buffer":0,
			"byteLength":1984,
			"byteOffset":489300,
			"target":34962
		},
		{
			"buffer":0,
			"byteLength":2292,
			"byteOffset":491284,
			"target":34963
		},
		{
			"buffer":0,
			"byteLength":3144,
			"byteOffset":493576,
			"target":34962
		},
		{
			"buffer":0,
			"byteLength":3144,
			"byteOffset":496720,
			"target":34962
		},
		{
			"buffer":0,
			"byteLength":2096,
			"byteOffset":499864,
			"target":34962
		},
		{
			"buffer":0,
			"byteLength":2448,
			"byteOffset":501960,
			"target":34963
		},
		{
			"buffer":0,
			"byteLength":4464,
			"byteOffset":504408,
			"target":34962
		},
		{
			"buffer":0,
			"byteLength":4464,
			"byteOffset":508872,
			"target":34962
		},
		{
			"buffer":0,
			"byteLength":2976,
			"byteOffset":513336,
			"target":34962
		},
		{
			"buffer":0,
			"byteLength":2016,
			"byteOffset":516312,
			"target":34963
		},
		{
			"buffer":0,
			"byteLength":2664,
			"byteOffset":518328,
			"target":34962
		},
		{
			"buffer":0,
			"byteLength":2664,
			"byteOffset":520992,
			"target":34962
		},
		{
			"buffer":0,
			"byteLength":1776,
			"byteOffset":523656,
			"target":34962
		},
		{
			"buffer":0,
			"byteLength":2040,
			"byteOffset":525432,
			"target":34963
		},
		{
			"buffer":0,
			"byteLength":3072,
			"byteOffset":527472,
			"target":34962
		},
		{
			"buffer":0,
			"byteLength":3072,
			"byteOffset":530544,
			"target":34962
		},
		{
			"buffer":0,
			"byteLength":2048,
			"byteOffset":533616,
			"target":34962
		},
		{
			"buffer":0,
			"byteLength":2412,
			"byteOffset":535664,
			"target":34963
		},
		{
			"buffer":0,
			"byteLength":2880,
			"byteOffset":538076,
			"target":34962
		},
		{
			"buffer":0,
			"byteLength":2880,
			"byteOffset":540956,
			"target":34962
		},
		{
			"buffer":0,
			"byteLength":1920,
			"byteOffset":543836,
			"target":34962
		},
		{
			"buffer":0,
			"byteLength":2220,
			"byteOffset":545756,
			"target":34963
		},
		{
			"buffer":0,
			"byteLength":2664,
			"byteOffset":547976,
			"target":34962
		},
		{
			"buffer":0,
			"byteLength":2664,
			"byteOffset":550640,
			"target":34962
		},
		{
			"buffer":0,
			"byteLength":1776,
			"byteOffset":553304,
			"target":34962
		},
		{
			"buffer":0,
			"byteLength":2040,
			"byteOffset":555080,
			"target":34963
		},
		{
			"buffer":0,
			"byteLength":2952,
			"byteOffset":557120,
			"target":34962
		},
		{
			"buffer":0,
			"byteLength":2952,
			"byteOffset":560072,
			"target":34962
		},
		{
			"buffer":0,
			"byteLength":1968,
			"byteOffset":563024,
			"target":34962
		},
		{
			"buffer":0,
			"byteLength":2292,
			"byteOffset":564992,
			"target":34963
		},
		{
			"buffer":0,
			"byteLength":3048,
			"byteOffset":567284,
			"target":34962
		},
		{
			"buffer":0,
			"byteLength":3048,
			"byteOffset":570332,
			"target":34962
		},
		{
			"buffer":0,
			"byteLength":2032,
			"byteOffset":573380,
			"target":34962
		},
		{
			"buffer":0,
			"byteLength":2352,
			"byteOffset":575412,
			"target":34963
		},
		{
			"buffer":0,
			"byteLength":2664,
			"byteOffset":577764,
			"target":34962
		},
		{
			"buffer":0,
			"byteLength":2664,
			"byteOffset":580428,
			"target":34962
		},
		{
			"buffer":0,
			"byteLength":1776,
			"byteOffset":583092,
			"target":34962
		},
		{
			"buffer":0,
			"byteLength":2052,
			"byteOffset":584868,
			"target":34963
		},
		{
			"buffer":0,
			"byteLength":2880,
			"byteOffset":586920,
			"target":34962
		},
		{
			"buffer":0,
			"byteLength":2880,
			"byteOffset":589800,
			"target":34962
		},
		{
			"buffer":0,
			"byteLength":1920,
			"byteOffset":592680,
			"target":34962
		},
		{
			"buffer":0,
			"byteLength":2208,
			"byteOffset":594600,
			"target":34963
		},
		{
			"buffer":0,
			"byteLength":2904,
			"byteOffset":596808,
			"target":34962
		},
		{
			"buffer":0,
			"byteLength":2904,
			"byteOffset":599712,
			"target":34962
		},
		{
			"buffer":0,
			"byteLength":1936,
			"byteOffset":602616,
			"target":34962
		},
		{
			"buffer":0,
			"byteLength":2244,
			"byteOffset":604552,
			"target":34963
		},
		{
			"buffer":0,
			"byteLength":2664,
			"byteOffset":606796,
			"target":34962
		},
		{
			"buffer":0,
			"byteLength":2664,
			"byteOffset":609460,
			"target":34962
		},
		{
			"buffer":0,
			"byteLength":1776,
			"byteOffset":612124,
			"target":34962
		},
		{
			"buffer":0,
			"byteLength":2040,
			"byteOffset":613900,
			"target":34963
		}
	],
	"buffers":[
		{
			"byteLength":615940,
			"uri":"signal-tower.bin"
		}
	]
}
