{
	"asset":{
		"generator":"Khronos glTF Blender I/O v4.2.70",
		"version":"2.0"
	},
	"scene":0,
	"scenes":[
		{
			"name":"Scene",
			"nodes":[
				0,
				1,
				2
			]
		}
	],
	"nodes":[
		{
			"mesh":0,
			"name":" \u62c9\u4f38 [299473]",
			"scale":[
				0.30480000376701355,
				0.30480000376701355,
				0.30480000376701355
			],
			"translation":[
				0,
				-0.7347701191902161,
				-0.6368007659912109
			]
		},
		{
			"mesh":1,
			"name":" \u62c9\u4f38 [299508]",
			"scale":[
				0.30480000376701355,
				0.30480000376701355,
				0.30480000376701355
			],
			"translation":[
				0,
				-0.7347701191902161,
				-0.6368007659912109
			]
		},
		{
			"mesh":2,
			"name":" \u62c9\u4f38 [299512]",
			"scale":[
				0.30480000376701355,
				0.30480000376701355,
				0.30480000376701355
			],
			"translation":[
				0,
				-0.7347701191902161,
				-0.6368007659912109
			]
		}
	],
	"materials":[
		{
			"doubleSided":true,
			"name":"\u4e0d\u9508\u94a2",
			"pbrMetallicRoughness":{
				"baseColorFactor":[
					0.33716103434562683,
					0.4851502776145935,
					0.701102077960968,
					1
				],
				"metallicFactor":0.5,
				"roughnessFactor":0.20000000298023224
			}
		},
		{
			"doubleSided":true,
			"name":"\u652f\u67b6",
			"pbrMetallicRoughness":{
				"baseColorFactor":[
					0.7681462168693542,
					0.7681518793106079,
					0.768151581287384,
					1
				],
				"metallicFactor":0.5,
				"roughnessFactor":0.20000000298023224
			}
		}
	],
	"meshes":[
		{
			"name":" \u62c9\u4f38 [299473] Geometry",
			"primitives":[
				{
					"attributes":{
						"POSITION":0,
						"NORMAL":1,
						"TEXCOORD_0":2
					},
					"indices":3,
					"material":0
				}
			]
		},
		{
			"name":" \u62c9\u4f38 [299508] Geometry",
			"primitives":[
				{
					"attributes":{
						"POSITION":4,
						"NORMAL":5,
						"TEXCOORD_0":6
					},
					"indices":7,
					"material":1
				}
			]
		},
		{
			"name":" \u62c9\u4f38 [299512] Geometry",
			"primitives":[
				{
					"attributes":{
						"POSITION":8,
						"NORMAL":9,
						"TEXCOORD_0":10
					},
					"indices":11,
					"material":1
				}
			]
		}
	],
	"accessors":[
		{
			"bufferView":0,
			"componentType":5126,
			"count":84,
			"max":[
				2.4245681762695312,
				7.4803147315979,
				8.36496639251709
			],
			"min":[
				-2.4245681762695312,
				0,
				-4.758392810821533
			],
			"type":"VEC3"
		},
		{
			"bufferView":1,
			"componentType":5126,
			"count":84,
			"type":"VEC3"
		},
		{
			"bufferView":2,
			"componentType":5126,
			"count":84,
			"type":"VEC2"
		},
		{
			"bufferView":3,
			"componentType":5123,
			"count":156,
			"type":"SCALAR"
		},
		{
			"bufferView":4,
			"componentType":5126,
			"count":178,
			"max":[
				1.1482939720153809,
				4.3307085037231445,
				10.158623695373535
			],
			"min":[
				-1.1482939720153809,
				2.034120798110962,
				8.36496639251709
			],
			"type":"VEC3"
		},
		{
			"bufferView":5,
			"componentType":5126,
			"count":178,
			"type":"VEC3"
		},
		{
			"bufferView":6,
			"componentType":5126,
			"count":178,
			"type":"VEC2"
		},
		{
			"bufferView":7,
			"componentType":5123,
			"count":612,
			"type":"SCALAR"
		},
		{
			"bufferView":8,
			"componentType":5126,
			"count":140,
			"max":[
				1.1482939720153809,
				2.8300788402557373,
				-4.758392810821533
			],
			"min":[
				-1.1482939720153809,
				0.5432877540588379,
				-5.987616539001465
			],
			"type":"VEC3"
		},
		{
			"bufferView":9,
			"componentType":5126,
			"count":140,
			"type":"VEC3"
		},
		{
			"bufferView":10,
			"componentType":5126,
			"count":140,
			"type":"VEC2"
		},
		{
			"bufferView":11,
			"componentType":5123,
			"count":396,
			"type":"SCALAR"
		}
	],
	"bufferViews":[
		{
			"buffer":0,
			"byteLength":1008,
			"byteOffset":0,
			"target":34962
		},
		{
			"buffer":0,
			"byteLength":1008,
			"byteOffset":1008,
			"target":34962
		},
		{
			"buffer":0,
			"byteLength":672,
			"byteOffset":2016,
			"target":34962
		},
		{
			"buffer":0,
			"byteLength":312,
			"byteOffset":2688,
			"target":34963
		},
		{
			"buffer":0,
			"byteLength":2136,
			"byteOffset":3000,
			"target":34962
		},
		{
			"buffer":0,
			"byteLength":2136,
			"byteOffset":5136,
			"target":34962
		},
		{
			"buffer":0,
			"byteLength":1424,
			"byteOffset":7272,
			"target":34962
		},
		{
			"buffer":0,
			"byteLength":1224,
			"byteOffset":8696,
			"target":34963
		},
		{
			"buffer":0,
			"byteLength":1680,
			"byteOffset":9920,
			"target":34962
		},
		{
			"buffer":0,
			"byteLength":1680,
			"byteOffset":11600,
			"target":34962
		},
		{
			"buffer":0,
			"byteLength":1120,
			"byteOffset":13280,
			"target":34962
		},
		{
			"buffer":0,
			"byteLength":792,
			"byteOffset":14400,
			"target":34963
		}
	],
	"buffers":[
		{
			"byteLength":15192,
			"uri":"precision-filter.bin"
		}
	]
}
