{
	"asset":{
		"generator":"Khronos glTF Blender I/O v4.2.70",
		"version":"2.0"
	},
	"scene":0,
	"scenes":[
		{
			"name":"Scene",
			"nodes":[
				0
			]
		}
	],
	"nodes":[
		{
			"mesh":0,
			"name":" \u62c9\u4f38 [214743]",
			"scale":[
				0.30480000376701355,
				0.30480000376701355,
				0.30480000376701355
			]
		}
	],
	"materials":[
		{
			"doubleSided":true,
			"name":"\u697c\u68af",
			"pbrMetallicRoughness":{
				"baseColorFactor":[
					0.3279515206813812,
					0.3314253091812134,
					0.33842921257019043,
					1
				],
				"metallicFactor":0
			}
		}
	],
	"meshes":[
		{
			"name":" \u62c9\u4f38 [214743] Geometry",
			"primitives":[
				{
					"attributes":{
						"POSITION":0,
						"NORMAL":1,
						"TEXCOORD_0":2
					},
					"indices":3,
					"material":0
				}
			]
		}
	],
	"accessors":[
		{
			"bufferView":0,
			"componentType":5126,
			"count":36,
			"max":[
				0.32808399200439453,
				0.6561679840087891,
				1.3123359680175781
			],
			"min":[
				-0.32808399200439453,
				1.4033219031261979e-13,
				-1.3123359680175781
			],
			"type":"VEC3"
		},
		{
			"bufferView":1,
			"componentType":5126,
			"count":36,
			"type":"VEC3"
		},
		{
			"bufferView":2,
			"componentType":5126,
			"count":36,
			"type":"VEC2"
		},
		{
			"bufferView":3,
			"componentType":5123,
			"count":60,
			"type":"SCALAR"
		}
	],
	"bufferViews":[
		{
			"buffer":0,
			"byteLength":432,
			"byteOffset":0,
			"target":34962
		},
		{
			"buffer":0,
			"byteLength":432,
			"byteOffset":432,
			"target":34962
		},
		{
			"buffer":0,
			"byteLength":288,
			"byteOffset":864,
			"target":34962
		},
		{
			"buffer":0,
			"byteLength":120,
			"byteOffset":1152,
			"target":34963
		}
	],
	"buffers":[
		{
			"byteLength":1272,
			"uri":"support-wall.bin"
		}
	]
}
