{
	"asset":{
		"generator":"Khronos glTF Blender I/O v4.2.70",
		"version":"2.0"
	},
	"extensionsUsed":[
		"KHR_materials_clearcoat"
	],
	"scene":0,
	"scenes":[
		{
			"name":"Scene",
			"nodes":[
				0,
				1,
				2,
				3,
				4,
				5,
				6,
				7,
				8,
				9,
				10,
				11
			]
		}
	],
	"nodes":[
		{
			"mesh":0,
			"name":" \u65cb\u8f6c [213200]",
			"scale":[
				0.30480000376701355,
				0.30480000376701355,
				0.30480000376701355
			],
			"translation":[
				0,
				-1.861417531967163,
				0
			]
		},
		{
			"mesh":1,
			"name":" \u62c9\u4f38 [213237]",
			"scale":[
				0.30480000376701355,
				0.30480000376701355,
				0.30480000376701355
			],
			"translation":[
				0,
				-1.861417531967163,
				0
			]
		},
		{
			"mesh":2,
			"name":" \u65cb\u8f6c [213251]",
			"scale":[
				0.30480000376701355,
				0.30480000376701355,
				0.30480000376701355
			],
			"translation":[
				0,
				-1.861417531967163,
				0
			]
		},
		{
			"mesh":3,
			"name":" \u65cb\u8f6c [213259]",
			"scale":[
				0.30480000376701355,
				0.30480000376701355,
				0.30480000376701355
			],
			"translation":[
				0,
				-1.861417531967163,
				0
			]
		},
		{
			"mesh":4,
			"name":" \u65cb\u8f6c [213267]",
			"scale":[
				0.30480000376701355,
				0.30480000376701355,
				0.30480000376701355
			],
			"translation":[
				0,
				-1.861417531967163,
				0
			]
		},
		{
			"mesh":5,
			"name":" \u65cb\u8f6c [213275]",
			"scale":[
				0.30480000376701355,
				0.30480000376701355,
				0.30480000376701355
			],
			"translation":[
				0,
				-1.861417531967163,
				0
			]
		},
		{
			"mesh":6,
			"name":" \u8fde\u63a5\u7684\u5b9e\u5fc3\u51e0\u4f55\u56fe\u5f62 [213285]",
			"scale":[
				0.30480000376701355,
				0.30480000376701355,
				0.30480000376701355
			],
			"translation":[
				0,
				-1.861417531967163,
				0
			]
		},
		{
			"mesh":7,
			"name":" \u62c9\u4f38 [213287]",
			"scale":[
				0.30480000376701355,
				0.30480000376701355,
				0.30480000376701355
			],
			"translation":[
				0,
				-1.861417531967163,
				0
			]
		},
		{
			"mesh":8,
			"name":" \u62c9\u4f38 [213295]",
			"scale":[
				0.30480000376701355,
				0.30480000376701355,
				0.30480000376701355
			],
			"translation":[
				0,
				-1.861417531967163,
				0
			]
		},
		{
			"mesh":9,
			"name":" \u62c9\u4f38 [213298]",
			"scale":[
				0.30480000376701355,
				0.30480000376701355,
				0.30480000376701355
			],
			"translation":[
				0,
				-1.861417531967163,
				0
			]
		},
		{
			"mesh":10,
			"name":" \u62c9\u4f38 [213305]",
			"scale":[
				0.30480000376701355,
				0.30480000376701355,
				0.30480000376701355
			],
			"translation":[
				0,
				-1.861417531967163,
				0
			]
		},
		{
			"mesh":11,
			"name":" \u62c9\u4f38 [213308]",
			"scale":[
				0.30480000376701355,
				0.30480000376701355,
				0.30480000376701355
			],
			"translation":[
				0,
				-1.861417531967163,
				0
			]
		}
	],
	"materials":[
		{
			"doubleSided":true,
			"name":"\u6162\u884c\u7cfb\u7edf",
			"pbrMetallicRoughness":{
				"baseColorFactor":[
					0.00367595418356359,
					0.2195262610912323,
					0.5520115494728088,
					1
				],
				"metallicFactor":0.20000000298023224
			}
		},
		{
			"doubleSided":true,
			"extensions":{
				"KHR_materials_clearcoat":{
					"clearcoatFactor":0.5,
					"clearcoatRoughnessFactor":0.4890909194946289
				}
			},
			"name":"\u6307\u793a\u7bad\u5934-\u9ec4\u8272",
			"pbrMetallicRoughness":{
				"baseColorFactor":[
					0.9999940991401672,
					0.7379112243652344,
					1.85424966048231e-07,
					1
				],
				"metallicFactor":0
			}
		},
		{
			"doubleSided":true,
			"emissiveFactor":[
				0.5,
				0.5,
				0.5
			],
			"extensions":{
				"KHR_materials_clearcoat":{
					"clearcoatFactor":0.5,
					"clearcoatRoughnessFactor":0.4890909194946289
				}
			},
			"name":"\u6307\u793a\u7bad\u5934",
			"pbrMetallicRoughness":{
				"baseColorFactor":[
					0.9734388589859009,
					0.9734460711479187,
					0.9734456539154053,
					1
				],
				"metallicFactor":0.5
			}
		}
	],
	"meshes":[
		{
			"name":" \u65cb\u8f6c [213200] Geometry",
			"primitives":[
				{
					"attributes":{
						"POSITION":0,
						"NORMAL":1,
						"TEXCOORD_0":2
					},
					"indices":3,
					"material":0
				}
			]
		},
		{
			"name":" \u62c9\u4f38 [213237] Geometry",
			"primitives":[
				{
					"attributes":{
						"POSITION":4,
						"NORMAL":5,
						"TEXCOORD_0":6
					},
					"indices":7,
					"material":1
				}
			]
		},
		{
			"name":" \u65cb\u8f6c [213251] Geometry",
			"primitives":[
				{
					"attributes":{
						"POSITION":8,
						"NORMAL":9,
						"TEXCOORD_0":10
					},
					"indices":11,
					"material":2
				}
			]
		},
		{
			"name":" \u65cb\u8f6c [213259] Geometry",
			"primitives":[
				{
					"attributes":{
						"POSITION":12,
						"NORMAL":13,
						"TEXCOORD_0":14
					},
					"indices":15,
					"material":2
				}
			]
		},
		{
			"name":" \u65cb\u8f6c [213267] Geometry",
			"primitives":[
				{
					"attributes":{
						"POSITION":16,
						"NORMAL":17,
						"TEXCOORD_0":18
					},
					"indices":19,
					"material":2
				}
			]
		},
		{
			"name":" \u65cb\u8f6c [213275] Geometry",
			"primitives":[
				{
					"attributes":{
						"POSITION":20,
						"NORMAL":21,
						"TEXCOORD_0":22
					},
					"indices":23,
					"material":2
				}
			]
		},
		{
			"name":" \u8fde\u63a5\u7684\u5b9e\u5fc3\u51e0\u4f55\u56fe\u5f62 [213285] Geometry",
			"primitives":[
				{
					"attributes":{
						"POSITION":24,
						"NORMAL":25,
						"TEXCOORD_0":26
					},
					"indices":27,
					"material":1
				}
			]
		},
		{
			"name":" \u62c9\u4f38 [213287] Geometry",
			"primitives":[
				{
					"attributes":{
						"POSITION":28,
						"NORMAL":29,
						"TEXCOORD_0":30
					},
					"indices":31,
					"material":2
				}
			]
		},
		{
			"name":" \u62c9\u4f38 [213295] Geometry",
			"primitives":[
				{
					"attributes":{
						"POSITION":32,
						"NORMAL":33,
						"TEXCOORD_0":34
					},
					"indices":35,
					"material":2
				}
			]
		},
		{
			"name":" \u62c9\u4f38 [213298] Geometry",
			"primitives":[
				{
					"attributes":{
						"POSITION":36,
						"NORMAL":37,
						"TEXCOORD_0":38
					},
					"indices":39,
					"material":2
				}
			]
		},
		{
			"name":" \u62c9\u4f38 [213305] Geometry",
			"primitives":[
				{
					"attributes":{
						"POSITION":40,
						"NORMAL":41,
						"TEXCOORD_0":42
					},
					"indices":43,
					"material":2
				}
			]
		},
		{
			"name":" \u62c9\u4f38 [213308] Geometry",
			"primitives":[
				{
					"attributes":{
						"POSITION":44,
						"NORMAL":45,
						"TEXCOORD_0":46
					},
					"indices":47,
					"material":2
				}
			]
		}
	],
	"accessors":[
		{
			"bufferView":0,
			"componentType":5126,
			"count":204,
			"max":[
				0.5511810779571533,
				12.959317207336426,
				0.5511810779571533
			],
			"min":[
				-0.5511810779571533,
				12.763459205627441,
				-0.5511810779571533
			],
			"type":"VEC3"
		},
		{
			"bufferView":1,
			"componentType":5126,
			"count":204,
			"type":"VEC3"
		},
		{
			"bufferView":2,
			"componentType":5126,
			"count":204,
			"type":"VEC2"
		},
		{
			"bufferView":3,
			"componentType":5123,
			"count":576,
			"type":"SCALAR"
		},
		{
			"bufferView":4,
			"componentType":5126,
			"count":36,
			"max":[
				3.7755157947540283,
				12.202286720275879,
				0.28470513224601746
			],
			"min":[
				-3.7755157947540283,
				11.862455368041992,
				-0.2807178199291229
			],
			"type":"VEC3"
		},
		{
			"bufferView":5,
			"componentType":5126,
			"count":36,
			"type":"VEC3"
		},
		{
			"bufferView":6,
			"componentType":5126,
			"count":36,
			"type":"VEC2"
		},
		{
			"bufferView":7,
			"componentType":5123,
			"count":48,
			"type":"SCALAR"
		},
		{
			"bufferView":8,
			"componentType":5126,
			"count":102,
			"max":[
				-2.9817605018615723,
				12.483159065246582,
				0.2653622031211853
			],
			"min":[
				-3.5124847888946533,
				12.42219066619873,
				-0.2653622031211853
			],
			"type":"VEC3"
		},
		{
			"bufferView":9,
			"componentType":5126,
			"count":102,
			"type":"VEC3"
		},
		{
			"bufferView":10,
			"componentType":5126,
			"count":102,
			"type":"VEC2"
		},
		{
			"bufferView":11,
			"componentType":5123,
			"count":288,
			"type":"SCALAR"
		},
		{
			"bufferView":12,
			"componentType":5126,
			"count":78,
			"max":[
				-3.1392414569854736,
				12.42219066619873,
				0.10788120329380035
			],
			"min":[
				-3.355003833770752,
				12.202286720275879,
				-0.10788120329380035
			],
			"type":"VEC3"
		},
		{
			"bufferView":13,
			"componentType":5126,
			"count":78,
			"type":"VEC3"
		},
		{
			"bufferView":14,
			"componentType":5126,
			"count":78,
			"type":"VEC2"
		},
		{
			"bufferView":15,
			"componentType":5123,
			"count":216,
			"type":"SCALAR"
		},
		{
			"bufferView":16,
			"componentType":5126,
			"count":102,
			"max":[
				3.5124847888946533,
				12.483159065246582,
				0.2653622031211853
			],
			"min":[
				2.9817605018615723,
				12.42219066619873,
				-0.2653622031211853
			],
			"type":"VEC3"
		},
		{
			"bufferView":17,
			"componentType":5126,
			"count":102,
			"type":"VEC3"
		},
		{
			"bufferView":18,
			"componentType":5126,
			"count":102,
			"type":"VEC2"
		},
		{
			"bufferView":19,
			"componentType":5123,
			"count":288,
			"type":"SCALAR"
		},
		{
			"bufferView":20,
			"componentType":5126,
			"count":78,
			"max":[
				3.355003833770752,
				12.42219066619873,
				0.10788120329380035
			],
			"min":[
				3.1392414569854736,
				12.202286720275879,
				-0.10788120329380035
			],
			"type":"VEC3"
		},
		{
			"bufferView":21,
			"componentType":5126,
			"count":78,
			"type":"VEC3"
		},
		{
			"bufferView":22,
			"componentType":5126,
			"count":78,
			"type":"VEC2"
		},
		{
			"bufferView":23,
			"componentType":5123,
			"count":216,
			"type":"SCALAR"
		},
		{
			"bufferView":24,
			"componentType":5126,
			"count":3036,
			"max":[
				4.92075252532959,
				12.763459205627441,
				4.915797710418701
			],
			"min":[
				-4.92075252532959,
				-2.4868995751603507e-13,
				-4.915797710418701
			],
			"type":"VEC3"
		},
		{
			"bufferView":25,
			"componentType":5126,
			"count":3036,
			"type":"VEC3"
		},
		{
			"bufferView":26,
			"componentType":5126,
			"count":3036,
			"type":"VEC2"
		},
		{
			"bufferView":27,
			"componentType":5123,
			"count":11940,
			"type":"SCALAR"
		},
		{
			"bufferView":28,
			"componentType":5126,
			"count":100,
			"max":[
				0.2624672055244446,
				1.1154855489730835,
				4.836588382720947
			],
			"min":[
				-0.2624672055244446,
				0.5905511975288391,
				4.770971298217773
			],
			"type":"VEC3"
		},
		{
			"bufferView":29,
			"componentType":5126,
			"count":100,
			"type":"VEC3"
		},
		{
			"bufferView":30,
			"componentType":5126,
			"count":100,
			"type":"VEC2"
		},
		{
			"bufferView":31,
			"componentType":5123,
			"count":276,
			"type":"SCALAR"
		},
		{
			"bufferView":32,
			"componentType":5126,
			"count":98,
			"max":[
				4.770971298217773,
				1.017060399055481,
				0.16404199600219727
			],
			"min":[
				4.355376243591309,
				0.6889764070510864,
				-0.16404199600219727
			],
			"type":"VEC3"
		},
		{
			"bufferView":33,
			"componentType":5126,
			"count":98,
			"type":"VEC3"
		},
		{
			"bufferView":34,
			"componentType":5126,
			"count":98,
			"type":"VEC2"
		},
		{
			"bufferView":35,
			"componentType":5123,
			"count":276,
			"type":"SCALAR"
		},
		{
			"bufferView":36,
			"componentType":5126,
			"count":100,
			"max":[
				4.836588382720947,
				1.1154855489730835,
				0.2624672055244446
			],
			"min":[
				4.770971298217773,
				0.5905511975288391,
				-0.2624672055244446
			],
			"type":"VEC3"
		},
		{
			"bufferView":37,
			"componentType":5126,
			"count":100,
			"type":"VEC3"
		},
		{
			"bufferView":38,
			"componentType":5126,
			"count":100,
			"type":"VEC2"
		},
		{
			"bufferView":39,
			"componentType":5123,
			"count":276,
			"type":"SCALAR"
		},
		{
			"bufferView":40,
			"componentType":5126,
			"count":98,
			"max":[
				0.16404199600219727,
				10.859580039978027,
				4.770971298217773
			],
			"min":[
				-0.16404199600219727,
				10.531496047973633,
				4.355376243591309
			],
			"type":"VEC3"
		},
		{
			"bufferView":41,
			"componentType":5126,
			"count":98,
			"type":"VEC3"
		},
		{
			"bufferView":42,
			"componentType":5126,
			"count":98,
			"type":"VEC2"
		},
		{
			"bufferView":43,
			"componentType":5123,
			"count":276,
			"type":"SCALAR"
		},
		{
			"bufferView":44,
			"componentType":5126,
			"count":100,
			"max":[
				0.2624672055244446,
				10.95800495147705,
				4.836588382720947
			],
			"min":[
				-0.2624672055244446,
				10.43307113647461,
				4.770971298217773
			],
			"type":"VEC3"
		},
		{
			"bufferView":45,
			"componentType":5126,
			"count":100,
			"type":"VEC3"
		},
		{
			"bufferView":46,
			"componentType":5126,
			"count":100,
			"type":"VEC2"
		},
		{
			"bufferView":47,
			"componentType":5123,
			"count":276,
			"type":"SCALAR"
		}
	],
	"bufferViews":[
		{
			"buffer":0,
			"byteLength":2448,
			"byteOffset":0,
			"target":34962
		},
		{
			"buffer":0,
			"byteLength":2448,
			"byteOffset":2448,
			"target":34962
		},
		{
			"buffer":0,
			"byteLength":1632,
			"byteOffset":4896,
			"target":34962
		},
		{
			"buffer":0,
			"byteLength":1152,
			"byteOffset":6528,
			"target":34963
		},
		{
			"buffer":0,
			"byteLength":432,
			"byteOffset":7680,
			"target":34962
		},
		{
			"buffer":0,
			"byteLength":432,
			"byteOffset":8112,
			"target":34962
		},
		{
			"buffer":0,
			"byteLength":288,
			"byteOffset":8544,
			"target":34962
		},
		{
			"buffer":0,
			"byteLength":96,
			"byteOffset":8832,
			"target":34963
		},
		{
			"buffer":0,
			"byteLength":1224,
			"byteOffset":8928,
			"target":34962
		},
		{
			"buffer":0,
			"byteLength":1224,
			"byteOffset":10152,
			"target":34962
		},
		{
			"buffer":0,
			"byteLength":816,
			"byteOffset":11376,
			"target":34962
		},
		{
			"buffer":0,
			"byteLength":576,
			"byteOffset":12192,
			"target":34963
		},
		{
			"buffer":0,
			"byteLength":936,
			"byteOffset":12768,
			"target":34962
		},
		{
			"buffer":0,
			"byteLength":936,
			"byteOffset":13704,
			"target":34962
		},
		{
			"buffer":0,
			"byteLength":624,
			"byteOffset":14640,
			"target":34962
		},
		{
			"buffer":0,
			"byteLength":432,
			"byteOffset":15264,
			"target":34963
		},
		{
			"buffer":0,
			"byteLength":1224,
			"byteOffset":15696,
			"target":34962
		},
		{
			"buffer":0,
			"byteLength":1224,
			"byteOffset":16920,
			"target":34962
		},
		{
			"buffer":0,
			"byteLength":816,
			"byteOffset":18144,
			"target":34962
		},
		{
			"buffer":0,
			"byteLength":576,
			"byteOffset":18960,
			"target":34963
		},
		{
			"buffer":0,
			"byteLength":936,
			"byteOffset":19536,
			"target":34962
		},
		{
			"buffer":0,
			"byteLength":936,
			"byteOffset":20472,
			"target":34962
		},
		{
			"buffer":0,
			"byteLength":624,
			"byteOffset":21408,
			"target":34962
		},
		{
			"buffer":0,
			"byteLength":432,
			"byteOffset":22032,
			"target":34963
		},
		{
			"buffer":0,
			"byteLength":36432,
			"byteOffset":22464,
			"target":34962
		},
		{
			"buffer":0,
			"byteLength":36432,
			"byteOffset":58896,
			"target":34962
		},
		{
			"buffer":0,
			"byteLength":24288,
			"byteOffset":95328,
			"target":34962
		},
		{
			"buffer":0,
			"byteLength":23880,
			"byteOffset":119616,
			"target":34963
		},
		{
			"buffer":0,
			"byteLength":1200,
			"byteOffset":143496,
			"target":34962
		},
		{
			"buffer":0,
			"byteLength":1200,
			"byteOffset":144696,
			"target":34962
		},
		{
			"buffer":0,
			"byteLength":800,
			"byteOffset":145896,
			"target":34962
		},
		{
			"buffer":0,
			"byteLength":552,
			"byteOffset":146696,
			"target":34963
		},
		{
			"buffer":0,
			"byteLength":1176,
			"byteOffset":147248,
			"target":34962
		},
		{
			"buffer":0,
			"byteLength":1176,
			"byteOffset":148424,
			"target":34962
		},
		{
			"buffer":0,
			"byteLength":784,
			"byteOffset":149600,
			"target":34962
		},
		{
			"buffer":0,
			"byteLength":552,
			"byteOffset":150384,
			"target":34963
		},
		{
			"buffer":0,
			"byteLength":1200,
			"byteOffset":150936,
			"target":34962
		},
		{
			"buffer":0,
			"byteLength":1200,
			"byteOffset":152136,
			"target":34962
		},
		{
			"buffer":0,
			"byteLength":800,
			"byteOffset":153336,
			"target":34962
		},
		{
			"buffer":0,
			"byteLength":552,
			"byteOffset":154136,
			"target":34963
		},
		{
			"buffer":0,
			"byteLength":1176,
			"byteOffset":154688,
			"target":34962
		},
		{
			"buffer":0,
			"byteLength":1176,
			"byteOffset":155864,
			"target":34962
		},
		{
			"buffer":0,
			"byteLength":784,
			"byteOffset":157040,
			"target":34962
		},
		{
			"buffer":0,
			"byteLength":552,
			"byteOffset":157824,
			"target":34963
		},
		{
			"buffer":0,
			"byteLength":1200,
			"byteOffset":158376,
			"target":34962
		},
		{
			"buffer":0,
			"byteLength":1200,
			"byteOffset":159576,
			"target":34962
		},
		{
			"buffer":0,
			"byteLength":800,
			"byteOffset":160776,
			"target":34962
		},
		{
			"buffer":0,
			"byteLength":552,
			"byteOffset":161576,
			"target":34963
		}
	],
	"buffers":[
		{
			"byteLength":162128,
			"uri":"iron-salt-tank.bin"
		}
	]
}
