{
	"asset":{
		"generator":"Khronos glTF Blender I/O v4.2.70",
		"version":"2.0"
	},
	"scene":0,
	"scenes":[
		{
			"name":"Scene",
			"nodes":[
				0,
				1
			]
		}
	],
	"nodes":[
		{
			"mesh":0,
			"name":" \u62c9\u4f38 [214170]",
			"scale":[
				0.30480000376701355,
				0.30480000376701355,
				0.30480000376701355
			],
			"translation":[
				0.47836601734161377,
				0.24804161489009857,
				-0.059057533740997314
			]
		},
		{
			"mesh":1,
			"name":" \u62c9\u4f38 [214201]",
			"scale":[
				0.30480000376701355,
				0.30480000376701355,
				0.30480000376701355
			],
			"translation":[
				0.47836601734161377,
				0.24804161489009857,
				-0.059057533740997314
			]
		}
	],
	"materials":[
		{
			"doubleSided":true,
			"name":"\u4e0d\u9508\u94a2",
			"pbrMetallicRoughness":{
				"baseColorFactor":[
					0.33716103434562683,
					0.4851502776145935,
					0.701102077960968,
					1
				],
				"metallicFactor":0.5,
				"roughnessFactor":0.20000000298023224
			}
		},
		{
			"doubleSided":true,
			"name":"\u652f\u67b6",
			"pbrMetallicRoughness":{
				"baseColorFactor":[
					0.7681462168693542,
					0.7681518793106079,
					0.768151581287384,
					1
				],
				"metallicFactor":0.5,
				"roughnessFactor":0.20000000298023224
			}
		}
	],
	"meshes":[
		{
			"name":" \u62c9\u4f38 [214170] Geometry",
			"primitives":[
				{
					"attributes":{
						"POSITION":0,
						"NORMAL":1,
						"TEXCOORD_0":2
					},
					"indices":3,
					"material":0
				}
			]
		},
		{
			"name":" \u62c9\u4f38 [214201] Geometry",
			"primitives":[
				{
					"attributes":{
						"POSITION":4,
						"NORMAL":5,
						"TEXCOORD_0":6
					},
					"indices":7,
					"material":1
				}
			]
		}
	],
	"accessors":[
		{
			"bufferView":0,
			"componentType":5126,
			"count":60,
			"max":[
				-1.15404212474823,
				-2.220446049250313e-16,
				2.991487503051758
			],
			"min":[
				-2.0070605278015137,
				-1.6404199600219727,
				-2.4804484844207764
			],
			"type":"VEC3"
		},
		{
			"bufferView":1,
			"componentType":5126,
			"count":60,
			"type":"VEC3"
		},
		{
			"bufferView":2,
			"componentType":5126,
			"count":60,
			"type":"VEC2"
		},
		{
			"bufferView":3,
			"componentType":5123,
			"count":108,
			"type":"SCALAR"
		},
		{
			"bufferView":4,
			"componentType":5126,
			"count":72,
			"max":[
				-1.1868505477905273,
				-2.220446049250313e-16,
				2.2439608573913574
			],
			"min":[
				-1.9742521047592163,
				-0.03280840069055557,
				-2.4804484844207764
			],
			"type":"VEC3"
		},
		{
			"bufferView":5,
			"componentType":5126,
			"count":72,
			"type":"VEC3"
		},
		{
			"bufferView":6,
			"componentType":5126,
			"count":72,
			"type":"VEC2"
		},
		{
			"bufferView":7,
			"componentType":5123,
			"count":108,
			"type":"SCALAR"
		}
	],
	"bufferViews":[
		{
			"buffer":0,
			"byteLength":720,
			"byteOffset":0,
			"target":34962
		},
		{
			"buffer":0,
			"byteLength":720,
			"byteOffset":720,
			"target":34962
		},
		{
			"buffer":0,
			"byteLength":480,
			"byteOffset":1440,
			"target":34962
		},
		{
			"buffer":0,
			"byteLength":216,
			"byteOffset":1920,
			"target":34963
		},
		{
			"buffer":0,
			"byteLength":864,
			"byteOffset":2136,
			"target":34962
		},
		{
			"buffer":0,
			"byteLength":864,
			"byteOffset":3000,
			"target":34962
		},
		{
			"buffer":0,
			"byteLength":576,
			"byteOffset":3864,
			"target":34962
		},
		{
			"buffer":0,
			"byteLength":216,
			"byteOffset":4440,
			"target":34963
		}
	],
	"buffers":[
		{
			"byteLength":4656,
			"uri":"uv-overflow-weir.bin"
		}
	]
}
