{
	"asset":{
		"generator":"Khronos glTF Blender I/O v4.2.70",
		"version":"2.0"
	},
	"extensionsUsed":[
		"KHR_materials_clearcoat"
	],
	"scene":0,
	"scenes":[
		{
			"name":"Scene",
			"nodes":[
				0,
				1,
				2,
				3,
				4,
				5,
				6,
				7,
				8,
				9,
				10,
				11,
				12,
				13,
				14,
				15,
				16
			]
		}
	],
	"nodes":[
		{
			"mesh":0,
			"name":" \u62c9\u4f38 [217856]",
			"scale":[
				0.30480000376701355,
				0.30480000376701355,
				0.30480000376701355
			],
			"translation":[
				0,
				0.06550553441047668,
				0.3018951416015625
			]
		},
		{
			"mesh":1,
			"name":" \u878d\u5408 [217861]",
			"scale":[
				0.30480000376701355,
				0.30480000376701355,
				0.30480000376701355
			],
			"translation":[
				0,
				0.06550553441047668,
				0.3018951416015625
			]
		},
		{
			"mesh":2,
			"name":" \u62c9\u4f38 [217879]",
			"scale":[
				0.30480000376701355,
				0.30480000376701355,
				0.30480000376701355
			],
			"translation":[
				0,
				0.06550553441047668,
				0.3018951416015625
			]
		},
		{
			"mesh":3,
			"name":" \u878d\u5408 [217885]",
			"scale":[
				0.30480000376701355,
				0.30480000376701355,
				0.30480000376701355
			],
			"translation":[
				0,
				0.06550553441047668,
				0.3018951416015625
			]
		},
		{
			"mesh":4,
			"name":" \u62c9\u4f38 [217913]",
			"scale":[
				0.30480000376701355,
				0.30480000376701355,
				0.30480000376701355
			],
			"translation":[
				0,
				0.06550553441047668,
				0.3018951416015625
			]
		},
		{
			"mesh":5,
			"name":" \u62c9\u4f38 [217916]",
			"scale":[
				0.30480000376701355,
				0.30480000376701355,
				0.30480000376701355
			],
			"translation":[
				0,
				0.06550553441047668,
				0.3018951416015625
			]
		},
		{
			"mesh":6,
			"name":" \u878d\u5408 [217922]",
			"scale":[
				0.30480000376701355,
				0.30480000376701355,
				0.30480000376701355
			],
			"translation":[
				0,
				0.06550553441047668,
				0.3018951416015625
			]
		},
		{
			"mesh":7,
			"name":" \u878d\u5408 [217931]",
			"scale":[
				0.30480000376701355,
				0.30480000376701355,
				0.30480000376701355
			],
			"translation":[
				0,
				0.06550553441047668,
				0.3018951416015625
			]
		},
		{
			"mesh":8,
			"name":" \u65cb\u8f6c [217970]",
			"scale":[
				0.30480000376701355,
				0.30480000376701355,
				0.30480000376701355
			],
			"translation":[
				0,
				0.06550553441047668,
				0.3018951416015625
			]
		},
		{
			"mesh":9,
			"name":" \u62c9\u4f38 [217979]",
			"scale":[
				0.30480000376701355,
				0.30480000376701355,
				0.30480000376701355
			],
			"translation":[
				0,
				0.06550553441047668,
				0.3018951416015625
			]
		},
		{
			"mesh":10,
			"name":" \u653e\u6837 [217982]",
			"scale":[
				0.30480000376701355,
				0.30480000376701355,
				0.30480000376701355
			],
			"translation":[
				0,
				0.06550553441047668,
				0.3018951416015625
			]
		},
		{
			"mesh":11,
			"name":" \u8fde\u63a5\u7684\u5b9e\u5fc3\u51e0\u4f55\u56fe\u5f62 [217993]",
			"scale":[
				0.30480000376701355,
				0.30480000376701355,
				0.30480000376701355
			],
			"translation":[
				0,
				0.06550553441047668,
				0.3018951416015625
			]
		},
		{
			"mesh":12,
			"name":" \u8fde\u63a5\u7684\u5b9e\u5fc3\u51e0\u4f55\u56fe\u5f62 [217994]",
			"scale":[
				0.30480000376701355,
				0.30480000376701355,
				0.30480000376701355
			],
			"translation":[
				0,
				0.06550553441047668,
				0.3018951416015625
			]
		},
		{
			"mesh":13,
			"name":" \u62c9\u4f38 [217996]",
			"scale":[
				0.30480000376701355,
				0.30480000376701355,
				0.30480000376701355
			],
			"translation":[
				0,
				0.06550553441047668,
				0.3018951416015625
			]
		},
		{
			"mesh":14,
			"name":" \u62c9\u4f38 [218006]",
			"scale":[
				0.30480000376701355,
				0.30480000376701355,
				0.30480000376701355
			],
			"translation":[
				0,
				0.06550553441047668,
				0.3018951416015625
			]
		},
		{
			"mesh":15,
			"name":" \u62c9\u4f38 [218019]",
			"scale":[
				0.30480000376701355,
				0.30480000376701355,
				0.30480000376701355
			],
			"translation":[
				0,
				0.06550553441047668,
				0.3018951416015625
			]
		},
		{
			"mesh":16,
			"name":" \u62c9\u4f38 [218073]",
			"scale":[
				0.30480000376701355,
				0.30480000376701355,
				0.30480000376701355
			],
			"translation":[
				0,
				0.06550553441047668,
				0.3018951416015625
			]
		}
	],
	"materials":[
		{
			"doubleSided":true,
			"name":"PAM\u52a0\u836f\u7ba1",
			"pbrMetallicRoughness":{
				"baseColorFactor":[
					0.0006841521244496107,
					0.19392116367816925,
					0.8644233345985413,
					1
				],
				"metallicFactor":0.5,
				"roughnessFactor":0.20000000298023224
			}
		},
		{
			"doubleSided":true,
			"name":"\u4e0d\u9508\u94a2",
			"pbrMetallicRoughness":{
				"baseColorFactor":[
					0.33716103434562683,
					0.4851502776145935,
					0.701102077960968,
					1
				],
				"metallicFactor":0.5,
				"roughnessFactor":0.20000000298023224
			}
		},
		{
			"doubleSided":true,
			"extensions":{
				"KHR_materials_clearcoat":{
					"clearcoatFactor":0.5,
					"clearcoatRoughnessFactor":0.4890909194946289
				}
			},
			"name":"\u6307\u793a\u7bad\u5934-\u9ec4\u8272",
			"pbrMetallicRoughness":{
				"baseColorFactor":[
					0.9999940991401672,
					0.7379112243652344,
					1.85424966048231e-07,
					1
				],
				"metallicFactor":0
			}
		}
	],
	"meshes":[
		{
			"name":" \u62c9\u4f38 [217856] Geometry",
			"primitives":[
				{
					"attributes":{
						"POSITION":0,
						"NORMAL":1,
						"TEXCOORD_0":2
					},
					"indices":3,
					"material":0
				}
			]
		},
		{
			"name":" \u878d\u5408 [217861] Geometry",
			"primitives":[
				{
					"attributes":{
						"POSITION":4,
						"NORMAL":5,
						"TEXCOORD_0":6
					},
					"indices":7,
					"material":0
				}
			]
		},
		{
			"name":" \u62c9\u4f38 [217879] Geometry",
			"primitives":[
				{
					"attributes":{
						"POSITION":8,
						"NORMAL":9,
						"TEXCOORD_0":10
					},
					"indices":11,
					"material":1
				}
			]
		},
		{
			"name":" \u878d\u5408 [217885] Geometry",
			"primitives":[
				{
					"attributes":{
						"POSITION":12,
						"NORMAL":13,
						"TEXCOORD_0":14
					},
					"indices":15,
					"material":0
				}
			]
		},
		{
			"name":" \u62c9\u4f38 [217913] Geometry",
			"primitives":[
				{
					"attributes":{
						"POSITION":16,
						"NORMAL":17,
						"TEXCOORD_0":18
					},
					"indices":19,
					"material":0
				}
			]
		},
		{
			"name":" \u62c9\u4f38 [217916] Geometry",
			"primitives":[
				{
					"attributes":{
						"POSITION":20,
						"NORMAL":21,
						"TEXCOORD_0":22
					},
					"indices":23,
					"material":1
				}
			]
		},
		{
			"name":" \u878d\u5408 [217922] Geometry",
			"primitives":[
				{
					"attributes":{
						"POSITION":24,
						"NORMAL":25,
						"TEXCOORD_0":26
					},
					"indices":27,
					"material":0
				}
			]
		},
		{
			"name":" \u878d\u5408 [217931] Geometry",
			"primitives":[
				{
					"attributes":{
						"POSITION":28,
						"NORMAL":29,
						"TEXCOORD_0":30
					},
					"indices":31,
					"material":0
				}
			]
		},
		{
			"name":" \u65cb\u8f6c [217970] Geometry",
			"primitives":[
				{
					"attributes":{
						"POSITION":32,
						"NORMAL":33,
						"TEXCOORD_0":34
					},
					"indices":35,
					"material":0
				}
			]
		},
		{
			"name":" \u62c9\u4f38 [217979] Geometry",
			"primitives":[
				{
					"attributes":{
						"POSITION":36,
						"NORMAL":37,
						"TEXCOORD_0":38
					},
					"indices":39,
					"material":2
				}
			]
		},
		{
			"name":" \u653e\u6837 [217982] Geometry",
			"primitives":[
				{
					"attributes":{
						"POSITION":40,
						"NORMAL":41,
						"TEXCOORD_0":42
					},
					"indices":43,
					"material":0
				}
			]
		},
		{
			"name":" \u8fde\u63a5\u7684\u5b9e\u5fc3\u51e0\u4f55\u56fe\u5f62 [217993] Geometry",
			"primitives":[
				{
					"attributes":{
						"POSITION":44,
						"NORMAL":45,
						"TEXCOORD_0":46
					},
					"indices":47,
					"material":0
				}
			]
		},
		{
			"name":" \u8fde\u63a5\u7684\u5b9e\u5fc3\u51e0\u4f55\u56fe\u5f62 [217994] Geometry",
			"primitives":[
				{
					"attributes":{
						"POSITION":48,
						"NORMAL":49,
						"TEXCOORD_0":50
					},
					"indices":51,
					"material":0
				}
			]
		},
		{
			"name":" \u62c9\u4f38 [217996] Geometry",
			"primitives":[
				{
					"attributes":{
						"POSITION":52,
						"NORMAL":53,
						"TEXCOORD_0":54
					},
					"indices":55,
					"material":0
				}
			]
		},
		{
			"name":" \u62c9\u4f38 [218006] Geometry",
			"primitives":[
				{
					"attributes":{
						"POSITION":56,
						"NORMAL":57,
						"TEXCOORD_0":58
					},
					"indices":59,
					"material":0
				}
			]
		},
		{
			"name":" \u62c9\u4f38 [218019] Geometry",
			"primitives":[
				{
					"attributes":{
						"POSITION":60,
						"NORMAL":61,
						"TEXCOORD_0":62
					},
					"indices":63,
					"material":0
				}
			]
		},
		{
			"name":" \u62c9\u4f38 [218073] Geometry",
			"primitives":[
				{
					"attributes":{
						"POSITION":64,
						"NORMAL":65,
						"TEXCOORD_0":66
					},
					"indices":67,
					"material":2
				}
			]
		}
	],
	"accessors":[
		{
			"bufferView":0,
			"componentType":5126,
			"count":487,
			"max":[
				0.3193897604942322,
				0.3193897604942322,
				-1.4724409580230713
			],
			"min":[
				-0.3193897604942322,
				-0.3193897604942322,
				-2.2476377487182617
			],
			"type":"VEC3"
		},
		{
			"bufferView":1,
			"componentType":5126,
			"count":487,
			"type":"VEC3"
		},
		{
			"bufferView":2,
			"componentType":5126,
			"count":487,
			"type":"VEC2"
		},
		{
			"bufferView":3,
			"componentType":5123,
			"count":2010,
			"type":"SCALAR"
		},
		{
			"bufferView":4,
			"componentType":5126,
			"count":276,
			"max":[
				0.3193897604942322,
				0.3193897604942322,
				-2.2476377487182617
			],
			"min":[
				-0.3193897604942322,
				-0.3193897604942322,
				-2.388385772705078
			],
			"type":"VEC3"
		},
		{
			"bufferView":5,
			"componentType":5126,
			"count":276,
			"type":"VEC3"
		},
		{
			"bufferView":6,
			"componentType":5126,
			"count":276,
			"type":"VEC2"
		},
		{
			"bufferView":7,
			"componentType":5123,
			"count":804,
			"type":"SCALAR"
		},
		{
			"bufferView":8,
			"componentType":5126,
			"count":98,
			"max":[
				0.06496062874794006,
				0.06496062874794006,
				-1.0870078802108765
			],
			"min":[
				-0.06496062874794006,
				-0.06496062874794006,
				-1.1866141557693481
			],
			"type":"VEC3"
		},
		{
			"bufferView":9,
			"componentType":5126,
			"count":98,
			"type":"VEC3"
		},
		{
			"bufferView":10,
			"componentType":5126,
			"count":98,
			"type":"VEC2"
		},
		{
			"bufferView":11,
			"componentType":5123,
			"count":276,
			"type":"SCALAR"
		},
		{
			"bufferView":12,
			"componentType":5126,
			"count":292,
			"max":[
				0.3193897604942322,
				0.3193897604942322,
				-1.3901574611663818
			],
			"min":[
				-0.3193897604942322,
				-0.3193897604942322,
				-1.4724409580230713
			],
			"type":"VEC3"
		},
		{
			"bufferView":13,
			"componentType":5126,
			"count":292,
			"type":"VEC3"
		},
		{
			"bufferView":14,
			"componentType":5126,
			"count":292,
			"type":"VEC2"
		},
		{
			"bufferView":15,
			"componentType":5123,
			"count":852,
			"type":"SCALAR"
		},
		{
			"bufferView":16,
			"componentType":5126,
			"count":292,
			"max":[
				0.19704724848270416,
				0.19704724848270416,
				-0.2901574671268463
			],
			"min":[
				-0.19704724848270416,
				-0.19704724848270416,
				-0.3334645628929138
			],
			"type":"VEC3"
		},
		{
			"bufferView":17,
			"componentType":5126,
			"count":292,
			"type":"VEC3"
		},
		{
			"bufferView":18,
			"componentType":5126,
			"count":292,
			"type":"VEC2"
		},
		{
			"bufferView":19,
			"componentType":5123,
			"count":852,
			"type":"SCALAR"
		},
		{
			"bufferView":20,
			"componentType":5126,
			"count":99,
			"max":[
				0.06496062874794006,
				0.06496062874794006,
				-0.3334645628929138
			],
			"min":[
				-0.06496062874794006,
				-0.06496062874794006,
				-0.4395669400691986
			],
			"type":"VEC3"
		},
		{
			"bufferView":21,
			"componentType":5126,
			"count":99,
			"type":"VEC3"
		},
		{
			"bufferView":22,
			"componentType":5126,
			"count":99,
			"type":"VEC2"
		},
		{
			"bufferView":23,
			"componentType":5123,
			"count":276,
			"type":"SCALAR"
		},
		{
			"bufferView":24,
			"componentType":5126,
			"count":228,
			"max":[
				0.20787401497364044,
				0.20787401497364044,
				-0.24685038626194
			],
			"min":[
				-0.20787401497364044,
				-0.20787401497364044,
				-0.2901574671268463
			],
			"type":"VEC3"
		},
		{
			"bufferView":25,
			"componentType":5126,
			"count":228,
			"type":"VEC3"
		},
		{
			"bufferView":26,
			"componentType":5126,
			"count":228,
			"type":"VEC2"
		},
		{
			"bufferView":27,
			"componentType":5123,
			"count":660,
			"type":"SCALAR"
		},
		{
			"bufferView":28,
			"componentType":5126,
			"count":260,
			"max":[
				0.27933070063591003,
				0.27933070063591003,
				-0.1580708622932434
			],
			"min":[
				-0.27933070063591003,
				-0.27933070063591003,
				-0.24685038626194
			],
			"type":"VEC3"
		},
		{
			"bufferView":29,
			"componentType":5126,
			"count":260,
			"type":"VEC3"
		},
		{
			"bufferView":30,
			"componentType":5126,
			"count":260,
			"type":"VEC2"
		},
		{
			"bufferView":31,
			"componentType":5123,
			"count":756,
			"type":"SCALAR"
		},
		{
			"bufferView":32,
			"componentType":5126,
			"count":1088,
			"max":[
				0.17322835326194763,
				0.17322835326194763,
				0.3616141676902771
			],
			"min":[
				-0.17322835326194763,
				-0.17322835326194763,
				0.24685038626194
			],
			"type":"VEC3"
		},
		{
			"bufferView":33,
			"componentType":5126,
			"count":1088,
			"type":"VEC3"
		},
		{
			"bufferView":34,
			"componentType":5126,
			"count":1088,
			"type":"VEC2"
		},
		{
			"bufferView":35,
			"componentType":5123,
			"count":5040,
			"type":"SCALAR"
		},
		{
			"bufferView":36,
			"componentType":5126,
			"count":884,
			"max":[
				0.5608267784118652,
				0.5903045535087585,
				0.2381889820098877
			],
			"min":[
				0.08444882184267044,
				0.5693939924240112,
				-0.2381889820098877
			],
			"type":"VEC3"
		},
		{
			"bufferView":37,
			"componentType":5126,
			"count":884,
			"type":"VEC3"
		},
		{
			"bufferView":38,
			"componentType":5126,
			"count":884,
			"type":"VEC2"
		},
		{
			"bufferView":39,
			"componentType":5123,
			"count":2640,
			"type":"SCALAR"
		},
		{
			"bufferView":40,
			"componentType":5126,
			"count":1218,
			"max":[
				0.4925193190574646,
				0,
				0.1581697016954422
			],
			"min":[
				-7.548633217966197e-16,
				-0.2942253649234772,
				-0.1581697016954422
			],
			"type":"VEC3"
		},
		{
			"bufferView":41,
			"componentType":5126,
			"count":1218,
			"type":"VEC3"
		},
		{
			"bufferView":42,
			"componentType":5126,
			"count":1218,
			"type":"VEC2"
		},
		{
			"bufferView":43,
			"componentType":5123,
			"count":5592,
			"type":"SCALAR"
		},
		{
			"bufferView":44,
			"componentType":5126,
			"count":2685,
			"max":[
				0.4222441017627716,
				0.4222441017627716,
				0.2013779580593109
			],
			"min":[
				-0.4222441017627716,
				-0.5246253609657288,
				-1.3901574611663818
			],
			"type":"VEC3"
		},
		{
			"bufferView":45,
			"componentType":5126,
			"count":2685,
			"type":"VEC3"
		},
		{
			"bufferView":46,
			"componentType":5126,
			"count":2685,
			"type":"VEC2"
		},
		{
			"bufferView":47,
			"componentType":5123,
			"count":11556,
			"type":"SCALAR"
		},
		{
			"bufferView":48,
			"componentType":5126,
			"count":2593,
			"max":[
				0.30208054184913635,
				0.30208054184913635,
				0.24685038626194
			],
			"min":[
				-0.30208054184913635,
				-0.5246253609657288,
				-1.0870078802108765
			],
			"type":"VEC3"
		},
		{
			"bufferView":49,
			"componentType":5126,
			"count":2593,
			"type":"VEC3"
		},
		{
			"bufferView":50,
			"componentType":5126,
			"count":2593,
			"type":"VEC2"
		},
		{
			"bufferView":51,
			"componentType":5123,
			"count":11511,
			"type":"SCALAR"
		},
		{
			"bufferView":52,
			"componentType":5126,
			"count":747,
			"max":[
				0.49486425518989563,
				0.5693939924240112,
				0.17222647368907928
			],
			"min":[
				0.15041132271289825,
				0,
				-0.17222647368907928
			],
			"type":"VEC3"
		},
		{
			"bufferView":53,
			"componentType":5126,
			"count":747,
			"type":"VEC3"
		},
		{
			"bufferView":54,
			"componentType":5126,
			"count":747,
			"type":"VEC2"
		},
		{
			"bufferView":55,
			"componentType":5123,
			"count":2967,
			"type":"SCALAR"
		},
		{
			"bufferView":56,
			"componentType":5126,
			"count":624,
			"max":[
				0.5792322754859924,
				-0.5246253609657288,
				-0.32263779640197754
			],
			"min":[
				-0.5792322754859924,
				-0.5902230739593506,
				-2.4446849822998047
			],
			"type":"VEC3"
		},
		{
			"bufferView":57,
			"componentType":5126,
			"count":624,
			"type":"VEC3"
		},
		{
			"bufferView":58,
			"componentType":5126,
			"count":624,
			"type":"VEC2"
		},
		{
			"bufferView":59,
			"componentType":5123,
			"count":1836,
			"type":"SCALAR"
		},
		{
			"bufferView":60,
			"componentType":5126,
			"count":772,
			"max":[
				0.3020669221878052,
				0.3020669221878052,
				0.4049212634563446
			],
			"min":[
				-0.3020669221878052,
				-0.3020669221878052,
				0.3616141676902771
			],
			"type":"VEC3"
		},
		{
			"bufferView":61,
			"componentType":5126,
			"count":772,
			"type":"VEC3"
		},
		{
			"bufferView":62,
			"componentType":5126,
			"count":772,
			"type":"VEC2"
		},
		{
			"bufferView":63,
			"componentType":5123,
			"count":2112,
			"type":"SCALAR"
		},
		{
			"bufferView":64,
			"componentType":5126,
			"count":772,
			"max":[
				0.3020669221878052,
				0.3020669221878052,
				0.4482283592224121
			],
			"min":[
				-0.3020669221878052,
				-0.3020669221878052,
				0.4049212634563446
			],
			"type":"VEC3"
		},
		{
			"bufferView":65,
			"componentType":5126,
			"count":772,
			"type":"VEC3"
		},
		{
			"bufferView":66,
			"componentType":5126,
			"count":772,
			"type":"VEC2"
		},
		{
			"bufferView":67,
			"componentType":5123,
			"count":2112,
			"type":"SCALAR"
		}
	],
	"bufferViews":[
		{
			"buffer":0,
			"byteLength":5844,
			"byteOffset":0,
			"target":34962
		},
		{
			"buffer":0,
			"byteLength":5844,
			"byteOffset":5844,
			"target":34962
		},
		{
			"buffer":0,
			"byteLength":3896,
			"byteOffset":11688,
			"target":34962
		},
		{
			"buffer":0,
			"byteLength":4020,
			"byteOffset":15584,
			"target":34963
		},
		{
			"buffer":0,
			"byteLength":3312,
			"byteOffset":19604,
			"target":34962
		},
		{
			"buffer":0,
			"byteLength":3312,
			"byteOffset":22916,
			"target":34962
		},
		{
			"buffer":0,
			"byteLength":2208,
			"byteOffset":26228,
			"target":34962
		},
		{
			"buffer":0,
			"byteLength":1608,
			"byteOffset":28436,
			"target":34963
		},
		{
			"buffer":0,
			"byteLength":1176,
			"byteOffset":30044,
			"target":34962
		},
		{
			"buffer":0,
			"byteLength":1176,
			"byteOffset":31220,
			"target":34962
		},
		{
			"buffer":0,
			"byteLength":784,
			"byteOffset":32396,
			"target":34962
		},
		{
			"buffer":0,
			"byteLength":552,
			"byteOffset":33180,
			"target":34963
		},
		{
			"buffer":0,
			"byteLength":3504,
			"byteOffset":33732,
			"target":34962
		},
		{
			"buffer":0,
			"byteLength":3504,
			"byteOffset":37236,
			"target":34962
		},
		{
			"buffer":0,
			"byteLength":2336,
			"byteOffset":40740,
			"target":34962
		},
		{
			"buffer":0,
			"byteLength":1704,
			"byteOffset":43076,
			"target":34963
		},
		{
			"buffer":0,
			"byteLength":3504,
			"byteOffset":44780,
			"target":34962
		},
		{
			"buffer":0,
			"byteLength":3504,
			"byteOffset":48284,
			"target":34962
		},
		{
			"buffer":0,
			"byteLength":2336,
			"byteOffset":51788,
			"target":34962
		},
		{
			"buffer":0,
			"byteLength":1704,
			"byteOffset":54124,
			"target":34963
		},
		{
			"buffer":0,
			"byteLength":1188,
			"byteOffset":55828,
			"target":34962
		},
		{
			"buffer":0,
			"byteLength":1188,
			"byteOffset":57016,
			"target":34962
		},
		{
			"buffer":0,
			"byteLength":792,
			"byteOffset":58204,
			"target":34962
		},
		{
			"buffer":0,
			"byteLength":552,
			"byteOffset":58996,
			"target":34963
		},
		{
			"buffer":0,
			"byteLength":2736,
			"byteOffset":59548,
			"target":34962
		},
		{
			"buffer":0,
			"byteLength":2736,
			"byteOffset":62284,
			"target":34962
		},
		{
			"buffer":0,
			"byteLength":1824,
			"byteOffset":65020,
			"target":34962
		},
		{
			"buffer":0,
			"byteLength":1320,
			"byteOffset":66844,
			"target":34963
		},
		{
			"buffer":0,
			"byteLength":3120,
			"byteOffset":68164,
			"target":34962
		},
		{
			"buffer":0,
			"byteLength":3120,
			"byteOffset":71284,
			"target":34962
		},
		{
			"buffer":0,
			"byteLength":2080,
			"byteOffset":74404,
			"target":34962
		},
		{
			"buffer":0,
			"byteLength":1512,
			"byteOffset":76484,
			"target":34963
		},
		{
			"buffer":0,
			"byteLength":13056,
			"byteOffset":77996,
			"target":34962
		},
		{
			"buffer":0,
			"byteLength":13056,
			"byteOffset":91052,
			"target":34962
		},
		{
			"buffer":0,
			"byteLength":8704,
			"byteOffset":104108,
			"target":34962
		},
		{
			"buffer":0,
			"byteLength":10080,
			"byteOffset":112812,
			"target":34963
		},
		{
			"buffer":0,
			"byteLength":10608,
			"byteOffset":122892,
			"target":34962
		},
		{
			"buffer":0,
			"byteLength":10608,
			"byteOffset":133500,
			"target":34962
		},
		{
			"buffer":0,
			"byteLength":7072,
			"byteOffset":144108,
			"target":34962
		},
		{
			"buffer":0,
			"byteLength":5280,
			"byteOffset":151180,
			"target":34963
		},
		{
			"buffer":0,
			"byteLength":14616,
			"byteOffset":156460,
			"target":34962
		},
		{
			"buffer":0,
			"byteLength":14616,
			"byteOffset":171076,
			"target":34962
		},
		{
			"buffer":0,
			"byteLength":9744,
			"byteOffset":185692,
			"target":34962
		},
		{
			"buffer":0,
			"byteLength":11184,
			"byteOffset":195436,
			"target":34963
		},
		{
			"buffer":0,
			"byteLength":32220,
			"byteOffset":206620,
			"target":34962
		},
		{
			"buffer":0,
			"byteLength":32220,
			"byteOffset":238840,
			"target":34962
		},
		{
			"buffer":0,
			"byteLength":21480,
			"byteOffset":271060,
			"target":34962
		},
		{
			"buffer":0,
			"byteLength":23112,
			"byteOffset":292540,
			"target":34963
		},
		{
			"buffer":0,
			"byteLength":31116,
			"byteOffset":315652,
			"target":34962
		},
		{
			"buffer":0,
			"byteLength":31116,
			"byteOffset":346768,
			"target":34962
		},
		{
			"buffer":0,
			"byteLength":20744,
			"byteOffset":377884,
			"target":34962
		},
		{
			"buffer":0,
			"byteLength":23022,
			"byteOffset":398628,
			"target":34963
		},
		{
			"buffer":0,
			"byteLength":8964,
			"byteOffset":421652,
			"target":34962
		},
		{
			"buffer":0,
			"byteLength":8964,
			"byteOffset":430616,
			"target":34962
		},
		{
			"buffer":0,
			"byteLength":5976,
			"byteOffset":439580,
			"target":34962
		},
		{
			"buffer":0,
			"byteLength":5934,
			"byteOffset":445556,
			"target":34963
		},
		{
			"buffer":0,
			"byteLength":7488,
			"byteOffset":451492,
			"target":34962
		},
		{
			"buffer":0,
			"byteLength":7488,
			"byteOffset":458980,
			"target":34962
		},
		{
			"buffer":0,
			"byteLength":4992,
			"byteOffset":466468,
			"target":34962
		},
		{
			"buffer":0,
			"byteLength":3672,
			"byteOffset":471460,
			"target":34963
		},
		{
			"buffer":0,
			"byteLength":9264,
			"byteOffset":475132,
			"target":34962
		},
		{
			"buffer":0,
			"byteLength":9264,
			"byteOffset":484396,
			"target":34962
		},
		{
			"buffer":0,
			"byteLength":6176,
			"byteOffset":493660,
			"target":34962
		},
		{
			"buffer":0,
			"byteLength":4224,
			"byteOffset":499836,
			"target":34963
		},
		{
			"buffer":0,
			"byteLength":9264,
			"byteOffset":504060,
			"target":34962
		},
		{
			"buffer":0,
			"byteLength":9264,
			"byteOffset":513324,
			"target":34962
		},
		{
			"buffer":0,
			"byteLength":6176,
			"byteOffset":522588,
			"target":34962
		},
		{
			"buffer":0,
			"byteLength":4224,
			"byteOffset":528764,
			"target":34963
		}
	],
	"buffers":[
		{
			"byteLength":532988,
			"uri":"high-pressure-pump.bin"
		}
	]
}
