{
	"asset":{
		"generator":"Khronos glTF Blender I/O v4.2.70",
		"version":"2.0"
	},
	"scene":0,
	"scenes":[
		{
			"name":"Scene",
			"nodes":[
				0,
				1,
				2
			]
		}
	],
	"nodes":[
		{
			"mesh":0,
			"name":" \u62c9\u4f38 [302603]",
			"scale":[
				0.30480000376701355,
				0.30480000376701355,
				0.30480000376701355
			],
			"translation":[
				5.865914821624756,
				-0.8939695358276367,
				0
			]
		},
		{
			"mesh":1,
			"name":" \u8fde\u63a5\u7684\u5b9e\u5fc3\u51e0\u4f55\u56fe\u5f62 [302720]",
			"scale":[
				0.30480000376701355,
				0.30480000376701355,
				0.30480000376701355
			],
			"translation":[
				5.865914821624756,
				-0.8939695358276367,
				0
			]
		},
		{
			"mesh":2,
			"name":" \u878d\u5408 [302723]",
			"scale":[
				0.30480000376701355,
				0.30480000376701355,
				0.30480000376701355
			],
			"translation":[
				5.865914821624756,
				-0.8939695358276367,
				0
			]
		}
	],
	"materials":[
		{
			"doubleSided":true,
			"name":"\u4e0d\u9508\u94a2",
			"pbrMetallicRoughness":{
				"baseColorFactor":[
					0.33716103434562683,
					0.4851502776145935,
					0.701102077960968,
					1
				],
				"metallicFactor":0.5,
				"roughnessFactor":0.20000000298023224
			}
		}
	],
	"meshes":[
		{
			"name":" \u62c9\u4f38 [302603] Geometry",
			"primitives":[
				{
					"attributes":{
						"POSITION":0,
						"NORMAL":1,
						"TEXCOORD_0":2
					},
					"indices":3,
					"material":0
				}
			]
		},
		{
			"name":" \u8fde\u63a5\u7684\u5b9e\u5fc3\u51e0\u4f55\u56fe\u5f62 [302720] Geometry",
			"primitives":[
				{
					"attributes":{
						"POSITION":4,
						"NORMAL":5,
						"TEXCOORD_0":6
					},
					"indices":7,
					"material":0
				}
			]
		},
		{
			"name":" \u878d\u5408 [302723] Geometry",
			"primitives":[
				{
					"attributes":{
						"POSITION":8,
						"NORMAL":9,
						"TEXCOORD_0":10
					},
					"indices":11,
					"material":0
				}
			]
		}
	],
	"accessors":[
		{
			"bufferView":0,
			"componentType":5126,
			"count":48,
			"max":[
				-18.93044662475586,
				7.152230739593506,
				2.6246719360351562
			],
			"min":[
				-24.179790496826172,
				0,
				-2.6246719360351562
			],
			"type":"VEC3"
		},
		{
			"bufferView":1,
			"componentType":5126,
			"count":48,
			"type":"VEC3"
		},
		{
			"bufferView":2,
			"componentType":5126,
			"count":48,
			"type":"VEC2"
		},
		{
			"bufferView":3,
			"componentType":5123,
			"count":72,
			"type":"SCALAR"
		},
		{
			"bufferView":4,
			"componentType":5126,
			"count":238,
			"max":[
				-14.140419960021973,
				7.152230739593506,
				2.6246719360351562
			],
			"min":[
				-24.311023712158203,
				-0.7545931935310364,
				-2.6246719360351562
			],
			"type":"VEC3"
		},
		{
			"bufferView":5,
			"componentType":5126,
			"count":238,
			"type":"VEC3"
		},
		{
			"bufferView":6,
			"componentType":5126,
			"count":238,
			"type":"VEC2"
		},
		{
			"bufferView":7,
			"componentType":5123,
			"count":474,
			"type":"SCALAR"
		},
		{
			"bufferView":8,
			"componentType":5126,
			"count":24,
			"max":[
				-14.271653175354004,
				-0.19685038924217224,
				1.9356955289840698
			],
			"min":[
				-16.961942672729492,
				-0.7545931935310364,
				-1.9356955289840698
			],
			"type":"VEC3"
		},
		{
			"bufferView":9,
			"componentType":5126,
			"count":24,
			"type":"VEC3"
		},
		{
			"bufferView":10,
			"componentType":5126,
			"count":24,
			"type":"VEC2"
		},
		{
			"bufferView":11,
			"componentType":5123,
			"count":36,
			"type":"SCALAR"
		}
	],
	"bufferViews":[
		{
			"buffer":0,
			"byteLength":576,
			"byteOffset":0,
			"target":34962
		},
		{
			"buffer":0,
			"byteLength":576,
			"byteOffset":576,
			"target":34962
		},
		{
			"buffer":0,
			"byteLength":384,
			"byteOffset":1152,
			"target":34962
		},
		{
			"buffer":0,
			"byteLength":144,
			"byteOffset":1536,
			"target":34963
		},
		{
			"buffer":0,
			"byteLength":2856,
			"byteOffset":1680,
			"target":34962
		},
		{
			"buffer":0,
			"byteLength":2856,
			"byteOffset":4536,
			"target":34962
		},
		{
			"buffer":0,
			"byteLength":1904,
			"byteOffset":7392,
			"target":34962
		},
		{
			"buffer":0,
			"byteLength":948,
			"byteOffset":9296,
			"target":34963
		},
		{
			"buffer":0,
			"byteLength":288,
			"byteOffset":10244,
			"target":34962
		},
		{
			"buffer":0,
			"byteLength":288,
			"byteOffset":10532,
			"target":34962
		},
		{
			"buffer":0,
			"byteLength":192,
			"byteOffset":10820,
			"target":34962
		},
		{
			"buffer":0,
			"byteLength":72,
			"byteOffset":11012,
			"target":34963
		}
	],
	"buffers":[
		{
			"byteLength":11084,
			"uri":"parshall-flume.bin"
		}
	]
}
