{
	"asset":{
		"generator":"Khronos glTF Blender I/O v4.2.70",
		"version":"2.0"
	},
	"scene":0,
	"scenes":[
		{
			"name":"Scene",
			"nodes":[
				0,
				1,
				2,
				3,
				4,
				5,
				6
			]
		}
	],
	"nodes":[
		{
			"mesh":0,
			"name":" \u62c9\u4f38 [226368]",
			"scale":[
				0.30480000376701355,
				0.30480000376701355,
				0.30480000376701355
			]
		},
		{
			"mesh":1,
			"name":" \u62c9\u4f38 [226396]",
			"scale":[
				0.30480000376701355,
				0.30480000376701355,
				0.30480000376701355
			]
		},
		{
			"mesh":2,
			"name":" \u62c9\u4f38 [226407]",
			"scale":[
				0.30480000376701355,
				0.30480000376701355,
				0.30480000376701355
			]
		},
		{
			"mesh":3,
			"name":" \u653e\u6837 [226424]",
			"scale":[
				0.30480000376701355,
				0.30480000376701355,
				0.30480000376701355
			]
		},
		{
			"mesh":4,
			"name":" \u653e\u6837 [226438]",
			"scale":[
				0.30480000376701355,
				0.30480000376701355,
				0.30480000376701355
			]
		},
		{
			"mesh":5,
			"name":" \u653e\u6837 [226456]",
			"scale":[
				0.30480000376701355,
				0.30480000376701355,
				0.30480000376701355
			]
		},
		{
			"mesh":6,
			"name":" \u653e\u6837 [226470]",
			"scale":[
				0.30480000376701355,
				0.30480000376701355,
				0.30480000376701355
			]
		}
	],
	"materials":[
		{
			"doubleSided":true,
			"name":"PAM\u52a0\u836f\u7ba1.001",
			"pbrMetallicRoughness":{
				"baseColorFactor":[
					0.0006841521244496107,
					0.19392116367816925,
					0.8644233345985413,
					1
				],
				"metallicFactor":0.5,
				"roughnessFactor":0.20000000298023224
			}
		},
		{
			"doubleSided":true,
			"name":"\u4f9b\u6c34\u7ba1\u9053",
			"pbrMetallicRoughness":{
				"baseColorFactor":[
					0.8000858426094055,
					0.018331428989768028,
					0.012761037796735764,
					1
				],
				"metallicFactor":0.5,
				"roughnessFactor":0.20000000298023224
			}
		},
		{
			"doubleSided":true,
			"name":"\u6ca5\u9752",
			"pbrMetallicRoughness":{
				"baseColorFactor":[
					0.04256100207567215,
					0.03912356123328209,
					0.02791789546608925,
					1
				],
				"metallicFactor":0.5
			}
		}
	],
	"meshes":[
		{
			"name":" \u62c9\u4f38 [226368] Geometry",
			"primitives":[
				{
					"attributes":{
						"POSITION":0,
						"NORMAL":1,
						"TEXCOORD_0":2
					},
					"indices":3,
					"material":0
				}
			]
		},
		{
			"name":" \u62c9\u4f38 [226396] Geometry",
			"primitives":[
				{
					"attributes":{
						"POSITION":4,
						"NORMAL":5,
						"TEXCOORD_0":6
					},
					"indices":7,
					"material":1
				}
			]
		},
		{
			"name":" \u62c9\u4f38 [226407] Geometry",
			"primitives":[
				{
					"attributes":{
						"POSITION":8,
						"NORMAL":9,
						"TEXCOORD_0":10
					},
					"indices":11,
					"material":1
				}
			]
		},
		{
			"name":" \u653e\u6837 [226424] Geometry",
			"primitives":[
				{
					"attributes":{
						"POSITION":12,
						"NORMAL":13,
						"TEXCOORD_0":14
					},
					"indices":15,
					"material":2
				}
			]
		},
		{
			"name":" \u653e\u6837 [226438] Geometry",
			"primitives":[
				{
					"attributes":{
						"POSITION":16,
						"NORMAL":17,
						"TEXCOORD_0":18
					},
					"indices":19,
					"material":2
				}
			]
		},
		{
			"name":" \u653e\u6837 [226456] Geometry",
			"primitives":[
				{
					"attributes":{
						"POSITION":20,
						"NORMAL":21,
						"TEXCOORD_0":22
					},
					"indices":19,
					"material":2
				}
			]
		},
		{
			"name":" \u653e\u6837 [226470] Geometry",
			"primitives":[
				{
					"attributes":{
						"POSITION":23,
						"NORMAL":24,
						"TEXCOORD_0":25
					},
					"indices":15,
					"material":2
				}
			]
		}
	],
	"accessors":[
		{
			"bufferView":0,
			"componentType":5126,
			"count":48,
			"max":[
				2.007874011993408,
				0.8595800399780273,
				1.4763779640197754
			],
			"min":[
				-2.007874011993408,
				-0.8595800399780273,
				-1.4763779640197754
			],
			"type":"VEC3"
		},
		{
			"bufferView":1,
			"componentType":5126,
			"count":48,
			"type":"VEC3"
		},
		{
			"bufferView":2,
			"componentType":5126,
			"count":48,
			"type":"VEC2"
		},
		{
			"bufferView":3,
			"componentType":5123,
			"count":96,
			"type":"SCALAR"
		},
		{
			"bufferView":4,
			"componentType":5126,
			"count":48,
			"max":[
				2.4015748500823975,
				1.2532808780670166,
				0.9842519760131836
			],
			"min":[
				-2.4015748500823975,
				-1.2532808780670166,
				0.9186351895332336
			],
			"type":"VEC3"
		},
		{
			"bufferView":5,
			"componentType":5126,
			"count":48,
			"type":"VEC3"
		},
		{
			"bufferView":6,
			"componentType":5126,
			"count":48,
			"type":"VEC2"
		},
		{
			"bufferView":7,
			"componentType":5123,
			"count":96,
			"type":"SCALAR"
		},
		{
			"bufferView":8,
			"componentType":5126,
			"count":48,
			"max":[
				2.4015748500823975,
				1.2532808780670166,
				-0.9186351895332336
			],
			"min":[
				-2.4015748500823975,
				-1.2532808780670166,
				-0.9842519760131836
			],
			"type":"VEC3"
		},
		{
			"bufferView":9,
			"componentType":5126,
			"count":48,
			"type":"VEC3"
		},
		{
			"bufferView":10,
			"componentType":5126,
			"count":48,
			"type":"VEC2"
		},
		{
			"bufferView":11,
			"componentType":5123,
			"count":96,
			"type":"SCALAR"
		},
		{
			"bufferView":12,
			"componentType":5126,
			"count":40,
			"max":[
				2.0401244163513184,
				0.8918304443359375,
				0.9186351895332336
			],
			"min":[
				-2.0401244163513184,
				-0.8918304443359375,
				0.8805931210517883
			],
			"type":"VEC3"
		},
		{
			"bufferView":13,
			"componentType":5126,
			"count":40,
			"type":"VEC3"
		},
		{
			"bufferView":14,
			"componentType":5126,
			"count":40,
			"type":"VEC2"
		},
		{
			"bufferView":15,
			"componentType":5123,
			"count":72,
			"type":"SCALAR"
		},
		{
			"bufferView":16,
			"componentType":5126,
			"count":40,
			"max":[
				2.0401244163513184,
				0.8918304443359375,
				1.022294044494629
			],
			"min":[
				-2.0401244163513184,
				-0.8918304443359375,
				0.9842519760131836
			],
			"type":"VEC3"
		},
		{
			"bufferView":17,
			"componentType":5126,
			"count":40,
			"type":"VEC3"
		},
		{
			"bufferView":18,
			"componentType":5126,
			"count":40,
			"type":"VEC2"
		},
		{
			"bufferView":19,
			"componentType":5123,
			"count":72,
			"type":"SCALAR"
		},
		{
			"bufferView":20,
			"componentType":5126,
			"count":40,
			"max":[
				2.0401244163513184,
				0.8918304443359375,
				-0.8805931210517883
			],
			"min":[
				-2.0401244163513184,
				-0.8918304443359375,
				-0.9186351895332336
			],
			"type":"VEC3"
		},
		{
			"bufferView":21,
			"componentType":5126,
			"count":40,
			"type":"VEC3"
		},
		{
			"bufferView":22,
			"componentType":5126,
			"count":40,
			"type":"VEC2"
		},
		{
			"bufferView":23,
			"componentType":5126,
			"count":40,
			"max":[
				2.0401244163513184,
				0.8918304443359375,
				-0.9842519760131836
			],
			"min":[
				-2.0401244163513184,
				-0.8918304443359375,
				-1.022294044494629
			],
			"type":"VEC3"
		},
		{
			"bufferView":24,
			"componentType":5126,
			"count":40,
			"type":"VEC3"
		},
		{
			"bufferView":25,
			"componentType":5126,
			"count":40,
			"type":"VEC2"
		}
	],
	"bufferViews":[
		{
			"buffer":0,
			"byteLength":576,
			"byteOffset":0,
			"target":34962
		},
		{
			"buffer":0,
			"byteLength":576,
			"byteOffset":576,
			"target":34962
		},
		{
			"buffer":0,
			"byteLength":384,
			"byteOffset":1152,
			"target":34962
		},
		{
			"buffer":0,
			"byteLength":192,
			"byteOffset":1536,
			"target":34963
		},
		{
			"buffer":0,
			"byteLength":576,
			"byteOffset":1728,
			"target":34962
		},
		{
			"buffer":0,
			"byteLength":576,
			"byteOffset":2304,
			"target":34962
		},
		{
			"buffer":0,
			"byteLength":384,
			"byteOffset":2880,
			"target":34962
		},
		{
			"buffer":0,
			"byteLength":192,
			"byteOffset":3264,
			"target":34963
		},
		{
			"buffer":0,
			"byteLength":576,
			"byteOffset":3456,
			"target":34962
		},
		{
			"buffer":0,
			"byteLength":576,
			"byteOffset":4032,
			"target":34962
		},
		{
			"buffer":0,
			"byteLength":384,
			"byteOffset":4608,
			"target":34962
		},
		{
			"buffer":0,
			"byteLength":192,
			"byteOffset":4992,
			"target":34963
		},
		{
			"buffer":0,
			"byteLength":480,
			"byteOffset":5184,
			"target":34962
		},
		{
			"buffer":0,
			"byteLength":480,
			"byteOffset":5664,
			"target":34962
		},
		{
			"buffer":0,
			"byteLength":320,
			"byteOffset":6144,
			"target":34962
		},
		{
			"buffer":0,
			"byteLength":144,
			"byteOffset":6464,
			"target":34963
		},
		{
			"buffer":0,
			"byteLength":480,
			"byteOffset":6608,
			"target":34962
		},
		{
			"buffer":0,
			"byteLength":480,
			"byteOffset":7088,
			"target":34962
		},
		{
			"buffer":0,
			"byteLength":320,
			"byteOffset":7568,
			"target":34962
		},
		{
			"buffer":0,
			"byteLength":144,
			"byteOffset":7888,
			"target":34963
		},
		{
			"buffer":0,
			"byteLength":480,
			"byteOffset":8032,
			"target":34962
		},
		{
			"buffer":0,
			"byteLength":480,
			"byteOffset":8512,
			"target":34962
		},
		{
			"buffer":0,
			"byteLength":320,
			"byteOffset":8992,
			"target":34962
		},
		{
			"buffer":0,
			"byteLength":480,
			"byteOffset":9312,
			"target":34962
		},
		{
			"buffer":0,
			"byteLength":480,
			"byteOffset":9792,
			"target":34962
		},
		{
			"buffer":0,
			"byteLength":320,
			"byteOffset":10272,
			"target":34962
		}
	],
	"buffers":[
		{
			"byteLength":10592,
			"uri":"rectangular-sleeve.bin"
		}
	]
}
