{
	"asset":{
		"generator":"Khronos glTF Blender I/O v4.2.70",
		"version":"2.0"
	},
	"scene":0,
	"scenes":[
		{
			"name":"Scene",
			"nodes":[
				0,
				1,
				2,
				3,
				4
			]
		}
	],
	"nodes":[
		{
			"mesh":0,
			"name":" \u62c9\u4f38 [231271]",
			"scale":[
				0.30480000376701355,
				0.30480000376701355,
				0.30480000376701355
			]
		},
		{
			"mesh":1,
			"name":" \u62c9\u4f38 [231386]",
			"scale":[
				0.30480000376701355,
				0.30480000376701355,
				0.30480000376701355
			]
		},
		{
			"mesh":2,
			"name":" \u62c9\u4f38 [231397]",
			"scale":[
				0.30480000376701355,
				0.30480000376701355,
				0.30480000376701355
			]
		},
		{
			"mesh":3,
			"name":" \u62c9\u4f38 [231405]",
			"scale":[
				0.30480000376701355,
				0.30480000376701355,
				0.30480000376701355
			]
		},
		{
			"mesh":4,
			"name":" \u62c9\u4f38 [231457]",
			"scale":[
				0.30480000376701355,
				0.30480000376701355,
				0.30480000376701355
			]
		}
	],
	"materials":[
		{
			"doubleSided":true,
			"name":"\u697c\u68af",
			"pbrMetallicRoughness":{
				"baseColorFactor":[
					0.3279515206813812,
					0.3314253091812134,
					0.33842921257019043,
					1
				],
				"metallicFactor":0
			}
		},
		{
			"doubleSided":true,
			"name":"\u652f\u67b6",
			"pbrMetallicRoughness":{
				"baseColorFactor":[
					0.7681462168693542,
					0.7681518793106079,
					0.768151581287384,
					1
				],
				"metallicFactor":0.5,
				"roughnessFactor":0.20000000298023224
			}
		},
		{
			"doubleSided":true,
			"name":"PAM\u52a0\u836f\u7ba1",
			"pbrMetallicRoughness":{
				"baseColorFactor":[
					0.014895746484398842,
					0.3304866850376129,
					0.8001724481582642,
					1
				],
				"metallicFactor":0.5,
				"roughnessFactor":0.20000000298023224
			}
		},
		{
			"doubleSided":true,
			"name":"\u6162\u884c\u7cfb\u7edf",
			"pbrMetallicRoughness":{
				"baseColorFactor":[
					0.00367595418356359,
					0.2195262610912323,
					0.5520115494728088,
					1
				],
				"metallicFactor":0.20000000298023224
			}
		}
	],
	"meshes":[
		{
			"name":" \u62c9\u4f38 [231271] Geometry",
			"primitives":[
				{
					"attributes":{
						"POSITION":0,
						"NORMAL":1,
						"TEXCOORD_0":2
					},
					"indices":3,
					"material":0
				}
			]
		},
		{
			"name":" \u62c9\u4f38 [231386] Geometry",
			"primitives":[
				{
					"attributes":{
						"POSITION":4,
						"NORMAL":5,
						"TEXCOORD_0":6
					},
					"indices":7,
					"material":1
				}
			]
		},
		{
			"name":" \u62c9\u4f38 [231397] Geometry",
			"primitives":[
				{
					"attributes":{
						"POSITION":8,
						"NORMAL":9,
						"TEXCOORD_0":10
					},
					"indices":11,
					"material":1
				}
			]
		},
		{
			"name":" \u62c9\u4f38 [231405] Geometry",
			"primitives":[
				{
					"attributes":{
						"POSITION":12,
						"NORMAL":13,
						"TEXCOORD_0":14
					},
					"indices":15,
					"material":2
				}
			]
		},
		{
			"name":" \u62c9\u4f38 [231457] Geometry",
			"primitives":[
				{
					"attributes":{
						"POSITION":16,
						"NORMAL":17,
						"TEXCOORD_0":18
					},
					"indices":19,
					"material":3
				}
			]
		}
	],
	"accessors":[
		{
			"bufferView":0,
			"componentType":5126,
			"count":24,
			"max":[
				4,
				-6.217248937900877e-15,
				4
			],
			"min":[
				-4,
				-1,
				-4
			],
			"type":"VEC3"
		},
		{
			"bufferView":1,
			"componentType":5126,
			"count":24,
			"type":"VEC3"
		},
		{
			"bufferView":2,
			"componentType":5126,
			"count":24,
			"type":"VEC2"
		},
		{
			"bufferView":3,
			"componentType":5123,
			"count":36,
			"type":"SCALAR"
		},
		{
			"bufferView":4,
			"componentType":5126,
			"count":904,
			"max":[
				3.2808399200439453,
				0.16404199600219727,
				3.2808399200439453
			],
			"min":[
				-3.2808399200439453,
				-6.128028839984213e-15,
				-3.2808399200439453
			],
			"type":"VEC3"
		},
		{
			"bufferView":5,
			"componentType":5126,
			"count":904,
			"type":"VEC3"
		},
		{
			"bufferView":6,
			"componentType":5126,
			"count":904,
			"type":"VEC2"
		},
		{
			"bufferView":7,
			"componentType":5123,
			"count":2688,
			"type":"SCALAR"
		},
		{
			"bufferView":8,
			"componentType":5126,
			"count":824,
			"max":[
				2.690288782119751,
				0.16404199600219727,
				2.690288782119751
			],
			"min":[
				-2.690288782119751,
				-6.128028839984213e-15,
				-2.690288782119751
			],
			"type":"VEC3"
		},
		{
			"bufferView":9,
			"componentType":5126,
			"count":824,
			"type":"VEC3"
		},
		{
			"bufferView":10,
			"componentType":5126,
			"count":824,
			"type":"VEC2"
		},
		{
			"bufferView":11,
			"componentType":5123,
			"count":2448,
			"type":"SCALAR"
		},
		{
			"bufferView":12,
			"componentType":5126,
			"count":7816,
			"max":[
				3.1660103797912598,
				0.16404199600219727,
				3.1660103797912598
			],
			"min":[
				-3.1660103797912598,
				0.1312336027622223,
				-3.1660103797912598
			],
			"type":"VEC3"
		},
		{
			"bufferView":13,
			"componentType":5126,
			"count":7816,
			"type":"VEC3"
		},
		{
			"bufferView":14,
			"componentType":5126,
			"count":7816,
			"type":"VEC2"
		},
		{
			"bufferView":15,
			"componentType":5123,
			"count":23232,
			"type":"SCALAR"
		},
		{
			"bufferView":16,
			"componentType":5126,
			"count":1152,
			"max":[
				3.2152230739593506,
				0.16404199600219727,
				3.2152230739593506
			],
			"min":[
				-3.2152230739593506,
				0.1312336027622223,
				-3.2152230739593506
			],
			"type":"VEC3"
		},
		{
			"bufferView":17,
			"componentType":5126,
			"count":1152,
			"type":"VEC3"
		},
		{
			"bufferView":18,
			"componentType":5126,
			"count":1152,
			"type":"VEC2"
		},
		{
			"bufferView":19,
			"componentType":5123,
			"count":2160,
			"type":"SCALAR"
		}
	],
	"bufferViews":[
		{
			"buffer":0,
			"byteLength":288,
			"byteOffset":0,
			"target":34962
		},
		{
			"buffer":0,
			"byteLength":288,
			"byteOffset":288,
			"target":34962
		},
		{
			"buffer":0,
			"byteLength":192,
			"byteOffset":576,
			"target":34962
		},
		{
			"buffer":0,
			"byteLength":72,
			"byteOffset":768,
			"target":34963
		},
		{
			"buffer":0,
			"byteLength":10848,
			"byteOffset":840,
			"target":34962
		},
		{
			"buffer":0,
			"byteLength":10848,
			"byteOffset":11688,
			"target":34962
		},
		{
			"buffer":0,
			"byteLength":7232,
			"byteOffset":22536,
			"target":34962
		},
		{
			"buffer":0,
			"byteLength":5376,
			"byteOffset":29768,
			"target":34963
		},
		{
			"buffer":0,
			"byteLength":9888,
			"byteOffset":35144,
			"target":34962
		},
		{
			"buffer":0,
			"byteLength":9888,
			"byteOffset":45032,
			"target":34962
		},
		{
			"buffer":0,
			"byteLength":6592,
			"byteOffset":54920,
			"target":34962
		},
		{
			"buffer":0,
			"byteLength":4896,
			"byteOffset":61512,
			"target":34963
		},
		{
			"buffer":0,
			"byteLength":93792,
			"byteOffset":66408,
			"target":34962
		},
		{
			"buffer":0,
			"byteLength":93792,
			"byteOffset":160200,
			"target":34962
		},
		{
			"buffer":0,
			"byteLength":62528,
			"byteOffset":253992,
			"target":34962
		},
		{
			"buffer":0,
			"byteLength":46464,
			"byteOffset":316520,
			"target":34963
		},
		{
			"buffer":0,
			"byteLength":13824,
			"byteOffset":362984,
			"target":34962
		},
		{
			"buffer":0,
			"byteLength":13824,
			"byteOffset":376808,
			"target":34962
		},
		{
			"buffer":0,
			"byteLength":9216,
			"byteOffset":390632,
			"target":34962
		},
		{
			"buffer":0,
			"byteLength":4320,
			"byteOffset":399848,
			"target":34963
		}
	],
	"buffers":[
		{
			"byteLength":404168,
			"uri":"ring-steel-cover.bin"
		}
	]
}
