{
	"asset":{
		"generator":"Khronos glTF Blender I/O v4.2.70",
		"version":"2.0"
	},
	"scene":0,
	"scenes":[
		{
			"name":"Scene",
			"nodes":[
				0,
				1,
				2
			]
		}
	],
	"nodes":[
		{
			"mesh":0,
			"name":" \u62c9\u4f38 [225558]",
			"scale":[
				0.30480000376701355,
				0.30480000376701355,
				0.30480000376701355
			],
			"translation":[
				0,
				-0.26221561431884766,
				-0.38977956771850586
			]
		},
		{
			"mesh":1,
			"name":" \u62c9\u4f38 [225597]",
			"scale":[
				0.30480000376701355,
				0.30480000376701355,
				0.30480000376701355
			],
			"translation":[
				0,
				-0.26221561431884766,
				-0.38977956771850586
			]
		},
		{
			"mesh":2,
			"name":" \u62c9\u4f38 [225606]",
			"scale":[
				0.30480000376701355,
				0.30480000376701355,
				0.30480000376701355
			],
			"translation":[
				0,
				-0.26221561431884766,
				-0.38977956771850586
			]
		}
	],
	"materials":[
		{
			"doubleSided":true,
			"name":"\u652f\u67b6",
			"pbrMetallicRoughness":{
				"baseColorFactor":[
					0.7681462168693542,
					0.7681518793106079,
					0.768151581287384,
					1
				],
				"metallicFactor":0.5,
				"roughnessFactor":0.20000000298023224
			}
		}
	],
	"meshes":[
		{
			"name":" \u62c9\u4f38 [225558] Geometry",
			"primitives":[
				{
					"attributes":{
						"POSITION":0,
						"NORMAL":1,
						"TEXCOORD_0":2
					},
					"indices":3,
					"material":0
				}
			]
		},
		{
			"name":" \u62c9\u4f38 [225597] Geometry",
			"primitives":[
				{
					"attributes":{
						"POSITION":4,
						"NORMAL":5,
						"TEXCOORD_0":6
					},
					"indices":7,
					"material":0
				}
			]
		},
		{
			"name":" \u62c9\u4f38 [225606] Geometry",
			"primitives":[
				{
					"attributes":{
						"POSITION":8,
						"NORMAL":9,
						"TEXCOORD_0":10
					},
					"indices":11,
					"material":0
				}
			]
		}
	],
	"accessors":[
		{
			"bufferView":0,
			"componentType":5126,
			"count":844,
			"max":[
				0.16404199600219727,
				3.297244071960449,
				4.514967918395996
			],
			"min":[
				-0.16404199600219727,
				2.2965879440307617,
				-2.0467119216918945
			],
			"type":"VEC3"
		},
		{
			"bufferView":1,
			"componentType":5126,
			"count":844,
			"type":"VEC3"
		},
		{
			"bufferView":2,
			"componentType":5126,
			"count":844,
			"type":"VEC2"
		},
		{
			"bufferView":3,
			"componentType":5123,
			"count":3876,
			"type":"SCALAR"
		},
		{
			"bufferView":4,
			"componentType":5126,
			"count":271,
			"max":[
				0.08202099800109863,
				2.2965879440307617,
				4.41982364654541
			],
			"min":[
				-0.08202099800109863,
				0,
				4.255781650543213
			],
			"type":"VEC3"
		},
		{
			"bufferView":5,
			"componentType":5126,
			"count":271,
			"type":"VEC3"
		},
		{
			"bufferView":6,
			"componentType":5126,
			"count":271,
			"type":"VEC2"
		},
		{
			"bufferView":7,
			"componentType":5123,
			"count":1218,
			"type":"SCALAR"
		},
		{
			"bufferView":8,
			"componentType":5126,
			"count":271,
			"max":[
				0.08202099800109863,
				2.2965879440307617,
				-1.6825387477874756
			],
			"min":[
				-0.08202099800109863,
				8.881784197001252e-16,
				-1.8465807437896729
			],
			"type":"VEC3"
		},
		{
			"bufferView":9,
			"componentType":5126,
			"count":271,
			"type":"VEC3"
		},
		{
			"bufferView":10,
			"componentType":5126,
			"count":271,
			"type":"VEC2"
		},
		{
			"bufferView":11,
			"componentType":5123,
			"count":1218,
			"type":"SCALAR"
		}
	],
	"bufferViews":[
		{
			"buffer":0,
			"byteLength":10128,
			"byteOffset":0,
			"target":34962
		},
		{
			"buffer":0,
			"byteLength":10128,
			"byteOffset":10128,
			"target":34962
		},
		{
			"buffer":0,
			"byteLength":6752,
			"byteOffset":20256,
			"target":34962
		},
		{
			"buffer":0,
			"byteLength":7752,
			"byteOffset":27008,
			"target":34963
		},
		{
			"buffer":0,
			"byteLength":3252,
			"byteOffset":34760,
			"target":34962
		},
		{
			"buffer":0,
			"byteLength":3252,
			"byteOffset":38012,
			"target":34962
		},
		{
			"buffer":0,
			"byteLength":2168,
			"byteOffset":41264,
			"target":34962
		},
		{
			"buffer":0,
			"byteLength":2436,
			"byteOffset":43432,
			"target":34963
		},
		{
			"buffer":0,
			"byteLength":3252,
			"byteOffset":45868,
			"target":34962
		},
		{
			"buffer":0,
			"byteLength":3252,
			"byteOffset":49120,
			"target":34962
		},
		{
			"buffer":0,
			"byteLength":2168,
			"byteOffset":52372,
			"target":34962
		},
		{
			"buffer":0,
			"byteLength":2436,
			"byteOffset":54540,
			"target":34963
		}
	],
	"buffers":[
		{
			"byteLength":56976,
			"uri":"uv-disinfection-module.bin"
		}
	]
}
