{
	"asset":{
		"generator":"Khronos glTF Blender I/O v4.2.70",
		"version":"2.0"
	},
	"scene":0,
	"scenes":[
		{
			"name":"Scene",
			"nodes":[
				0,
				1,
				2,
				3,
				4,
				5,
				6,
				7,
				8,
				9,
				10,
				11,
				12,
				13,
				14,
				15,
				16,
				17,
				18
			]
		}
	],
	"nodes":[
		{
			"mesh":0,
			"name":" \u65cb\u8f6c [303601]",
			"scale":[
				0.30480000376701355,
				0.30480000376701355,
				0.30480000376701355
			]
		},
		{
			"mesh":1,
			"name":" \u65cb\u8f6c [303610]",
			"scale":[
				0.30480000376701355,
				0.30480000376701355,
				0.30480000376701355
			]
		},
		{
			"mesh":2,
			"name":" \u65cb\u8f6c [303619]",
			"scale":[
				0.30480000376701355,
				0.30480000376701355,
				0.30480000376701355
			]
		},
		{
			"mesh":3,
			"name":" \u65cb\u8f6c [303627]",
			"scale":[
				0.30480000376701355,
				0.30480000376701355,
				0.30480000376701355
			]
		},
		{
			"mesh":4,
			"name":" \u65cb\u8f6c [303635]",
			"scale":[
				0.30480000376701355,
				0.30480000376701355,
				0.30480000376701355
			]
		},
		{
			"mesh":5,
			"name":" \u65cb\u8f6c [303644]",
			"scale":[
				0.30480000376701355,
				0.30480000376701355,
				0.30480000376701355
			]
		},
		{
			"mesh":6,
			"name":" \u65cb\u8f6c [303656]",
			"scale":[
				0.30480000376701355,
				0.30480000376701355,
				0.30480000376701355
			]
		},
		{
			"mesh":7,
			"name":" \u65cb\u8f6c [303664]",
			"scale":[
				0.30480000376701355,
				0.30480000376701355,
				0.30480000376701355
			]
		},
		{
			"mesh":8,
			"name":" \u65cb\u8f6c [303672]",
			"scale":[
				0.30480000376701355,
				0.30480000376701355,
				0.30480000376701355
			]
		},
		{
			"mesh":9,
			"name":" \u65cb\u8f6c [303680]",
			"scale":[
				0.30480000376701355,
				0.30480000376701355,
				0.30480000376701355
			]
		},
		{
			"mesh":10,
			"name":" \u65cb\u8f6c [303688]",
			"scale":[
				0.30480000376701355,
				0.30480000376701355,
				0.30480000376701355
			]
		},
		{
			"mesh":11,
			"name":" \u65cb\u8f6c [303696]",
			"scale":[
				0.30480000376701355,
				0.30480000376701355,
				0.30480000376701355
			]
		},
		{
			"mesh":12,
			"name":" \u65cb\u8f6c [303704]",
			"scale":[
				0.30480000376701355,
				0.30480000376701355,
				0.30480000376701355
			]
		},
		{
			"mesh":13,
			"name":" \u65cb\u8f6c [303712]",
			"scale":[
				0.30480000376701355,
				0.30480000376701355,
				0.30480000376701355
			]
		},
		{
			"mesh":14,
			"name":" \u62c9\u4f38 [303719]",
			"scale":[
				0.30480000376701355,
				0.30480000376701355,
				0.30480000376701355
			]
		},
		{
			"mesh":15,
			"name":" \u62c9\u4f38 [304204]",
			"scale":[
				0.30480000376701355,
				0.30480000376701355,
				0.30480000376701355
			]
		},
		{
			"mesh":16,
			"name":" \u62c9\u4f38 [304214]",
			"scale":[
				0.30480000376701355,
				0.30480000376701355,
				0.30480000376701355
			]
		},
		{
			"mesh":17,
			"name":" \u62c9\u4f38 [304234]",
			"scale":[
				0.30480000376701355,
				0.30480000376701355,
				0.30480000376701355
			]
		},
		{
			"mesh":18,
			"name":" \u62c9\u4f38 [304238]",
			"scale":[
				0.30480000376701355,
				0.30480000376701355,
				0.30480000376701355
			]
		}
	],
	"materials":[
		{
			"doubleSided":true,
			"name":"\u6162\u884c\u7cfb\u7edf",
			"pbrMetallicRoughness":{
				"baseColorFactor":[
					0.00367595418356359,
					0.2195262610912323,
					0.5520115494728088,
					1
				],
				"metallicFactor":0.5181818008422852,
				"roughnessFactor":0.2136363387107849
			}
		},
		{
			"doubleSided":true,
			"name":"\u4e0d\u9508\u94a2",
			"pbrMetallicRoughness":{
				"baseColorFactor":[
					0.33716103434562683,
					0.4851502776145935,
					0.701102077960968,
					1
				],
				"metallicFactor":0.5,
				"roughnessFactor":0.20000000298023224
			}
		}
	],
	"meshes":[
		{
			"name":" \u65cb\u8f6c [303601] Geometry",
			"primitives":[
				{
					"attributes":{
						"POSITION":0,
						"NORMAL":1,
						"TEXCOORD_0":2
					},
					"indices":3,
					"material":0
				}
			]
		},
		{
			"name":" \u65cb\u8f6c [303610] Geometry",
			"primitives":[
				{
					"attributes":{
						"POSITION":4,
						"NORMAL":5,
						"TEXCOORD_0":6
					},
					"indices":7,
					"material":0
				}
			]
		},
		{
			"name":" \u65cb\u8f6c [303619] Geometry",
			"primitives":[
				{
					"attributes":{
						"POSITION":8,
						"NORMAL":9,
						"TEXCOORD_0":10
					},
					"indices":11,
					"material":0
				}
			]
		},
		{
			"name":" \u65cb\u8f6c [303627] Geometry",
			"primitives":[
				{
					"attributes":{
						"POSITION":12,
						"NORMAL":13,
						"TEXCOORD_0":14
					},
					"indices":15,
					"material":0
				}
			]
		},
		{
			"name":" \u65cb\u8f6c [303635] Geometry",
			"primitives":[
				{
					"attributes":{
						"POSITION":16,
						"NORMAL":17,
						"TEXCOORD_0":18
					},
					"indices":19,
					"material":0
				}
			]
		},
		{
			"name":" \u65cb\u8f6c [303644] Geometry",
			"primitives":[
				{
					"attributes":{
						"POSITION":20,
						"NORMAL":21,
						"TEXCOORD_0":22
					},
					"indices":23,
					"material":0
				}
			]
		},
		{
			"name":" \u65cb\u8f6c [303656] Geometry",
			"primitives":[
				{
					"attributes":{
						"POSITION":24,
						"NORMAL":25,
						"TEXCOORD_0":26
					},
					"indices":27,
					"material":0
				}
			]
		},
		{
			"name":" \u65cb\u8f6c [303664] Geometry",
			"primitives":[
				{
					"attributes":{
						"POSITION":28,
						"NORMAL":29,
						"TEXCOORD_0":30
					},
					"indices":31,
					"material":0
				}
			]
		},
		{
			"name":" \u65cb\u8f6c [303672] Geometry",
			"primitives":[
				{
					"attributes":{
						"POSITION":32,
						"NORMAL":33,
						"TEXCOORD_0":34
					},
					"indices":35,
					"material":0
				}
			]
		},
		{
			"name":" \u65cb\u8f6c [303680] Geometry",
			"primitives":[
				{
					"attributes":{
						"POSITION":36,
						"NORMAL":37,
						"TEXCOORD_0":38
					},
					"indices":39,
					"material":0
				}
			]
		},
		{
			"name":" \u65cb\u8f6c [303688] Geometry",
			"primitives":[
				{
					"attributes":{
						"POSITION":40,
						"NORMAL":41,
						"TEXCOORD_0":42
					},
					"indices":43,
					"material":0
				}
			]
		},
		{
			"name":" \u65cb\u8f6c [303696] Geometry",
			"primitives":[
				{
					"attributes":{
						"POSITION":44,
						"NORMAL":45,
						"TEXCOORD_0":46
					},
					"indices":47,
					"material":0
				}
			]
		},
		{
			"name":" \u65cb\u8f6c [303704] Geometry",
			"primitives":[
				{
					"attributes":{
						"POSITION":48,
						"NORMAL":49,
						"TEXCOORD_0":50
					},
					"indices":51,
					"material":0
				}
			]
		},
		{
			"name":" \u65cb\u8f6c [303712] Geometry",
			"primitives":[
				{
					"attributes":{
						"POSITION":52,
						"NORMAL":53,
						"TEXCOORD_0":54
					},
					"indices":55,
					"material":0
				}
			]
		},
		{
			"name":" \u62c9\u4f38 [303719] Geometry",
			"primitives":[
				{
					"attributes":{
						"POSITION":56,
						"NORMAL":57,
						"TEXCOORD_0":58
					},
					"indices":59,
					"material":0
				}
			]
		},
		{
			"name":" \u62c9\u4f38 [304204] Geometry",
			"primitives":[
				{
					"attributes":{
						"POSITION":60,
						"NORMAL":61,
						"TEXCOORD_0":62
					},
					"indices":63,
					"material":0
				}
			]
		},
		{
			"name":" \u62c9\u4f38 [304214] Geometry",
			"primitives":[
				{
					"attributes":{
						"POSITION":64,
						"NORMAL":65,
						"TEXCOORD_0":66
					},
					"indices":67,
					"material":0
				}
			]
		},
		{
			"name":" \u62c9\u4f38 [304234] Geometry",
			"primitives":[
				{
					"attributes":{
						"POSITION":68,
						"NORMAL":69,
						"TEXCOORD_0":70
					},
					"indices":71,
					"material":0
				}
			]
		},
		{
			"name":" \u62c9\u4f38 [304238] Geometry",
			"primitives":[
				{
					"attributes":{
						"POSITION":72,
						"NORMAL":73,
						"TEXCOORD_0":74
					},
					"indices":75,
					"material":1
				}
			]
		}
	],
	"accessors":[
		{
			"bufferView":0,
			"componentType":5126,
			"count":1062,
			"max":[
				-0.7405669093132019,
				0.33771249651908875,
				0.33771249651908875
			],
			"min":[
				-0.8681356310844421,
				-0.33771249651908875,
				-0.33771249651908875
			],
			"type":"VEC3"
		},
		{
			"bufferView":1,
			"componentType":5126,
			"count":1062,
			"type":"VEC3"
		},
		{
			"bufferView":2,
			"componentType":5126,
			"count":1062,
			"type":"VEC2"
		},
		{
			"bufferView":3,
			"componentType":5123,
			"count":5373,
			"type":"SCALAR"
		},
		{
			"bufferView":4,
			"componentType":5126,
			"count":981,
			"max":[
				-0.11476211249828339,
				0.33851829171180725,
				0.33851829171180725
			],
			"min":[
				-0.7405669093132019,
				-0.33851829171180725,
				-0.33851829171180725
			],
			"type":"VEC3"
		},
		{
			"bufferView":5,
			"componentType":5126,
			"count":981,
			"type":"VEC3"
		},
		{
			"bufferView":6,
			"componentType":5126,
			"count":981,
			"type":"VEC2"
		},
		{
			"bufferView":7,
			"componentType":5123,
			"count":4446,
			"type":"SCALAR"
		},
		{
			"bufferView":8,
			"componentType":5126,
			"count":312,
			"max":[
				-0.04676622897386551,
				0.3488207161426544,
				0.3488207161426544
			],
			"min":[
				-0.11476211249828339,
				-0.3488207161426544,
				-0.3488207161426544
			],
			"type":"VEC3"
		},
		{
			"bufferView":9,
			"componentType":5126,
			"count":312,
			"type":"VEC3"
		},
		{
			"bufferView":10,
			"componentType":5126,
			"count":312,
			"type":"VEC2"
		},
		{
			"bufferView":11,
			"componentType":5123,
			"count":912,
			"type":"SCALAR"
		},
		{
			"bufferView":12,
			"componentType":5126,
			"count":358,
			"max":[
				0,
				0.426320344209671,
				0.426320344209671
			],
			"min":[
				-0.04676622897386551,
				-0.426320344209671,
				-0.426320344209671
			],
			"type":"VEC3"
		},
		{
			"bufferView":13,
			"componentType":5126,
			"count":358,
			"type":"VEC3"
		},
		{
			"bufferView":14,
			"componentType":5126,
			"count":358,
			"type":"VEC2"
		},
		{
			"bufferView":15,
			"componentType":5123,
			"count":1056,
			"type":"SCALAR"
		},
		{
			"bufferView":16,
			"componentType":5126,
			"count":358,
			"max":[
				0.04790487885475159,
				0.426320344209671,
				0.426320344209671
			],
			"min":[
				0,
				-0.426320344209671,
				-0.426320344209671
			],
			"type":"VEC3"
		},
		{
			"bufferView":17,
			"componentType":5126,
			"count":358,
			"type":"VEC3"
		},
		{
			"bufferView":18,
			"componentType":5126,
			"count":358,
			"type":"VEC2"
		},
		{
			"bufferView":19,
			"componentType":5123,
			"count":1056,
			"type":"SCALAR"
		},
		{
			"bufferView":20,
			"componentType":5126,
			"count":589,
			"max":[
				0.27383846044540405,
				0.35004058480262756,
				0.35004058480262756
			],
			"min":[
				0.04790487885475159,
				-0.35004058480262756,
				-0.35004058480262756
			],
			"type":"VEC3"
		},
		{
			"bufferView":21,
			"componentType":5126,
			"count":589,
			"type":"VEC3"
		},
		{
			"bufferView":22,
			"componentType":5126,
			"count":589,
			"type":"VEC2"
		},
		{
			"bufferView":23,
			"componentType":5123,
			"count":1728,
			"type":"SCALAR"
		},
		{
			"bufferView":24,
			"componentType":5126,
			"count":326,
			"max":[
				0.3291890621185303,
				0.358839750289917,
				0.358839750289917
			],
			"min":[
				0.27383846044540405,
				-0.358839750289917,
				-0.358839750289917
			],
			"type":"VEC3"
		},
		{
			"bufferView":25,
			"componentType":5126,
			"count":326,
			"type":"VEC3"
		},
		{
			"bufferView":26,
			"componentType":5126,
			"count":326,
			"type":"VEC2"
		},
		{
			"bufferView":27,
			"componentType":5123,
			"count":960,
			"type":"SCALAR"
		},
		{
			"bufferView":28,
			"componentType":5126,
			"count":326,
			"max":[
				0.38549375534057617,
				0.358839750289917,
				0.358839750289917
			],
			"min":[
				0.3291890621185303,
				-0.358839750289917,
				-0.358839750289917
			],
			"type":"VEC3"
		},
		{
			"bufferView":29,
			"componentType":5126,
			"count":326,
			"type":"VEC3"
		},
		{
			"bufferView":30,
			"componentType":5126,
			"count":326,
			"type":"VEC2"
		},
		{
			"bufferView":31,
			"componentType":5123,
			"count":960,
			"type":"SCALAR"
		},
		{
			"bufferView":32,
			"componentType":5126,
			"count":708,
			"max":[
				0.47308579087257385,
				0.33377936482429504,
				0.33377936482429504
			],
			"min":[
				0.38549375534057617,
				-0.33377936482429504,
				-0.33377936482429504
			],
			"type":"VEC3"
		},
		{
			"bufferView":33,
			"componentType":5126,
			"count":708,
			"type":"VEC3"
		},
		{
			"bufferView":34,
			"componentType":5126,
			"count":708,
			"type":"VEC2"
		},
		{
			"bufferView":35,
			"componentType":5123,
			"count":3312,
			"type":"SCALAR"
		},
		{
			"bufferView":36,
			"componentType":5126,
			"count":1315,
			"max":[
				0.6595491766929626,
				0.4146849513053894,
				0.4146811366081238
			],
			"min":[
				0.47308579087257385,
				-0.4146849513053894,
				-0.4146811366081238
			],
			"type":"VEC3"
		},
		{
			"bufferView":37,
			"componentType":5126,
			"count":1315,
			"type":"VEC3"
		},
		{
			"bufferView":38,
			"componentType":5126,
			"count":1315,
			"type":"VEC2"
		},
		{
			"bufferView":39,
			"componentType":5123,
			"count":6708,
			"type":"SCALAR"
		},
		{
			"bufferView":40,
			"componentType":5126,
			"count":553,
			"max":[
				0.7384330630302429,
				0.20020730793476105,
				0.20020730793476105
			],
			"min":[
				0.6595491766929626,
				-0.20020730793476105,
				-0.20020730793476105
			],
			"type":"VEC3"
		},
		{
			"bufferView":41,
			"componentType":5126,
			"count":553,
			"type":"VEC3"
		},
		{
			"bufferView":42,
			"componentType":5126,
			"count":553,
			"type":"VEC2"
		},
		{
			"bufferView":43,
			"componentType":5123,
			"count":2568,
			"type":"SCALAR"
		},
		{
			"bufferView":44,
			"componentType":5126,
			"count":294,
			"max":[
				0.7967990636825562,
				0.30739787220954895,
				0.30739787220954895
			],
			"min":[
				0.7385895252227783,
				-0.30739787220954895,
				-0.30739787220954895
			],
			"type":"VEC3"
		},
		{
			"bufferView":45,
			"componentType":5126,
			"count":294,
			"type":"VEC3"
		},
		{
			"bufferView":46,
			"componentType":5126,
			"count":294,
			"type":"VEC2"
		},
		{
			"bufferView":47,
			"componentType":5123,
			"count":864,
			"type":"SCALAR"
		},
		{
			"bufferView":48,
			"componentType":5126,
			"count":168,
			"max":[
				0.2057635337114334,
				0.09853415191173553,
				0.09853415191173553
			],
			"min":[
				0.07223305851221085,
				-0.09853415191173553,
				-0.09853415191173553
			],
			"type":"VEC3"
		},
		{
			"bufferView":49,
			"componentType":5126,
			"count":168,
			"type":"VEC3"
		},
		{
			"bufferView":50,
			"componentType":5126,
			"count":168,
			"type":"VEC2"
		},
		{
			"bufferView":51,
			"componentType":5123,
			"count":480,
			"type":"SCALAR"
		},
		{
			"bufferView":52,
			"componentType":5126,
			"count":183,
			"max":[
				0.23532024025917053,
				0.11812381446361542,
				0.11812381446361542
			],
			"min":[
				0.2057635337114334,
				-0.11812381446361542,
				-0.11812381446361542
			],
			"type":"VEC3"
		},
		{
			"bufferView":53,
			"componentType":5126,
			"count":183,
			"type":"VEC3"
		},
		{
			"bufferView":54,
			"componentType":5126,
			"count":183,
			"type":"VEC2"
		},
		{
			"bufferView":55,
			"componentType":5123,
			"count":528,
			"type":"SCALAR"
		},
		{
			"bufferView":56,
			"componentType":5126,
			"count":6960,
			"max":[
				-0.15105299651622772,
				0.35172238945961,
				0.35172238945961
			],
			"min":[
				-0.7405669093132019,
				-0.35172238945961,
				-0.35172238945961
			],
			"type":"VEC3"
		},
		{
			"bufferView":57,
			"componentType":5126,
			"count":6960,
			"type":"VEC3"
		},
		{
			"bufferView":58,
			"componentType":5126,
			"count":6960,
			"type":"VEC2"
		},
		{
			"bufferView":59,
			"componentType":5123,
			"count":16560,
			"type":"SCALAR"
		},
		{
			"bufferView":60,
			"componentType":5126,
			"count":136,
			"max":[
				0.27383846044540405,
				-2.220446049250313e-15,
				0.44291338324546814
			],
			"min":[
				0.04790487885475159,
				-0.6069554090499878,
				-0.44291338324546814
			],
			"type":"VEC3"
		},
		{
			"bufferView":61,
			"componentType":5126,
			"count":136,
			"type":"VEC3"
		},
		{
			"bufferView":62,
			"componentType":5126,
			"count":136,
			"type":"VEC2"
		},
		{
			"bufferView":63,
			"componentType":5123,
			"count":324,
			"type":"SCALAR"
		},
		{
			"bufferView":64,
			"componentType":5126,
			"count":136,
			"max":[
				-0.32897645235061646,
				-2.3314683517128287e-15,
				0.44291338324546814
			],
			"min":[
				-0.5542129874229431,
				-0.6069554090499878,
				-0.44291338324546814
			],
			"type":"VEC3"
		},
		{
			"bufferView":65,
			"componentType":5126,
			"count":136,
			"type":"VEC3"
		},
		{
			"bufferView":66,
			"componentType":5126,
			"count":136,
			"type":"VEC2"
		},
		{
			"bufferView":67,
			"componentType":5123,
			"count":324,
			"type":"SCALAR"
		},
		{
			"bufferView":68,
			"componentType":5126,
			"count":124,
			"max":[
				0.599125862121582,
				0.4921259880065918,
				0.03280840069055557
			],
			"min":[
				0.5335090756416321,
				0.3885897696018219,
				-0.03280840069055557
			],
			"type":"VEC3"
		},
		{
			"bufferView":69,
			"componentType":5126,
			"count":124,
			"type":"VEC3"
		},
		{
			"bufferView":70,
			"componentType":5126,
			"count":124,
			"type":"VEC2"
		},
		{
			"bufferView":71,
			"componentType":5123,
			"count":408,
			"type":"SCALAR"
		},
		{
			"bufferView":72,
			"componentType":5126,
			"count":296,
			"max":[
				0.6483384966850281,
				0.4921259880065918,
				0.08202099800109863
			],
			"min":[
				0.4842965006828308,
				0.4757217764854431,
				-0.08202099800109863
			],
			"type":"VEC3"
		},
		{
			"bufferView":73,
			"componentType":5126,
			"count":296,
			"type":"VEC3"
		},
		{
			"bufferView":74,
			"componentType":5126,
			"count":296,
			"type":"VEC2"
		},
		{
			"bufferView":75,
			"componentType":5123,
			"count":864,
			"type":"SCALAR"
		}
	],
	"bufferViews":[
		{
			"buffer":0,
			"byteLength":12744,
			"byteOffset":0,
			"target":34962
		},
		{
			"buffer":0,
			"byteLength":12744,
			"byteOffset":12744,
			"target":34962
		},
		{
			"buffer":0,
			"byteLength":8496,
			"byteOffset":25488,
			"target":34962
		},
		{
			"buffer":0,
			"byteLength":10746,
			"byteOffset":33984,
			"target":34963
		},
		{
			"buffer":0,
			"byteLength":11772,
			"byteOffset":44732,
			"target":34962
		},
		{
			"buffer":0,
			"byteLength":11772,
			"byteOffset":56504,
			"target":34962
		},
		{
			"buffer":0,
			"byteLength":7848,
			"byteOffset":68276,
			"target":34962
		},
		{
			"buffer":0,
			"byteLength":8892,
			"byteOffset":76124,
			"target":34963
		},
		{
			"buffer":0,
			"byteLength":3744,
			"byteOffset":85016,
			"target":34962
		},
		{
			"buffer":0,
			"byteLength":3744,
			"byteOffset":88760,
			"target":34962
		},
		{
			"buffer":0,
			"byteLength":2496,
			"byteOffset":92504,
			"target":34962
		},
		{
			"buffer":0,
			"byteLength":1824,
			"byteOffset":95000,
			"target":34963
		},
		{
			"buffer":0,
			"byteLength":4296,
			"byteOffset":96824,
			"target":34962
		},
		{
			"buffer":0,
			"byteLength":4296,
			"byteOffset":101120,
			"target":34962
		},
		{
			"buffer":0,
			"byteLength":2864,
			"byteOffset":105416,
			"target":34962
		},
		{
			"buffer":0,
			"byteLength":2112,
			"byteOffset":108280,
			"target":34963
		},
		{
			"buffer":0,
			"byteLength":4296,
			"byteOffset":110392,
			"target":34962
		},
		{
			"buffer":0,
			"byteLength":4296,
			"byteOffset":114688,
			"target":34962
		},
		{
			"buffer":0,
			"byteLength":2864,
			"byteOffset":118984,
			"target":34962
		},
		{
			"buffer":0,
			"byteLength":2112,
			"byteOffset":121848,
			"target":34963
		},
		{
			"buffer":0,
			"byteLength":7068,
			"byteOffset":123960,
			"target":34962
		},
		{
			"buffer":0,
			"byteLength":7068,
			"byteOffset":131028,
			"target":34962
		},
		{
			"buffer":0,
			"byteLength":4712,
			"byteOffset":138096,
			"target":34962
		},
		{
			"buffer":0,
			"byteLength":3456,
			"byteOffset":142808,
			"target":34963
		},
		{
			"buffer":0,
			"byteLength":3912,
			"byteOffset":146264,
			"target":34962
		},
		{
			"buffer":0,
			"byteLength":3912,
			"byteOffset":150176,
			"target":34962
		},
		{
			"buffer":0,
			"byteLength":2608,
			"byteOffset":154088,
			"target":34962
		},
		{
			"buffer":0,
			"byteLength":1920,
			"byteOffset":156696,
			"target":34963
		},
		{
			"buffer":0,
			"byteLength":3912,
			"byteOffset":158616,
			"target":34962
		},
		{
			"buffer":0,
			"byteLength":3912,
			"byteOffset":162528,
			"target":34962
		},
		{
			"buffer":0,
			"byteLength":2608,
			"byteOffset":166440,
			"target":34962
		},
		{
			"buffer":0,
			"byteLength":1920,
			"byteOffset":169048,
			"target":34963
		},
		{
			"buffer":0,
			"byteLength":8496,
			"byteOffset":170968,
			"target":34962
		},
		{
			"buffer":0,
			"byteLength":8496,
			"byteOffset":179464,
			"target":34962
		},
		{
			"buffer":0,
			"byteLength":5664,
			"byteOffset":187960,
			"target":34962
		},
		{
			"buffer":0,
			"byteLength":6624,
			"byteOffset":193624,
			"target":34963
		},
		{
			"buffer":0,
			"byteLength":15780,
			"byteOffset":200248,
			"target":34962
		},
		{
			"buffer":0,
			"byteLength":15780,
			"byteOffset":216028,
			"target":34962
		},
		{
			"buffer":0,
			"byteLength":10520,
			"byteOffset":231808,
			"target":34962
		},
		{
			"buffer":0,
			"byteLength":13416,
			"byteOffset":242328,
			"target":34963
		},
		{
			"buffer":0,
			"byteLength":6636,
			"byteOffset":255744,
			"target":34962
		},
		{
			"buffer":0,
			"byteLength":6636,
			"byteOffset":262380,
			"target":34962
		},
		{
			"buffer":0,
			"byteLength":4424,
			"byteOffset":269016,
			"target":34962
		},
		{
			"buffer":0,
			"byteLength":5136,
			"byteOffset":273440,
			"target":34963
		},
		{
			"buffer":0,
			"byteLength":3528,
			"byteOffset":278576,
			"target":34962
		},
		{
			"buffer":0,
			"byteLength":3528,
			"byteOffset":282104,
			"target":34962
		},
		{
			"buffer":0,
			"byteLength":2352,
			"byteOffset":285632,
			"target":34962
		},
		{
			"buffer":0,
			"byteLength":1728,
			"byteOffset":287984,
			"target":34963
		},
		{
			"buffer":0,
			"byteLength":2016,
			"byteOffset":289712,
			"target":34962
		},
		{
			"buffer":0,
			"byteLength":2016,
			"byteOffset":291728,
			"target":34962
		},
		{
			"buffer":0,
			"byteLength":1344,
			"byteOffset":293744,
			"target":34962
		},
		{
			"buffer":0,
			"byteLength":960,
			"byteOffset":295088,
			"target":34963
		},
		{
			"buffer":0,
			"byteLength":2196,
			"byteOffset":296048,
			"target":34962
		},
		{
			"buffer":0,
			"byteLength":2196,
			"byteOffset":298244,
			"target":34962
		},
		{
			"buffer":0,
			"byteLength":1464,
			"byteOffset":300440,
			"target":34962
		},
		{
			"buffer":0,
			"byteLength":1056,
			"byteOffset":301904,
			"target":34963
		},
		{
			"buffer":0,
			"byteLength":83520,
			"byteOffset":302960,
			"target":34962
		},
		{
			"buffer":0,
			"byteLength":83520,
			"byteOffset":386480,
			"target":34962
		},
		{
			"buffer":0,
			"byteLength":55680,
			"byteOffset":470000,
			"target":34962
		},
		{
			"buffer":0,
			"byteLength":33120,
			"byteOffset":525680,
			"target":34963
		},
		{
			"buffer":0,
			"byteLength":1632,
			"byteOffset":558800,
			"target":34962
		},
		{
			"buffer":0,
			"byteLength":1632,
			"byteOffset":560432,
			"target":34962
		},
		{
			"buffer":0,
			"byteLength":1088,
			"byteOffset":562064,
			"target":34962
		},
		{
			"buffer":0,
			"byteLength":648,
			"byteOffset":563152,
			"target":34963
		},
		{
			"buffer":0,
			"byteLength":1632,
			"byteOffset":563800,
			"target":34962
		},
		{
			"buffer":0,
			"byteLength":1632,
			"byteOffset":565432,
			"target":34962
		},
		{
			"buffer":0,
			"byteLength":1088,
			"byteOffset":567064,
			"target":34962
		},
		{
			"buffer":0,
			"byteLength":648,
			"byteOffset":568152,
			"target":34963
		},
		{
			"buffer":0,
			"byteLength":1488,
			"byteOffset":568800,
			"target":34962
		},
		{
			"buffer":0,
			"byteLength":1488,
			"byteOffset":570288,
			"target":34962
		},
		{
			"buffer":0,
			"byteLength":992,
			"byteOffset":571776,
			"target":34962
		},
		{
			"buffer":0,
			"byteLength":816,
			"byteOffset":572768,
			"target":34963
		},
		{
			"buffer":0,
			"byteLength":3552,
			"byteOffset":573584,
			"target":34962
		},
		{
			"buffer":0,
			"byteLength":3552,
			"byteOffset":577136,
			"target":34962
		},
		{
			"buffer":0,
			"byteLength":2368,
			"byteOffset":580688,
			"target":34962
		},
		{
			"buffer":0,
			"byteLength":1728,
			"byteOffset":583056,
			"target":34963
		}
	],
	"buffers":[
		{
			"byteLength":584784,
			"uri":"dosing-pump.bin"
		}
	]
}
