{
	"asset":{
		"generator":"Khronos glTF Blender I/O v4.2.70",
		"version":"2.0"
	},
	"scene":0,
	"scenes":[
		{
			"name":"Scene",
			"nodes":[
				0,
				1,
				2,
				3,
				4,
				5,
				6,
				7,
				8,
				9,
				10
			]
		}
	],
	"nodes":[
		{
			"mesh":0,
			"name":" \u65cb\u8f6c [255781]",
			"scale":[
				0.30480000376701355,
				0.30480000376701355,
				0.30480000376701355
			],
			"translation":[
				0,
				0.07552740722894669,
				0
			]
		},
		{
			"mesh":1,
			"name":" \u65cb\u8f6c [255790]",
			"scale":[
				0.30480000376701355,
				0.30480000376701355,
				0.30480000376701355
			],
			"translation":[
				0,
				0.07552740722894669,
				0
			]
		},
		{
			"mesh":2,
			"name":" \u65cb\u8f6c [255808]",
			"scale":[
				0.30480000376701355,
				0.30480000376701355,
				0.30480000376701355
			],
			"translation":[
				0,
				0.07552740722894669,
				0
			]
		},
		{
			"mesh":3,
			"name":" \u65cb\u8f6c [255816]",
			"scale":[
				0.30480000376701355,
				0.30480000376701355,
				0.30480000376701355
			],
			"translation":[
				0,
				0.07552740722894669,
				0
			]
		},
		{
			"mesh":4,
			"name":" \u65cb\u8f6c [255824]",
			"scale":[
				0.30480000376701355,
				0.30480000376701355,
				0.30480000376701355
			],
			"translation":[
				0,
				0.07552740722894669,
				0
			]
		},
		{
			"mesh":5,
			"name":" \u65cb\u8f6c [255832]",
			"scale":[
				0.30480000376701355,
				0.30480000376701355,
				0.30480000376701355
			],
			"translation":[
				0,
				0.07552740722894669,
				0
			]
		},
		{
			"mesh":6,
			"name":" \u62c9\u4f38 [255839]",
			"scale":[
				0.30480000376701355,
				0.30480000376701355,
				0.30480000376701355
			],
			"translation":[
				0,
				0.07552740722894669,
				0
			]
		},
		{
			"mesh":7,
			"name":" \u65cb\u8f6c [255856]",
			"scale":[
				0.30480000376701355,
				0.30480000376701355,
				0.30480000376701355
			],
			"translation":[
				0,
				0.07552740722894669,
				0
			]
		},
		{
			"mesh":8,
			"name":" \u65cb\u8f6c [255864]",
			"scale":[
				0.30480000376701355,
				0.30480000376701355,
				0.30480000376701355
			],
			"translation":[
				0,
				0.07552740722894669,
				0
			]
		},
		{
			"mesh":9,
			"name":" \u65cb\u8f6c [255873]",
			"scale":[
				0.30480000376701355,
				0.30480000376701355,
				0.30480000376701355
			],
			"translation":[
				0,
				0.07552740722894669,
				0
			]
		},
		{
			"mesh":10,
			"name":" \u8fde\u63a5\u7684\u5b9e\u5fc3\u51e0\u4f55\u56fe\u5f62 [255883]",
			"scale":[
				0.30480000376701355,
				0.30480000376701355,
				0.30480000376701355
			],
			"translation":[
				0,
				0.07552740722894669,
				0
			]
		}
	],
	"materials":[
		{
			"doubleSided":true,
			"name":"PAM\u52a0\u836f\u7ba1.001",
			"pbrMetallicRoughness":{
				"baseColorFactor":[
					0.0006841521244496107,
					0.19392116367816925,
					0.8644233345985413,
					1
				],
				"metallicFactor":0.5,
				"roughnessFactor":0.20000000298023224
			}
		},
		{
			"doubleSided":true,
			"name":"\u6ca5\u9752",
			"pbrMetallicRoughness":{
				"baseColorFactor":[
					0.04256100207567215,
					0.03912356123328209,
					0.02791789546608925,
					1
				],
				"metallicFactor":0.5,
				"roughnessFactor":0.5
			}
		}
	],
	"meshes":[
		{
			"name":" \u65cb\u8f6c [255781] Geometry",
			"primitives":[
				{
					"attributes":{
						"POSITION":0,
						"NORMAL":1,
						"TEXCOORD_0":2
					},
					"indices":3,
					"material":0
				}
			]
		},
		{
			"name":" \u65cb\u8f6c [255790] Geometry",
			"primitives":[
				{
					"attributes":{
						"POSITION":4,
						"NORMAL":5,
						"TEXCOORD_0":6
					},
					"indices":7,
					"material":0
				}
			]
		},
		{
			"name":" \u65cb\u8f6c [255808] Geometry",
			"primitives":[
				{
					"attributes":{
						"POSITION":8,
						"NORMAL":9,
						"TEXCOORD_0":10
					},
					"indices":11,
					"material":0
				}
			]
		},
		{
			"name":" \u65cb\u8f6c [255816] Geometry",
			"primitives":[
				{
					"attributes":{
						"POSITION":12,
						"NORMAL":13,
						"TEXCOORD_0":14
					},
					"indices":15,
					"material":1
				}
			]
		},
		{
			"name":" \u65cb\u8f6c [255824] Geometry",
			"primitives":[
				{
					"attributes":{
						"POSITION":16,
						"NORMAL":17,
						"TEXCOORD_0":18
					},
					"indices":19,
					"material":1
				}
			]
		},
		{
			"name":" \u65cb\u8f6c [255832] Geometry",
			"primitives":[
				{
					"attributes":{
						"POSITION":20,
						"NORMAL":21,
						"TEXCOORD_0":22
					},
					"indices":23,
					"material":1
				}
			]
		},
		{
			"name":" \u62c9\u4f38 [255839] Geometry",
			"primitives":[
				{
					"attributes":{
						"POSITION":24,
						"NORMAL":25,
						"TEXCOORD_0":26
					},
					"indices":27,
					"material":1
				}
			]
		},
		{
			"name":" \u65cb\u8f6c [255856] Geometry",
			"primitives":[
				{
					"attributes":{
						"POSITION":28,
						"NORMAL":29,
						"TEXCOORD_0":30
					},
					"indices":31,
					"material":1
				}
			]
		},
		{
			"name":" \u65cb\u8f6c [255864] Geometry",
			"primitives":[
				{
					"attributes":{
						"POSITION":32,
						"NORMAL":33,
						"TEXCOORD_0":34
					},
					"indices":35,
					"material":1
				}
			]
		},
		{
			"name":" \u65cb\u8f6c [255873] Geometry",
			"primitives":[
				{
					"attributes":{
						"POSITION":36,
						"NORMAL":37,
						"TEXCOORD_0":38
					},
					"indices":39,
					"material":1
				}
			]
		},
		{
			"name":" \u8fde\u63a5\u7684\u5b9e\u5fc3\u51e0\u4f55\u56fe\u5f62 [255883] Geometry",
			"primitives":[
				{
					"attributes":{
						"POSITION":40,
						"NORMAL":41,
						"TEXCOORD_0":42
					},
					"indices":43,
					"material":0
				}
			]
		}
	],
	"accessors":[
		{
			"bufferView":0,
			"componentType":5126,
			"count":944,
			"max":[
				0.16076114773750305,
				0.4199475049972534,
				0.16076114773750305
			],
			"min":[
				-0.16076114773750305,
				0.2788713872432709,
				-0.16076114773750305
			],
			"type":"VEC3"
		},
		{
			"bufferView":1,
			"componentType":5126,
			"count":944,
			"type":"VEC3"
		},
		{
			"bufferView":2,
			"componentType":5126,
			"count":944,
			"type":"VEC2"
		},
		{
			"bufferView":3,
			"componentType":5123,
			"count":4080,
			"type":"SCALAR"
		},
		{
			"bufferView":4,
			"componentType":5126,
			"count":859,
			"max":[
				0.16076114773750305,
				0.2788713872432709,
				0.16076114773750305
			],
			"min":[
				-0.16076114773750305,
				0.2460629940032959,
				-0.16076114773750305
			],
			"type":"VEC3"
		},
		{
			"bufferView":5,
			"componentType":5126,
			"count":859,
			"type":"VEC3"
		},
		{
			"bufferView":6,
			"componentType":5126,
			"count":859,
			"type":"VEC2"
		},
		{
			"bufferView":7,
			"componentType":5123,
			"count":3636,
			"type":"SCALAR"
		},
		{
			"bufferView":8,
			"componentType":5126,
			"count":246,
			"max":[
				0.07381889969110489,
				0.053575728088617325,
				0.07381889969110489
			],
			"min":[
				-0.07381889969110489,
				0,
				-0.07381889969110489
			],
			"type":"VEC3"
		},
		{
			"bufferView":9,
			"componentType":5126,
			"count":246,
			"type":"VEC3"
		},
		{
			"bufferView":10,
			"componentType":5126,
			"count":246,
			"type":"VEC2"
		},
		{
			"bufferView":11,
			"componentType":5123,
			"count":720,
			"type":"SCALAR"
		},
		{
			"bufferView":12,
			"componentType":5126,
			"count":246,
			"max":[
				0.09842519462108612,
				0,
				0.09842519462108612
			],
			"min":[
				-0.09842519462108612,
				-0.013746808283030987,
				-0.09842519462108612
			],
			"type":"VEC3"
		},
		{
			"bufferView":13,
			"componentType":5126,
			"count":246,
			"type":"VEC3"
		},
		{
			"bufferView":14,
			"componentType":5126,
			"count":246,
			"type":"VEC2"
		},
		{
			"bufferView":15,
			"componentType":5123,
			"count":720,
			"type":"SCALAR"
		},
		{
			"bufferView":16,
			"componentType":5126,
			"count":294,
			"max":[
				0.11053096503019333,
				-0.013746808283030987,
				0.11053096503019333
			],
			"min":[
				-0.11053096503019333,
				-0.016885757446289062,
				-0.11053096503019333
			],
			"type":"VEC3"
		},
		{
			"bufferView":17,
			"componentType":5126,
			"count":294,
			"type":"VEC3"
		},
		{
			"bufferView":18,
			"componentType":5126,
			"count":294,
			"type":"VEC2"
		},
		{
			"bufferView":19,
			"componentType":5123,
			"count":864,
			"type":"SCALAR"
		},
		{
			"bufferView":20,
			"componentType":5126,
			"count":294,
			"max":[
				0.11423757672309875,
				-0.016885757446289062,
				0.11423757672309875
			],
			"min":[
				-0.11423757672309875,
				-0.02016659639775753,
				-0.11423757672309875
			],
			"type":"VEC3"
		},
		{
			"bufferView":21,
			"componentType":5126,
			"count":294,
			"type":"VEC3"
		},
		{
			"bufferView":22,
			"componentType":5126,
			"count":294,
			"type":"VEC2"
		},
		{
			"bufferView":23,
			"componentType":5123,
			"count":864,
			"type":"SCALAR"
		},
		{
			"bufferView":24,
			"componentType":5126,
			"count":192,
			"max":[
				0.10417400300502777,
				-0.034816619008779526,
				0.0920996218919754
			],
			"min":[
				-0.10417400300502777,
				-0.12075857818126678,
				-0.0920996218919754
			],
			"type":"VEC3"
		},
		{
			"bufferView":25,
			"componentType":5126,
			"count":192,
			"type":"VEC3"
		},
		{
			"bufferView":26,
			"componentType":5126,
			"count":192,
			"type":"VEC2"
		},
		{
			"bufferView":27,
			"componentType":5123,
			"count":564,
			"type":"SCALAR"
		},
		{
			"bufferView":28,
			"componentType":5126,
			"count":292,
			"max":[
				0.10762075334787369,
				-0.016885757446289062,
				0.10762075334787369
			],
			"min":[
				-0.10762075334787369,
				-0.034816619008779526,
				-0.10762075334787369
			],
			"type":"VEC3"
		},
		{
			"bufferView":29,
			"componentType":5126,
			"count":292,
			"type":"VEC3"
		},
		{
			"bufferView":30,
			"componentType":5126,
			"count":292,
			"type":"VEC2"
		},
		{
			"bufferView":31,
			"componentType":5123,
			"count":864,
			"type":"SCALAR"
		},
		{
			"bufferView":32,
			"componentType":5126,
			"count":370,
			"max":[
				0.10050506889820099,
				-0.12075857818126678,
				0.10050506889820099
			],
			"min":[
				-0.10050506889820099,
				-0.21325458586215973,
				-0.10050506889820099
			],
			"type":"VEC3"
		},
		{
			"bufferView":33,
			"componentType":5126,
			"count":370,
			"type":"VEC3"
		},
		{
			"bufferView":34,
			"componentType":5126,
			"count":370,
			"type":"VEC2"
		},
		{
			"bufferView":35,
			"componentType":5123,
			"count":1080,
			"type":"SCALAR"
		},
		{
			"bufferView":36,
			"componentType":5126,
			"count":306,
			"max":[
				0.09659172594547272,
				-0.21325458586215973,
				0.09659172594547272
			],
			"min":[
				-0.09659172594547272,
				-0.3608923852443695,
				-0.09659172594547272
			],
			"type":"VEC3"
		},
		{
			"bufferView":37,
			"componentType":5126,
			"count":306,
			"type":"VEC3"
		},
		{
			"bufferView":38,
			"componentType":5126,
			"count":306,
			"type":"VEC2"
		},
		{
			"bufferView":39,
			"componentType":5123,
			"count":1068,
			"type":"SCALAR"
		},
		{
			"bufferView":40,
			"componentType":5126,
			"count":1998,
			"max":[
				0.1448938250541687,
				0.2463616579771042,
				0.16099578142166138
			],
			"min":[
				-0.1448938250541687,
				0.053575728088617325,
				-0.1448938250541687
			],
			"type":"VEC3"
		},
		{
			"bufferView":41,
			"componentType":5126,
			"count":1998,
			"type":"VEC3"
		},
		{
			"bufferView":42,
			"componentType":5126,
			"count":1998,
			"type":"VEC2"
		},
		{
			"bufferView":43,
			"componentType":5123,
			"count":5493,
			"type":"SCALAR"
		}
	],
	"bufferViews":[
		{
			"buffer":0,
			"byteLength":11328,
			"byteOffset":0,
			"target":34962
		},
		{
			"buffer":0,
			"byteLength":11328,
			"byteOffset":11328,
			"target":34962
		},
		{
			"buffer":0,
			"byteLength":7552,
			"byteOffset":22656,
			"target":34962
		},
		{
			"buffer":0,
			"byteLength":8160,
			"byteOffset":30208,
			"target":34963
		},
		{
			"buffer":0,
			"byteLength":10308,
			"byteOffset":38368,
			"target":34962
		},
		{
			"buffer":0,
			"byteLength":10308,
			"byteOffset":48676,
			"target":34962
		},
		{
			"buffer":0,
			"byteLength":6872,
			"byteOffset":58984,
			"target":34962
		},
		{
			"buffer":0,
			"byteLength":7272,
			"byteOffset":65856,
			"target":34963
		},
		{
			"buffer":0,
			"byteLength":2952,
			"byteOffset":73128,
			"target":34962
		},
		{
			"buffer":0,
			"byteLength":2952,
			"byteOffset":76080,
			"target":34962
		},
		{
			"buffer":0,
			"byteLength":1968,
			"byteOffset":79032,
			"target":34962
		},
		{
			"buffer":0,
			"byteLength":1440,
			"byteOffset":81000,
			"target":34963
		},
		{
			"buffer":0,
			"byteLength":2952,
			"byteOffset":82440,
			"target":34962
		},
		{
			"buffer":0,
			"byteLength":2952,
			"byteOffset":85392,
			"target":34962
		},
		{
			"buffer":0,
			"byteLength":1968,
			"byteOffset":88344,
			"target":34962
		},
		{
			"buffer":0,
			"byteLength":1440,
			"byteOffset":90312,
			"target":34963
		},
		{
			"buffer":0,
			"byteLength":3528,
			"byteOffset":91752,
			"target":34962
		},
		{
			"buffer":0,
			"byteLength":3528,
			"byteOffset":95280,
			"target":34962
		},
		{
			"buffer":0,
			"byteLength":2352,
			"byteOffset":98808,
			"target":34962
		},
		{
			"buffer":0,
			"byteLength":1728,
			"byteOffset":101160,
			"target":34963
		},
		{
			"buffer":0,
			"byteLength":3528,
			"byteOffset":102888,
			"target":34962
		},
		{
			"buffer":0,
			"byteLength":3528,
			"byteOffset":106416,
			"target":34962
		},
		{
			"buffer":0,
			"byteLength":2352,
			"byteOffset":109944,
			"target":34962
		},
		{
			"buffer":0,
			"byteLength":1728,
			"byteOffset":112296,
			"target":34963
		},
		{
			"buffer":0,
			"byteLength":2304,
			"byteOffset":114024,
			"target":34962
		},
		{
			"buffer":0,
			"byteLength":2304,
			"byteOffset":116328,
			"target":34962
		},
		{
			"buffer":0,
			"byteLength":1536,
			"byteOffset":118632,
			"target":34962
		},
		{
			"buffer":0,
			"byteLength":1128,
			"byteOffset":120168,
			"target":34963
		},
		{
			"buffer":0,
			"byteLength":3504,
			"byteOffset":121296,
			"target":34962
		},
		{
			"buffer":0,
			"byteLength":3504,
			"byteOffset":124800,
			"target":34962
		},
		{
			"buffer":0,
			"byteLength":2336,
			"byteOffset":128304,
			"target":34962
		},
		{
			"buffer":0,
			"byteLength":1728,
			"byteOffset":130640,
			"target":34963
		},
		{
			"buffer":0,
			"byteLength":4440,
			"byteOffset":132368,
			"target":34962
		},
		{
			"buffer":0,
			"byteLength":4440,
			"byteOffset":136808,
			"target":34962
		},
		{
			"buffer":0,
			"byteLength":2960,
			"byteOffset":141248,
			"target":34962
		},
		{
			"buffer":0,
			"byteLength":2160,
			"byteOffset":144208,
			"target":34963
		},
		{
			"buffer":0,
			"byteLength":3672,
			"byteOffset":146368,
			"target":34962
		},
		{
			"buffer":0,
			"byteLength":3672,
			"byteOffset":150040,
			"target":34962
		},
		{
			"buffer":0,
			"byteLength":2448,
			"byteOffset":153712,
			"target":34962
		},
		{
			"buffer":0,
			"byteLength":2136,
			"byteOffset":156160,
			"target":34963
		},
		{
			"buffer":0,
			"byteLength":23976,
			"byteOffset":158296,
			"target":34962
		},
		{
			"buffer":0,
			"byteLength":23976,
			"byteOffset":182272,
			"target":34962
		},
		{
			"buffer":0,
			"byteLength":15984,
			"byteOffset":206248,
			"target":34962
		},
		{
			"buffer":0,
			"byteLength":10986,
			"byteOffset":222232,
			"target":34963
		}
	],
	"buffers":[
		{
			"byteLength":233220,
			"uri":"ultrasonic-level-meter.bin"
		}
	]
}
