{
	"asset":{
		"generator":"Khronos glTF Blender I/O v4.2.70",
		"version":"2.0"
	},
	"scene":0,
	"scenes":[
		{
			"name":"Scene",
			"nodes":[
				0
			]
		}
	],
	"nodes":[
		{
			"mesh":0,
			"name":" \u653e\u6837 [212433]",
			"scale":[
				0.30480000376701355,
				0.30480000376701355,
				0.30480000376701355
			],
			"translation":[
				0,
				0,
				-0.21242867410182953
			]
		}
	],
	"materials":[
		{
			"doubleSided":true,
			"name":"\u4e0d\u9508\u94a2",
			"pbrMetallicRoughness":{
				"baseColorFactor":[
					0.33716103434562683,
					0.4851502776145935,
					0.701102077960968,
					1
				],
				"metallicFactor":0.5,
				"roughnessFactor":0.20000000298023224
			}
		}
	],
	"meshes":[
		{
			"name":" \u653e\u6837 [212433] Geometry.001",
			"primitives":[
				{
					"attributes":{
						"POSITION":0,
						"NORMAL":1,
						"TEXCOORD_0":2
					},
					"indices":3,
					"material":0
				}
			]
		}
	],
	"accessors":[
		{
			"bufferView":0,
			"componentType":5126,
			"count":3061,
			"max":[
				0.6889764070510864,
				0.03280840069055557,
				1.5091863870620728
			],
			"min":[
				-1.1102230246251565e-16,
				-0.03280840069055557,
				-0.19685038924217224
			],
			"type":"VEC3"
		},
		{
			"bufferView":1,
			"componentType":5126,
			"count":3061,
			"type":"VEC3"
		},
		{
			"bufferView":2,
			"componentType":5126,
			"count":3061,
			"type":"VEC2"
		},
		{
			"bufferView":3,
			"componentType":5123,
			"count":16554,
			"type":"SCALAR"
		}
	],
	"bufferViews":[
		{
			"buffer":0,
			"byteLength":36732,
			"byteOffset":0,
			"target":34962
		},
		{
			"buffer":0,
			"byteLength":36732,
			"byteOffset":36732,
			"target":34962
		},
		{
			"buffer":0,
			"byteLength":24488,
			"byteOffset":73464,
			"target":34962
		},
		{
			"buffer":0,
			"byteLength":33108,
			"byteOffset":97952,
			"target":34963
		}
	],
	"buffers":[
		{
			"byteLength":131060,
			"uri":"tread-step.bin"
		}
	]
}
