{
	"asset":{
		"generator":"Khronos glTF Blender I/O v4.2.70",
		"version":"2.0"
	},
	"scene":0,
	"scenes":[
		{
			"name":"Scene",
			"nodes":[
				0,
				1,
				2,
				3
			]
		}
	],
	"nodes":[
		{
			"mesh":0,
			"name":" \u62c9\u4f38 [215548]",
			"scale":[
				0.30480000376701355,
				0.30480000376701355,
				0.30480000376701355
			],
			"translation":[
				0,
				0.8740514516830444,
				0
			]
		},
		{
			"mesh":1,
			"name":" \u62c9\u4f38 [215558]",
			"scale":[
				0.30480000376701355,
				0.30480000376701355,
				0.30480000376701355
			],
			"translation":[
				0,
				0.8740514516830444,
				0
			]
		},
		{
			"mesh":2,
			"name":" \u653e\u6837 [215581]",
			"scale":[
				0.30480000376701355,
				0.30480000376701355,
				0.30480000376701355
			],
			"translation":[
				0,
				0.8740514516830444,
				0
			]
		},
		{
			"mesh":3,
			"name":" \u62c9\u4f38 [215605]",
			"scale":[
				0.30480000376701355,
				0.30480000376701355,
				0.30480000376701355
			],
			"translation":[
				0,
				0.8740514516830444,
				0
			]
		}
	],
	"materials":[
		{
			"doubleSided":true,
			"name":"\u4e0d\u9508\u94a2",
			"pbrMetallicRoughness":{
				"baseColorFactor":[
					0.33716103434562683,
					0.4851502776145935,
					0.701102077960968,
					1
				],
				"metallicFactor":0.5,
				"roughnessFactor":0.20000000298023224
			}
		}
	],
	"meshes":[
		{
			"name":" \u62c9\u4f38 [215548] Geometry",
			"primitives":[
				{
					"attributes":{
						"POSITION":0,
						"NORMAL":1,
						"TEXCOORD_0":2
					},
					"indices":3,
					"material":0
				}
			]
		},
		{
			"name":" \u62c9\u4f38 [215558] Geometry",
			"primitives":[
				{
					"attributes":{
						"POSITION":4,
						"NORMAL":5,
						"TEXCOORD_0":6
					},
					"indices":7,
					"material":0
				}
			]
		},
		{
			"name":" \u653e\u6837 [215581] Geometry",
			"primitives":[
				{
					"attributes":{
						"POSITION":8,
						"NORMAL":9,
						"TEXCOORD_0":10
					},
					"indices":11,
					"material":0
				}
			]
		},
		{
			"name":" \u62c9\u4f38 [215605] Geometry",
			"primitives":[
				{
					"attributes":{
						"POSITION":12,
						"NORMAL":13,
						"TEXCOORD_0":14
					},
					"indices":15,
					"material":0
				}
			]
		}
	],
	"accessors":[
		{
			"bufferView":0,
			"componentType":5126,
			"count":24,
			"max":[
				0.2460629940032959,
				0.04593176022171974,
				0.2460629940032959
			],
			"min":[
				-0.2460629940032959,
				0,
				-0.2460629940032959
			],
			"type":"VEC3"
		},
		{
			"bufferView":1,
			"componentType":5126,
			"count":24,
			"type":"VEC3"
		},
		{
			"bufferView":2,
			"componentType":5126,
			"count":24,
			"type":"VEC2"
		},
		{
			"bufferView":3,
			"componentType":5123,
			"count":36,
			"type":"SCALAR"
		},
		{
			"bufferView":4,
			"componentType":5126,
			"count":570,
			"max":[
				0.184711292386055,
				0,
				0.184711292386055
			],
			"min":[
				-0.184711292386055,
				-4.265091896057129,
				-0.184711292386055
			],
			"type":"VEC3"
		},
		{
			"bufferView":5,
			"componentType":5126,
			"count":570,
			"type":"VEC3"
		},
		{
			"bufferView":6,
			"componentType":5126,
			"count":570,
			"type":"VEC2"
		},
		{
			"bufferView":7,
			"componentType":5123,
			"count":2772,
			"type":"SCALAR"
		},
		{
			"bufferView":8,
			"componentType":5126,
			"count":1245,
			"max":[
				1.980322003364563,
				-2.267798662185669,
				0.030757874250411987
			],
			"min":[
				-0.06561680138111115,
				-4.1298394203186035,
				-0.030757874250411987
			],
			"type":"VEC3"
		},
		{
			"bufferView":9,
			"componentType":5126,
			"count":1245,
			"type":"VEC3"
		},
		{
			"bufferView":10,
			"componentType":5126,
			"count":1245,
			"type":"VEC2"
		},
		{
			"bufferView":11,
			"componentType":5123,
			"count":6054,
			"type":"SCALAR"
		},
		{
			"bufferView":12,
			"componentType":5126,
			"count":268,
			"max":[
				0.12303149700164795,
				-2.2329397201538086,
				0.05682581290602684
			],
			"min":[
				0.03280840069055557,
				-4.164698123931885,
				-0.05682581290602684
			],
			"type":"VEC3"
		},
		{
			"bufferView":13,
			"componentType":5126,
			"count":268,
			"type":"VEC3"
		},
		{
			"bufferView":14,
			"componentType":5126,
			"count":268,
			"type":"VEC2"
		},
		{
			"bufferView":15,
			"componentType":5123,
			"count":720,
			"type":"SCALAR"
		}
	],
	"bufferViews":[
		{
			"buffer":0,
			"byteLength":288,
			"byteOffset":0,
			"target":34962
		},
		{
			"buffer":0,
			"byteLength":288,
			"byteOffset":288,
			"target":34962
		},
		{
			"buffer":0,
			"byteLength":192,
			"byteOffset":576,
			"target":34962
		},
		{
			"buffer":0,
			"byteLength":72,
			"byteOffset":768,
			"target":34963
		},
		{
			"buffer":0,
			"byteLength":6840,
			"byteOffset":840,
			"target":34962
		},
		{
			"buffer":0,
			"byteLength":6840,
			"byteOffset":7680,
			"target":34962
		},
		{
			"buffer":0,
			"byteLength":4560,
			"byteOffset":14520,
			"target":34962
		},
		{
			"buffer":0,
			"byteLength":5544,
			"byteOffset":19080,
			"target":34963
		},
		{
			"buffer":0,
			"byteLength":14940,
			"byteOffset":24624,
			"target":34962
		},
		{
			"buffer":0,
			"byteLength":14940,
			"byteOffset":39564,
			"target":34962
		},
		{
			"buffer":0,
			"byteLength":9960,
			"byteOffset":54504,
			"target":34962
		},
		{
			"buffer":0,
			"byteLength":12108,
			"byteOffset":64464,
			"target":34963
		},
		{
			"buffer":0,
			"byteLength":3216,
			"byteOffset":76572,
			"target":34962
		},
		{
			"buffer":0,
			"byteLength":3216,
			"byteOffset":79788,
			"target":34962
		},
		{
			"buffer":0,
			"byteLength":2144,
			"byteOffset":83004,
			"target":34962
		},
		{
			"buffer":0,
			"byteLength":1440,
			"byteOffset":85148,
			"target":34963
		}
	],
	"buffers":[
		{
			"byteLength":86588,
			"uri":"standpipe-support.bin"
		}
	]
}
