{
	"asset":{
		"generator":"Khronos glTF Blender I/O v4.2.70",
		"version":"2.0"
	},
	"scene":0,
	"scenes":[
		{
			"name":"Scene",
			"nodes":[
				0,
				1,
				2,
				3,
				4,
				5,
				6,
				7,
				8,
				9,
				10,
				11,
				12
			]
		}
	],
	"nodes":[
		{
			"mesh":0,
			"name":" \u62c9\u4f38 [212434]",
			"scale":[
				0.30480000376701355,
				0.30480000376701355,
				0.30480000376701355
			]
		},
		{
			"mesh":1,
			"name":" \u62c9\u4f38 [212469]",
			"scale":[
				0.30480000376701355,
				0.30480000376701355,
				0.30480000376701355
			]
		},
		{
			"mesh":2,
			"name":" \u8fde\u63a5\u7684\u5b9e\u5fc3\u51e0\u4f55\u56fe\u5f62 [212478]",
			"scale":[
				0.30480000376701355,
				0.30480000376701355,
				0.30480000376701355
			]
		},
		{
			"mesh":3,
			"name":" \u653e\u6837 [212479]",
			"scale":[
				0.30480000376701355,
				0.30480000376701355,
				0.30480000376701355
			]
		},
		{
			"mesh":4,
			"name":" \u65cb\u8f6c [212512]",
			"scale":[
				0.30480000376701355,
				0.30480000376701355,
				0.30480000376701355
			]
		},
		{
			"mesh":5,
			"name":" \u65cb\u8f6c [212522]",
			"scale":[
				0.30480000376701355,
				0.30480000376701355,
				0.30480000376701355
			]
		},
		{
			"mesh":6,
			"name":" \u65cb\u8f6c [212530]",
			"scale":[
				0.30480000376701355,
				0.30480000376701355,
				0.30480000376701355
			]
		},
		{
			"mesh":7,
			"name":" \u65cb\u8f6c [212544]",
			"scale":[
				0.30480000376701355,
				0.30480000376701355,
				0.30480000376701355
			]
		},
		{
			"mesh":8,
			"name":" \u65cb\u8f6c [212552]",
			"scale":[
				0.30480000376701355,
				0.30480000376701355,
				0.30480000376701355
			]
		},
		{
			"mesh":9,
			"name":" \u65cb\u8f6c [212568]",
			"scale":[
				0.30480000376701355,
				0.30480000376701355,
				0.30480000376701355
			]
		},
		{
			"mesh":10,
			"name":" \u62c9\u4f38 [212713]",
			"scale":[
				0.30480000376701355,
				0.30480000376701355,
				0.30480000376701355
			]
		},
		{
			"mesh":11,
			"name":" \u62c9\u4f38 [212733]",
			"scale":[
				0.30480000376701355,
				0.30480000376701355,
				0.30480000376701355
			]
		},
		{
			"mesh":12,
			"name":" \u62c9\u4f38 [212813]",
			"scale":[
				0.30480000376701355,
				0.30480000376701355,
				0.30480000376701355
			]
		}
	],
	"materials":[
		{
			"doubleSided":true,
			"name":"\u9600\u95e8",
			"pbrMetallicRoughness":{
				"baseColorFactor":[
					0,
					0.08228268474340439,
					0.3139888346195221,
					1
				],
				"metallicFactor":0.5,
				"roughnessFactor":0.20000000298023224
			}
		},
		{
			"doubleSided":true,
			"name":"\u4e0d\u9508\u94a2",
			"pbrMetallicRoughness":{
				"baseColorFactor":[
					0.33716103434562683,
					0.4851502776145935,
					0.701102077960968,
					1
				],
				"metallicFactor":0.5,
				"roughnessFactor":0.20000000298023224
			}
		},
		{
			"doubleSided":true,
			"name":"\u4f9b\u6c34\u7ba1\u9053",
			"pbrMetallicRoughness":{
				"baseColorFactor":[
					0.8000858426094055,
					0.018331428989768028,
					0.012761037796735764,
					1
				],
				"metallicFactor":0.5,
				"roughnessFactor":0.20000000298023224
			}
		},
		{
			"doubleSided":true,
			"name":"\u6162\u884c\u7cfb\u7edf",
			"pbrMetallicRoughness":{
				"baseColorFactor":[
					0.00367595418356359,
					0.2195262610912323,
					0.5520115494728088,
					1
				],
				"metallicFactor":0.20000000298023224
			}
		}
	],
	"meshes":[
		{
			"name":" \u62c9\u4f38 [212434] Geometry",
			"primitives":[
				{
					"attributes":{
						"POSITION":0,
						"NORMAL":1,
						"TEXCOORD_0":2
					},
					"indices":3,
					"material":0
				}
			]
		},
		{
			"name":" \u62c9\u4f38 [212469] Geometry",
			"primitives":[
				{
					"attributes":{
						"POSITION":4,
						"NORMAL":5,
						"TEXCOORD_0":6
					},
					"indices":7,
					"material":1
				}
			]
		},
		{
			"name":" \u8fde\u63a5\u7684\u5b9e\u5fc3\u51e0\u4f55\u56fe\u5f62 [212478] Geometry",
			"primitives":[
				{
					"attributes":{
						"POSITION":8,
						"NORMAL":9,
						"TEXCOORD_0":10
					},
					"indices":11,
					"material":0
				}
			]
		},
		{
			"name":" \u653e\u6837 [212479] Geometry",
			"primitives":[
				{
					"attributes":{
						"POSITION":12,
						"NORMAL":13,
						"TEXCOORD_0":14
					},
					"indices":15,
					"material":2
				}
			]
		},
		{
			"name":" \u65cb\u8f6c [212512] Geometry",
			"primitives":[
				{
					"attributes":{
						"POSITION":16,
						"NORMAL":17,
						"TEXCOORD_0":18
					},
					"indices":19,
					"material":2
				}
			]
		},
		{
			"name":" \u65cb\u8f6c [212522] Geometry",
			"primitives":[
				{
					"attributes":{
						"POSITION":20,
						"NORMAL":21,
						"TEXCOORD_0":22
					},
					"indices":23,
					"material":2
				}
			]
		},
		{
			"name":" \u65cb\u8f6c [212530] Geometry",
			"primitives":[
				{
					"attributes":{
						"POSITION":24,
						"NORMAL":25,
						"TEXCOORD_0":26
					},
					"indices":27,
					"material":2
				}
			]
		},
		{
			"name":" \u65cb\u8f6c [212544] Geometry",
			"primitives":[
				{
					"attributes":{
						"POSITION":28,
						"NORMAL":29,
						"TEXCOORD_0":30
					},
					"indices":31,
					"material":2
				}
			]
		},
		{
			"name":" \u65cb\u8f6c [212552] Geometry",
			"primitives":[
				{
					"attributes":{
						"POSITION":32,
						"NORMAL":33,
						"TEXCOORD_0":34
					},
					"indices":35,
					"material":2
				}
			]
		},
		{
			"name":" \u65cb\u8f6c [212568] Geometry",
			"primitives":[
				{
					"attributes":{
						"POSITION":36,
						"NORMAL":37,
						"TEXCOORD_0":38
					},
					"indices":39,
					"material":2
				}
			]
		},
		{
			"name":" \u62c9\u4f38 [212713] Geometry",
			"primitives":[
				{
					"attributes":{
						"POSITION":40,
						"NORMAL":41,
						"TEXCOORD_0":42
					},
					"indices":43,
					"material":3
				}
			]
		},
		{
			"name":" \u62c9\u4f38 [212733] Geometry",
			"primitives":[
				{
					"attributes":{
						"POSITION":44,
						"NORMAL":45,
						"TEXCOORD_0":46
					},
					"indices":47
				}
			]
		},
		{
			"name":" \u62c9\u4f38 [212813] Geometry",
			"primitives":[
				{
					"attributes":{
						"POSITION":48,
						"NORMAL":49,
						"TEXCOORD_0":50
					},
					"indices":51
				}
			]
		}
	],
	"accessors":[
		{
			"bufferView":0,
			"componentType":5126,
			"count":48,
			"max":[
				8.202099800109863,
				5.577427864074707,
				3.9370079040527344
			],
			"min":[
				-8.202099800109863,
				0,
				-3.9370079040527344
			],
			"type":"VEC3"
		},
		{
			"bufferView":1,
			"componentType":5126,
			"count":48,
			"type":"VEC3"
		},
		{
			"bufferView":2,
			"componentType":5126,
			"count":48,
			"type":"VEC2"
		},
		{
			"bufferView":3,
			"componentType":5123,
			"count":96,
			"type":"SCALAR"
		},
		{
			"bufferView":4,
			"componentType":5126,
			"count":48,
			"max":[
				8.070866584777832,
				4.101049900054932,
				0.4796587824821472
			],
			"min":[
				-8.070866584777832,
				2.690288782119751,
				-0.4757217764854431
			],
			"type":"VEC3"
		},
		{
			"bufferView":5,
			"componentType":5126,
			"count":48,
			"type":"VEC3"
		},
		{
			"bufferView":6,
			"componentType":5126,
			"count":48,
			"type":"VEC2"
		},
		{
			"bufferView":7,
			"componentType":5123,
			"count":84,
			"type":"SCALAR"
		},
		{
			"bufferView":8,
			"componentType":5126,
			"count":108,
			"max":[
				8.202099800109863,
				7.105427357601002e-15,
				3.9370079040527344
			],
			"min":[
				-8.202099800109863,
				-4.480606555938721,
				-3.9370079040527344
			],
			"type":"VEC3"
		},
		{
			"bufferView":9,
			"componentType":5126,
			"count":108,
			"type":"VEC3"
		},
		{
			"bufferView":10,
			"componentType":5126,
			"count":108,
			"type":"VEC2"
		},
		{
			"bufferView":11,
			"componentType":5123,
			"count":216,
			"type":"SCALAR"
		},
		{
			"bufferView":12,
			"componentType":5126,
			"count":457,
			"max":[
				7.791362762451172,
				2.690288782119751,
				2.5805349349975586
			],
			"min":[
				7.29923677444458,
				-1.3156781196594238,
				-0.2460629940032959
			],
			"type":"VEC3"
		},
		{
			"bufferView":13,
			"componentType":5126,
			"count":457,
			"type":"VEC3"
		},
		{
			"bufferView":14,
			"componentType":5126,
			"count":457,
			"type":"VEC2"
		},
		{
			"bufferView":15,
			"componentType":5123,
			"count":1968,
			"type":"SCALAR"
		},
		{
			"bufferView":16,
			"componentType":5126,
			"count":140,
			"max":[
				7.988239288330078,
				-0.8248986601829529,
				2.7826874256134033
			],
			"min":[
				7.102360248565674,
				-1.5181711912155151,
				2.091787576675415
			],
			"type":"VEC3"
		},
		{
			"bufferView":17,
			"componentType":5126,
			"count":140,
			"type":"VEC3"
		},
		{
			"bufferView":18,
			"componentType":5126,
			"count":140,
			"type":"VEC2"
		},
		{
			"bufferView":19,
			"componentType":5123,
			"count":264,
			"type":"SCALAR"
		},
		{
			"bufferView":20,
			"componentType":5126,
			"count":158,
			"max":[
				7.863980293273926,
				-0.9719235897064209,
				2.9122397899627686
			],
			"min":[
				7.226619243621826,
				-1.646462321281433,
				2.2386956214904785
			],
			"type":"VEC3"
		},
		{
			"bufferView":21,
			"componentType":5126,
			"count":158,
			"type":"VEC3"
		},
		{
			"bufferView":22,
			"componentType":5126,
			"count":158,
			"type":"VEC2"
		},
		{
			"bufferView":23,
			"componentType":5123,
			"count":432,
			"type":"SCALAR"
		},
		{
			"bufferView":24,
			"componentType":5126,
			"count":100,
			"max":[
				7.848067760467529,
				-0.9833727478981018,
				2.9166107177734375
			],
			"min":[
				7.242531776428223,
				-1.6507205963134766,
				2.2500972747802734
			],
			"type":"VEC3"
		},
		{
			"bufferView":25,
			"componentType":5126,
			"count":100,
			"type":"VEC3"
		},
		{
			"bufferView":26,
			"componentType":5126,
			"count":100,
			"type":"VEC2"
		},
		{
			"bufferView":27,
			"componentType":5123,
			"count":216,
			"type":"SCALAR"
		},
		{
			"bufferView":28,
			"componentType":5126,
			"count":106,
			"max":[
				7.7934417724609375,
				-1.2574504613876343,
				2.990795373916626
			],
			"min":[
				7.297157287597656,
				-1.7242547273635864,
				2.524963855743408
			],
			"type":"VEC3"
		},
		{
			"bufferView":29,
			"componentType":5126,
			"count":106,
			"type":"VEC3"
		},
		{
			"bufferView":30,
			"componentType":5126,
			"count":106,
			"type":"VEC2"
		},
		{
			"bufferView":31,
			"componentType":5123,
			"count":288,
			"type":"SCALAR"
		},
		{
			"bufferView":32,
			"componentType":5126,
			"count":468,
			"max":[
				7.899049282073975,
				-1.3058750629425049,
				3.5923068523406982
			],
			"min":[
				7.191549777984619,
				-2.32383131980896,
				2.5741474628448486
			],
			"type":"VEC3"
		},
		{
			"bufferView":33,
			"componentType":5126,
			"count":468,
			"type":"VEC3"
		},
		{
			"bufferView":34,
			"componentType":5126,
			"count":468,
			"type":"VEC2"
		},
		{
			"bufferView":35,
			"componentType":5123,
			"count":1686,
			"type":"SCALAR"
		},
		{
			"bufferView":36,
			"componentType":5126,
			"count":124,
			"max":[
				7.798003673553467,
				-1.909067153930664,
				3.5749082565307617
			],
			"min":[
				7.292595386505127,
				-2.3183727264404297,
				3.165602684020996
			],
			"type":"VEC3"
		},
		{
			"bufferView":37,
			"componentType":5126,
			"count":124,
			"type":"VEC3"
		},
		{
			"bufferView":38,
			"componentType":5126,
			"count":124,
			"type":"VEC2"
		},
		{
			"bufferView":39,
			"componentType":5123,
			"count":336,
			"type":"SCALAR"
		},
		{
			"bufferView":40,
			"componentType":5126,
			"count":48,
			"max":[
				8.776247024536133,
				5.675853252410889,
				3.362860918045044
			],
			"min":[
				-8.776247024536133,
				5.577427864074707,
				-3.362860918045044
			],
			"type":"VEC3"
		},
		{
			"bufferView":41,
			"componentType":5126,
			"count":48,
			"type":"VEC3"
		},
		{
			"bufferView":42,
			"componentType":5126,
			"count":48,
			"type":"VEC2"
		},
		{
			"bufferView":43,
			"componentType":5123,
			"count":72,
			"type":"SCALAR"
		},
		{
			"bufferView":44,
			"componentType":5126,
			"count":540,
			"max":[
				8.715470314025879,
				5.7086615562438965,
				3.342146635055542
			],
			"min":[
				-8.715470314025879,
				5.675853252410889,
				-3.342146635055542
			],
			"type":"VEC3"
		},
		{
			"bufferView":45,
			"componentType":5126,
			"count":540,
			"type":"VEC3"
		},
		{
			"bufferView":46,
			"componentType":5126,
			"count":540,
			"type":"VEC2"
		},
		{
			"bufferView":47,
			"componentType":5123,
			"count":1440,
			"type":"SCALAR"
		},
		{
			"bufferView":48,
			"componentType":5126,
			"count":398,
			"max":[
				8.696669578552246,
				5.741469860076904,
				3.317521572113037
			],
			"min":[
				-8.696669578552246,
				5.577427864074707,
				-3.317521572113037
			],
			"type":"VEC3"
		},
		{
			"bufferView":49,
			"componentType":5126,
			"count":398,
			"type":"VEC3"
		},
		{
			"bufferView":50,
			"componentType":5126,
			"count":398,
			"type":"VEC2"
		},
		{
			"bufferView":51,
			"componentType":5123,
			"count":1104,
			"type":"SCALAR"
		}
	],
	"bufferViews":[
		{
			"buffer":0,
			"byteLength":576,
			"byteOffset":0,
			"target":34962
		},
		{
			"buffer":0,
			"byteLength":576,
			"byteOffset":576,
			"target":34962
		},
		{
			"buffer":0,
			"byteLength":384,
			"byteOffset":1152,
			"target":34962
		},
		{
			"buffer":0,
			"byteLength":192,
			"byteOffset":1536,
			"target":34963
		},
		{
			"buffer":0,
			"byteLength":576,
			"byteOffset":1728,
			"target":34962
		},
		{
			"buffer":0,
			"byteLength":576,
			"byteOffset":2304,
			"target":34962
		},
		{
			"buffer":0,
			"byteLength":384,
			"byteOffset":2880,
			"target":34962
		},
		{
			"buffer":0,
			"byteLength":168,
			"byteOffset":3264,
			"target":34963
		},
		{
			"buffer":0,
			"byteLength":1296,
			"byteOffset":3432,
			"target":34962
		},
		{
			"buffer":0,
			"byteLength":1296,
			"byteOffset":4728,
			"target":34962
		},
		{
			"buffer":0,
			"byteLength":864,
			"byteOffset":6024,
			"target":34962
		},
		{
			"buffer":0,
			"byteLength":432,
			"byteOffset":6888,
			"target":34963
		},
		{
			"buffer":0,
			"byteLength":5484,
			"byteOffset":7320,
			"target":34962
		},
		{
			"buffer":0,
			"byteLength":5484,
			"byteOffset":12804,
			"target":34962
		},
		{
			"buffer":0,
			"byteLength":3656,
			"byteOffset":18288,
			"target":34962
		},
		{
			"buffer":0,
			"byteLength":3936,
			"byteOffset":21944,
			"target":34963
		},
		{
			"buffer":0,
			"byteLength":1680,
			"byteOffset":25880,
			"target":34962
		},
		{
			"buffer":0,
			"byteLength":1680,
			"byteOffset":27560,
			"target":34962
		},
		{
			"buffer":0,
			"byteLength":1120,
			"byteOffset":29240,
			"target":34962
		},
		{
			"buffer":0,
			"byteLength":528,
			"byteOffset":30360,
			"target":34963
		},
		{
			"buffer":0,
			"byteLength":1896,
			"byteOffset":30888,
			"target":34962
		},
		{
			"buffer":0,
			"byteLength":1896,
			"byteOffset":32784,
			"target":34962
		},
		{
			"buffer":0,
			"byteLength":1264,
			"byteOffset":34680,
			"target":34962
		},
		{
			"buffer":0,
			"byteLength":864,
			"byteOffset":35944,
			"target":34963
		},
		{
			"buffer":0,
			"byteLength":1200,
			"byteOffset":36808,
			"target":34962
		},
		{
			"buffer":0,
			"byteLength":1200,
			"byteOffset":38008,
			"target":34962
		},
		{
			"buffer":0,
			"byteLength":800,
			"byteOffset":39208,
			"target":34962
		},
		{
			"buffer":0,
			"byteLength":432,
			"byteOffset":40008,
			"target":34963
		},
		{
			"buffer":0,
			"byteLength":1272,
			"byteOffset":40440,
			"target":34962
		},
		{
			"buffer":0,
			"byteLength":1272,
			"byteOffset":41712,
			"target":34962
		},
		{
			"buffer":0,
			"byteLength":848,
			"byteOffset":42984,
			"target":34962
		},
		{
			"buffer":0,
			"byteLength":576,
			"byteOffset":43832,
			"target":34963
		},
		{
			"buffer":0,
			"byteLength":5616,
			"byteOffset":44408,
			"target":34962
		},
		{
			"buffer":0,
			"byteLength":5616,
			"byteOffset":50024,
			"target":34962
		},
		{
			"buffer":0,
			"byteLength":3744,
			"byteOffset":55640,
			"target":34962
		},
		{
			"buffer":0,
			"byteLength":3372,
			"byteOffset":59384,
			"target":34963
		},
		{
			"buffer":0,
			"byteLength":1488,
			"byteOffset":62756,
			"target":34962
		},
		{
			"buffer":0,
			"byteLength":1488,
			"byteOffset":64244,
			"target":34962
		},
		{
			"buffer":0,
			"byteLength":992,
			"byteOffset":65732,
			"target":34962
		},
		{
			"buffer":0,
			"byteLength":672,
			"byteOffset":66724,
			"target":34963
		},
		{
			"buffer":0,
			"byteLength":576,
			"byteOffset":67396,
			"target":34962
		},
		{
			"buffer":0,
			"byteLength":576,
			"byteOffset":67972,
			"target":34962
		},
		{
			"buffer":0,
			"byteLength":384,
			"byteOffset":68548,
			"target":34962
		},
		{
			"buffer":0,
			"byteLength":144,
			"byteOffset":68932,
			"target":34963
		},
		{
			"buffer":0,
			"byteLength":6480,
			"byteOffset":69076,
			"target":34962
		},
		{
			"buffer":0,
			"byteLength":6480,
			"byteOffset":75556,
			"target":34962
		},
		{
			"buffer":0,
			"byteLength":4320,
			"byteOffset":82036,
			"target":34962
		},
		{
			"buffer":0,
			"byteLength":2880,
			"byteOffset":86356,
			"target":34963
		},
		{
			"buffer":0,
			"byteLength":4776,
			"byteOffset":89236,
			"target":34962
		},
		{
			"buffer":0,
			"byteLength":4776,
			"byteOffset":94012,
			"target":34962
		},
		{
			"buffer":0,
			"byteLength":3184,
			"byteOffset":98788,
			"target":34962
		},
		{
			"buffer":0,
			"byteLength":2208,
			"byteOffset":101972,
			"target":34963
		}
	],
	"buffers":[
		{
			"byteLength":104180,
			"uri":"circulating-clarifier.bin"
		}
	]
}
